<?xml version="1.0" encoding="utf-8" standalone="no"?>
<!DOCTYPE svg PUBLIC "-//W3C//DTD SVG 1.1//EN"
  "http://www.w3.org/Graphics/SVG/1.1/DTD/svg11.dtd">
<svg xmlns:xlink="http://www.w3.org/1999/xlink" width="360pt" height="216pt" viewBox="0 0 360 216" xmlns="http://www.w3.org/2000/svg" version="1.1">
 <metadata>
  <rdf:RDF xmlns:dc="http://purl.org/dc/elements/1.1/" xmlns:cc="http://creativecommons.org/ns#" xmlns:rdf="http://www.w3.org/1999/02/22-rdf-syntax-ns#">
   <cc:Work>
    <dc:type rdf:resource="http://purl.org/dc/dcmitype/StillImage"/>
    <dc:date>2023-10-03T21:29:34.896138</dc:date>
    <dc:format>image/svg+xml</dc:format>
    <dc:creator>
     <cc:Agent>
      <dc:title>Matplotlib v3.6.2, https://matplotlib.org/</dc:title>
     </cc:Agent>
    </dc:creator>
   </cc:Work>
  </rdf:RDF>
 </metadata>
 <defs>
  <style type="text/css">*{stroke-linejoin: round; stroke-linecap: butt}</style>
 </defs>
 <g id="figure_1">
  <g id="patch_1">
   <path d="M 0 216 
L 360 216 
L 360 0 
L 0 0 
z
" style="fill: #ffffff"/>
  </g>
  <g id="axes_1">
   <g id="patch_2">
    <path d="M 45 192.24 
L 324 192.24 
L 324 25.92 
L 45 25.92 
z
" style="fill: #ffffff"/>
   </g>
   <g id="matplotlib.axis_1">
    <g id="xtick_1">
     <g id="line2d_1">
      <defs>
       <path id="mf55071ee82" d="M 0 0 
L 0 3.5 
" style="stroke: #000000; stroke-width: 0.8"/>
      </defs>
      <g>
       <use xlink:href="#mf55071ee82" x="73.981559" y="192.24" style="stroke: #000000; stroke-width: 0.8"/>
      </g>
     </g>
     <g id="text_1">
      <!-- -20 -->
      <g transform="translate(66.755777 206.397813) scale(0.1 -0.1)">
       <defs>
        <path id="ArialMT-2d" d="M 203 1375 
L 203 1941 
L 1931 1941 
L 1931 1375 
L 203 1375 
z
" transform="scale(0.015625)"/>
        <path id="ArialMT-32" d="M 3222 541 
L 3222 0 
L 194 0 
Q 188 203 259 391 
Q 375 700 629 1000 
Q 884 1300 1366 1694 
Q 2113 2306 2375 2664 
Q 2638 3022 2638 3341 
Q 2638 3675 2398 3904 
Q 2159 4134 1775 4134 
Q 1369 4134 1125 3890 
Q 881 3647 878 3216 
L 300 3275 
Q 359 3922 746 4261 
Q 1134 4600 1788 4600 
Q 2447 4600 2831 4234 
Q 3216 3869 3216 3328 
Q 3216 3053 3103 2787 
Q 2991 2522 2730 2228 
Q 2469 1934 1863 1422 
Q 1356 997 1212 845 
Q 1069 694 975 541 
L 3222 541 
z
" transform="scale(0.015625)"/>
        <path id="ArialMT-30" d="M 266 2259 
Q 266 3072 433 3567 
Q 600 4063 929 4331 
Q 1259 4600 1759 4600 
Q 2128 4600 2406 4451 
Q 2684 4303 2865 4023 
Q 3047 3744 3150 3342 
Q 3253 2941 3253 2259 
Q 3253 1453 3087 958 
Q 2922 463 2592 192 
Q 2263 -78 1759 -78 
Q 1097 -78 719 397 
Q 266 969 266 2259 
z
M 844 2259 
Q 844 1131 1108 757 
Q 1372 384 1759 384 
Q 2147 384 2411 759 
Q 2675 1134 2675 2259 
Q 2675 3391 2411 3762 
Q 2147 4134 1753 4134 
Q 1366 4134 1134 3806 
Q 844 3388 844 2259 
z
" transform="scale(0.015625)"/>
       </defs>
       <use xlink:href="#ArialMT-2d"/>
       <use xlink:href="#ArialMT-32" x="33.300781"/>
       <use xlink:href="#ArialMT-30" x="88.916016"/>
      </g>
     </g>
    </g>
    <g id="xtick_2">
     <g id="line2d_2">
      <g>
       <use xlink:href="#mf55071ee82" x="107.187391" y="192.24" style="stroke: #000000; stroke-width: 0.8"/>
      </g>
     </g>
     <g id="text_2">
      <!-- -18 -->
      <g transform="translate(99.96161 206.397813) scale(0.1 -0.1)">
       <defs>
        <path id="ArialMT-31" d="M 2384 0 
L 1822 0 
L 1822 3584 
Q 1619 3391 1289 3197 
Q 959 3003 697 2906 
L 697 3450 
Q 1169 3672 1522 3987 
Q 1875 4303 2022 4600 
L 2384 4600 
L 2384 0 
z
" transform="scale(0.015625)"/>
        <path id="ArialMT-38" d="M 1131 2484 
Q 781 2613 612 2850 
Q 444 3088 444 3419 
Q 444 3919 803 4259 
Q 1163 4600 1759 4600 
Q 2359 4600 2725 4251 
Q 3091 3903 3091 3403 
Q 3091 3084 2923 2848 
Q 2756 2613 2416 2484 
Q 2838 2347 3058 2040 
Q 3278 1734 3278 1309 
Q 3278 722 2862 322 
Q 2447 -78 1769 -78 
Q 1091 -78 675 323 
Q 259 725 259 1325 
Q 259 1772 486 2073 
Q 713 2375 1131 2484 
z
M 1019 3438 
Q 1019 3113 1228 2906 
Q 1438 2700 1772 2700 
Q 2097 2700 2305 2904 
Q 2513 3109 2513 3406 
Q 2513 3716 2298 3927 
Q 2084 4138 1766 4138 
Q 1444 4138 1231 3931 
Q 1019 3725 1019 3438 
z
M 838 1322 
Q 838 1081 952 856 
Q 1066 631 1291 507 
Q 1516 384 1775 384 
Q 2178 384 2440 643 
Q 2703 903 2703 1303 
Q 2703 1709 2433 1975 
Q 2163 2241 1756 2241 
Q 1359 2241 1098 1978 
Q 838 1716 838 1322 
z
" transform="scale(0.015625)"/>
       </defs>
       <use xlink:href="#ArialMT-2d"/>
       <use xlink:href="#ArialMT-31" x="33.300781"/>
       <use xlink:href="#ArialMT-38" x="88.916016"/>
      </g>
     </g>
    </g>
    <g id="xtick_3">
     <g id="line2d_3">
      <g>
       <use xlink:href="#mf55071ee82" x="140.393223" y="192.24" style="stroke: #000000; stroke-width: 0.8"/>
      </g>
     </g>
     <g id="text_3">
      <!-- -16 -->
      <g transform="translate(133.167442 206.397813) scale(0.1 -0.1)">
       <defs>
        <path id="ArialMT-36" d="M 3184 3459 
L 2625 3416 
Q 2550 3747 2413 3897 
Q 2184 4138 1850 4138 
Q 1581 4138 1378 3988 
Q 1113 3794 959 3422 
Q 806 3050 800 2363 
Q 1003 2672 1297 2822 
Q 1591 2972 1913 2972 
Q 2475 2972 2870 2558 
Q 3266 2144 3266 1488 
Q 3266 1056 3080 686 
Q 2894 316 2569 119 
Q 2244 -78 1831 -78 
Q 1128 -78 684 439 
Q 241 956 241 2144 
Q 241 3472 731 4075 
Q 1159 4600 1884 4600 
Q 2425 4600 2770 4297 
Q 3116 3994 3184 3459 
z
M 888 1484 
Q 888 1194 1011 928 
Q 1134 663 1356 523 
Q 1578 384 1822 384 
Q 2178 384 2434 671 
Q 2691 959 2691 1453 
Q 2691 1928 2437 2201 
Q 2184 2475 1800 2475 
Q 1419 2475 1153 2201 
Q 888 1928 888 1484 
z
" transform="scale(0.015625)"/>
       </defs>
       <use xlink:href="#ArialMT-2d"/>
       <use xlink:href="#ArialMT-31" x="33.300781"/>
       <use xlink:href="#ArialMT-36" x="88.916016"/>
      </g>
     </g>
    </g>
    <g id="xtick_4">
     <g id="line2d_4">
      <g>
       <use xlink:href="#mf55071ee82" x="173.599056" y="192.24" style="stroke: #000000; stroke-width: 0.8"/>
      </g>
     </g>
     <g id="text_4">
      <!-- -14 -->
      <g transform="translate(166.373274 206.397813) scale(0.1 -0.1)">
       <defs>
        <path id="ArialMT-34" d="M 2069 0 
L 2069 1097 
L 81 1097 
L 81 1613 
L 2172 4581 
L 2631 4581 
L 2631 1613 
L 3250 1613 
L 3250 1097 
L 2631 1097 
L 2631 0 
L 2069 0 
z
M 2069 1613 
L 2069 3678 
L 634 1613 
L 2069 1613 
z
" transform="scale(0.015625)"/>
       </defs>
       <use xlink:href="#ArialMT-2d"/>
       <use xlink:href="#ArialMT-31" x="33.300781"/>
       <use xlink:href="#ArialMT-34" x="88.916016"/>
      </g>
     </g>
    </g>
    <g id="xtick_5">
     <g id="line2d_5">
      <g>
       <use xlink:href="#mf55071ee82" x="206.804888" y="192.24" style="stroke: #000000; stroke-width: 0.8"/>
      </g>
     </g>
     <g id="text_5">
      <!-- -12 -->
      <g transform="translate(199.579107 206.397813) scale(0.1 -0.1)">
       <use xlink:href="#ArialMT-2d"/>
       <use xlink:href="#ArialMT-31" x="33.300781"/>
       <use xlink:href="#ArialMT-32" x="88.916016"/>
      </g>
     </g>
    </g>
    <g id="xtick_6">
     <g id="line2d_6">
      <g>
       <use xlink:href="#mf55071ee82" x="240.01072" y="192.24" style="stroke: #000000; stroke-width: 0.8"/>
      </g>
     </g>
     <g id="text_6">
      <!-- -10 -->
      <g transform="translate(232.784939 206.397813) scale(0.1 -0.1)">
       <use xlink:href="#ArialMT-2d"/>
       <use xlink:href="#ArialMT-31" x="33.300781"/>
       <use xlink:href="#ArialMT-30" x="88.916016"/>
      </g>
     </g>
    </g>
    <g id="xtick_7">
     <g id="line2d_7">
      <g>
       <use xlink:href="#mf55071ee82" x="273.216553" y="192.24" style="stroke: #000000; stroke-width: 0.8"/>
      </g>
     </g>
     <g id="text_7">
      <!-- -8 -->
      <g transform="translate(268.77124 206.397813) scale(0.1 -0.1)">
       <use xlink:href="#ArialMT-2d"/>
       <use xlink:href="#ArialMT-38" x="33.300781"/>
      </g>
     </g>
    </g>
    <g id="text_8">
     <!-- score -->
     <g transform="translate(171.067187 219.98375) scale(0.1 -0.1)">
      <defs>
       <path id="DejaVuSans-73" d="M 2834 3397 
L 2834 2853 
Q 2591 2978 2328 3040 
Q 2066 3103 1784 3103 
Q 1356 3103 1142 2972 
Q 928 2841 928 2578 
Q 928 2378 1081 2264 
Q 1234 2150 1697 2047 
L 1894 2003 
Q 2506 1872 2764 1633 
Q 3022 1394 3022 966 
Q 3022 478 2636 193 
Q 2250 -91 1575 -91 
Q 1294 -91 989 -36 
Q 684 19 347 128 
L 347 722 
Q 666 556 975 473 
Q 1284 391 1588 391 
Q 1994 391 2212 530 
Q 2431 669 2431 922 
Q 2431 1156 2273 1281 
Q 2116 1406 1581 1522 
L 1381 1569 
Q 847 1681 609 1914 
Q 372 2147 372 2553 
Q 372 3047 722 3315 
Q 1072 3584 1716 3584 
Q 2034 3584 2315 3537 
Q 2597 3491 2834 3397 
z
" transform="scale(0.015625)"/>
       <path id="DejaVuSans-63" d="M 3122 3366 
L 3122 2828 
Q 2878 2963 2633 3030 
Q 2388 3097 2138 3097 
Q 1578 3097 1268 2742 
Q 959 2388 959 1747 
Q 959 1106 1268 751 
Q 1578 397 2138 397 
Q 2388 397 2633 464 
Q 2878 531 3122 666 
L 3122 134 
Q 2881 22 2623 -34 
Q 2366 -91 2075 -91 
Q 1284 -91 818 406 
Q 353 903 353 1747 
Q 353 2603 823 3093 
Q 1294 3584 2113 3584 
Q 2378 3584 2631 3529 
Q 2884 3475 3122 3366 
z
" transform="scale(0.015625)"/>
       <path id="DejaVuSans-6f" d="M 1959 3097 
Q 1497 3097 1228 2736 
Q 959 2375 959 1747 
Q 959 1119 1226 758 
Q 1494 397 1959 397 
Q 2419 397 2687 759 
Q 2956 1122 2956 1747 
Q 2956 2369 2687 2733 
Q 2419 3097 1959 3097 
z
M 1959 3584 
Q 2709 3584 3137 3096 
Q 3566 2609 3566 1747 
Q 3566 888 3137 398 
Q 2709 -91 1959 -91 
Q 1206 -91 779 398 
Q 353 888 353 1747 
Q 353 2609 779 3096 
Q 1206 3584 1959 3584 
z
" transform="scale(0.015625)"/>
       <path id="DejaVuSans-72" d="M 2631 2963 
Q 2534 3019 2420 3045 
Q 2306 3072 2169 3072 
Q 1681 3072 1420 2755 
Q 1159 2438 1159 1844 
L 1159 0 
L 581 0 
L 581 3500 
L 1159 3500 
L 1159 2956 
Q 1341 3275 1631 3429 
Q 1922 3584 2338 3584 
Q 2397 3584 2469 3576 
Q 2541 3569 2628 3553 
L 2631 2963 
z
" transform="scale(0.015625)"/>
       <path id="DejaVuSans-65" d="M 3597 1894 
L 3597 1613 
L 953 1613 
Q 991 1019 1311 708 
Q 1631 397 2203 397 
Q 2534 397 2845 478 
Q 3156 559 3463 722 
L 3463 178 
Q 3153 47 2828 -22 
Q 2503 -91 2169 -91 
Q 1331 -91 842 396 
Q 353 884 353 1716 
Q 353 2575 817 3079 
Q 1281 3584 2069 3584 
Q 2775 3584 3186 3129 
Q 3597 2675 3597 1894 
z
M 3022 2063 
Q 3016 2534 2758 2815 
Q 2500 3097 2075 3097 
Q 1594 3097 1305 2825 
Q 1016 2553 972 2059 
L 3022 2063 
z
" transform="scale(0.015625)"/>
      </defs>
      <use xlink:href="#DejaVuSans-73"/>
      <use xlink:href="#DejaVuSans-63" x="52.099609"/>
      <use xlink:href="#DejaVuSans-6f" x="107.080078"/>
      <use xlink:href="#DejaVuSans-72" x="168.261719"/>
      <use xlink:href="#DejaVuSans-65" x="207.125"/>
     </g>
    </g>
   </g>
   <g id="matplotlib.axis_2">
    <g id="ytick_1">
     <g id="line2d_8">
      <defs>
       <path id="mbb5de1ab6a" d="M 0 0 
L -3.5 0 
" style="stroke: #000000; stroke-width: 0.8"/>
      </defs>
      <g>
       <use xlink:href="#mbb5de1ab6a" x="45" y="192.24" style="stroke: #000000; stroke-width: 0.8"/>
      </g>
     </g>
     <g id="text_9">
      <!-- 0 -->
      <g transform="translate(32.439062 195.818906) scale(0.1 -0.1)">
       <use xlink:href="#ArialMT-30"/>
      </g>
     </g>
    </g>
    <g id="ytick_2">
     <g id="line2d_9">
      <g>
       <use xlink:href="#mbb5de1ab6a" x="45" y="172.179225" style="stroke: #000000; stroke-width: 0.8"/>
      </g>
     </g>
     <g id="text_10">
      <!-- 1 -->
      <g transform="translate(32.439062 175.758132) scale(0.1 -0.1)">
       <use xlink:href="#ArialMT-31"/>
      </g>
     </g>
    </g>
    <g id="ytick_3">
     <g id="line2d_10">
      <g>
       <use xlink:href="#mbb5de1ab6a" x="45" y="152.118451" style="stroke: #000000; stroke-width: 0.8"/>
      </g>
     </g>
     <g id="text_11">
      <!-- 2 -->
      <g transform="translate(32.439062 155.697357) scale(0.1 -0.1)">
       <use xlink:href="#ArialMT-32"/>
      </g>
     </g>
    </g>
    <g id="ytick_4">
     <g id="line2d_11">
      <g>
       <use xlink:href="#mbb5de1ab6a" x="45" y="132.057676" style="stroke: #000000; stroke-width: 0.8"/>
      </g>
     </g>
     <g id="text_12">
      <!-- 3 -->
      <g transform="translate(32.439062 135.636582) scale(0.1 -0.1)">
       <defs>
        <path id="ArialMT-33" d="M 269 1209 
L 831 1284 
Q 928 806 1161 595 
Q 1394 384 1728 384 
Q 2125 384 2398 659 
Q 2672 934 2672 1341 
Q 2672 1728 2419 1979 
Q 2166 2231 1775 2231 
Q 1616 2231 1378 2169 
L 1441 2663 
Q 1497 2656 1531 2656 
Q 1891 2656 2178 2843 
Q 2466 3031 2466 3422 
Q 2466 3731 2256 3934 
Q 2047 4138 1716 4138 
Q 1388 4138 1169 3931 
Q 950 3725 888 3313 
L 325 3413 
Q 428 3978 793 4289 
Q 1159 4600 1703 4600 
Q 2078 4600 2393 4439 
Q 2709 4278 2876 4000 
Q 3044 3722 3044 3409 
Q 3044 3113 2884 2869 
Q 2725 2625 2413 2481 
Q 2819 2388 3044 2092 
Q 3269 1797 3269 1353 
Q 3269 753 2831 336 
Q 2394 -81 1725 -81 
Q 1122 -81 723 278 
Q 325 638 269 1209 
z
" transform="scale(0.015625)"/>
       </defs>
       <use xlink:href="#ArialMT-33"/>
      </g>
     </g>
    </g>
    <g id="ytick_5">
     <g id="line2d_12">
      <g>
       <use xlink:href="#mbb5de1ab6a" x="45" y="111.996901" style="stroke: #000000; stroke-width: 0.8"/>
      </g>
     </g>
     <g id="text_13">
      <!-- 4 -->
      <g transform="translate(32.439062 115.575807) scale(0.1 -0.1)">
       <use xlink:href="#ArialMT-34"/>
      </g>
     </g>
    </g>
    <g id="ytick_6">
     <g id="line2d_13">
      <g>
       <use xlink:href="#mbb5de1ab6a" x="45" y="91.936126" style="stroke: #000000; stroke-width: 0.8"/>
      </g>
     </g>
     <g id="text_14">
      <!-- 5 -->
      <g transform="translate(32.439062 95.515033) scale(0.1 -0.1)">
       <defs>
        <path id="ArialMT-35" d="M 266 1200 
L 856 1250 
Q 922 819 1161 601 
Q 1400 384 1738 384 
Q 2144 384 2425 690 
Q 2706 997 2706 1503 
Q 2706 1984 2436 2262 
Q 2166 2541 1728 2541 
Q 1456 2541 1237 2417 
Q 1019 2294 894 2097 
L 366 2166 
L 809 4519 
L 3088 4519 
L 3088 3981 
L 1259 3981 
L 1013 2750 
Q 1425 3038 1878 3038 
Q 2478 3038 2890 2622 
Q 3303 2206 3303 1553 
Q 3303 931 2941 478 
Q 2500 -78 1738 -78 
Q 1113 -78 717 272 
Q 322 622 266 1200 
z
" transform="scale(0.015625)"/>
       </defs>
       <use xlink:href="#ArialMT-35"/>
      </g>
     </g>
    </g>
    <g id="ytick_7">
     <g id="line2d_14">
      <g>
       <use xlink:href="#mbb5de1ab6a" x="45" y="71.875352" style="stroke: #000000; stroke-width: 0.8"/>
      </g>
     </g>
     <g id="text_15">
      <!-- 6 -->
      <g transform="translate(32.439062 75.454258) scale(0.1 -0.1)">
       <use xlink:href="#ArialMT-36"/>
      </g>
     </g>
    </g>
    <g id="ytick_8">
     <g id="line2d_15">
      <g>
       <use xlink:href="#mbb5de1ab6a" x="45" y="51.814577" style="stroke: #000000; stroke-width: 0.8"/>
      </g>
     </g>
     <g id="text_16">
      <!-- 7 -->
      <g transform="translate(32.439062 55.393483) scale(0.1 -0.1)">
       <defs>
        <path id="ArialMT-37" d="M 303 3981 
L 303 4522 
L 3269 4522 
L 3269 4084 
Q 2831 3619 2401 2847 
Q 1972 2075 1738 1259 
Q 1569 684 1522 0 
L 944 0 
Q 953 541 1156 1306 
Q 1359 2072 1739 2783 
Q 2119 3494 2547 3981 
L 303 3981 
z
" transform="scale(0.015625)"/>
       </defs>
       <use xlink:href="#ArialMT-37"/>
      </g>
     </g>
    </g>
    <g id="ytick_9">
     <g id="line2d_16">
      <g>
       <use xlink:href="#mbb5de1ab6a" x="45" y="31.753802" style="stroke: #000000; stroke-width: 0.8"/>
      </g>
     </g>
     <g id="text_17">
      <!-- 8 -->
      <g transform="translate(32.439062 35.332709) scale(0.1 -0.1)">
       <use xlink:href="#ArialMT-38"/>
      </g>
     </g>
    </g>
    <g id="text_18">
     <!-- Density -->
     <g transform="translate(26.359375 128.088594) rotate(-90) scale(0.1 -0.1)">
      <defs>
       <path id="DejaVuSans-44" d="M 1259 4147 
L 1259 519 
L 2022 519 
Q 2988 519 3436 956 
Q 3884 1394 3884 2338 
Q 3884 3275 3436 3711 
Q 2988 4147 2022 4147 
L 1259 4147 
z
M 628 4666 
L 1925 4666 
Q 3281 4666 3915 4102 
Q 4550 3538 4550 2338 
Q 4550 1131 3912 565 
Q 3275 0 1925 0 
L 628 0 
L 628 4666 
z
" transform="scale(0.015625)"/>
       <path id="DejaVuSans-6e" d="M 3513 2113 
L 3513 0 
L 2938 0 
L 2938 2094 
Q 2938 2591 2744 2837 
Q 2550 3084 2163 3084 
Q 1697 3084 1428 2787 
Q 1159 2491 1159 1978 
L 1159 0 
L 581 0 
L 581 3500 
L 1159 3500 
L 1159 2956 
Q 1366 3272 1645 3428 
Q 1925 3584 2291 3584 
Q 2894 3584 3203 3211 
Q 3513 2838 3513 2113 
z
" transform="scale(0.015625)"/>
       <path id="DejaVuSans-69" d="M 603 3500 
L 1178 3500 
L 1178 0 
L 603 0 
L 603 3500 
z
M 603 4863 
L 1178 4863 
L 1178 4134 
L 603 4134 
L 603 4863 
z
" transform="scale(0.015625)"/>
       <path id="DejaVuSans-74" d="M 1172 4494 
L 1172 3500 
L 2356 3500 
L 2356 3053 
L 1172 3053 
L 1172 1153 
Q 1172 725 1289 603 
Q 1406 481 1766 481 
L 2356 481 
L 2356 0 
L 1766 0 
Q 1100 0 847 248 
Q 594 497 594 1153 
L 594 3053 
L 172 3053 
L 172 3500 
L 594 3500 
L 594 4494 
L 1172 4494 
z
" transform="scale(0.015625)"/>
       <path id="DejaVuSans-79" d="M 2059 -325 
Q 1816 -950 1584 -1140 
Q 1353 -1331 966 -1331 
L 506 -1331 
L 506 -850 
L 844 -850 
Q 1081 -850 1212 -737 
Q 1344 -625 1503 -206 
L 1606 56 
L 191 3500 
L 800 3500 
L 1894 763 
L 2988 3500 
L 3597 3500 
L 2059 -325 
z
" transform="scale(0.015625)"/>
      </defs>
      <use xlink:href="#DejaVuSans-44"/>
      <use xlink:href="#DejaVuSans-65" x="77.001953"/>
      <use xlink:href="#DejaVuSans-6e" x="138.525391"/>
      <use xlink:href="#DejaVuSans-73" x="201.904297"/>
      <use xlink:href="#DejaVuSans-69" x="254.003906"/>
      <use xlink:href="#DejaVuSans-74" x="281.787109"/>
      <use xlink:href="#DejaVuSans-79" x="320.996094"/>
     </g>
    </g>
   </g>
   <g id="line2d_17">
    <path d="M 248.257068 190.481249 
L 248.475651 187.699275 
L 248.694234 181.760235 
L 248.944043 168.480263 
L 249.256304 138.441991 
L 250.193088 33.93293 
L 250.224314 33.84 
L 250.286766 34.730174 
L 250.442897 42.95259 
L 250.723932 74.296899 
L 251.37968 149.942489 
L 251.629489 158.974343 
L 251.723168 159.481534 
L 251.754394 159.372435 
L 251.879298 157.842991 
L 252.503821 146.671011 
L 252.535047 146.746009 
L 252.659951 147.999703 
L 252.878534 153.540894 
L 254.002675 188.896519 
L 254.314936 191.23923 
L 254.471067 191.7375 
L 254.471067 191.7375 
" clip-path="url(#p9407976b73)" style="fill: none; stroke: #350498; stroke-width: 1.5; stroke-linecap: square"/>
   </g>
   <g id="line2d_18">
    <path d="M 227.122583 192.21508 
L 229.178938 192.060652 
L 230.618387 191.729941 
L 232.057836 191.13962 
L 234.525462 190.051774 
L 235.55364 189.891336 
L 236.993088 189.967655 
L 238.021266 189.973806 
L 238.843808 189.752183 
L 239.460715 189.387483 
L 240.283257 188.611241 
L 241.311434 187.252242 
L 243.573425 184.053696 
L 244.395967 183.264491 
L 245.21851 182.737574 
L 248.303042 181.149561 
L 249.33122 180.149948 
L 250.565033 178.572971 
L 251.593211 176.928267 
L 252.621389 174.912699 
L 255.705922 168.337919 
L 256.117193 167.94333 
L 256.528464 167.805021 
L 256.939735 167.954722 
L 257.351006 168.410603 
L 257.762277 169.175083 
L 258.379184 170.865111 
L 259.201726 173.939769 
L 262.286259 186.635134 
L 263.108801 188.793196 
L 263.931343 190.273786 
L 264.753885 191.201005 
L 265.576427 191.732031 
L 266.604605 192.054139 
L 268.044053 192.203142 
L 268.044053 192.203142 
" clip-path="url(#p9407976b73)" style="fill: none; stroke: #5302a3; stroke-width: 1.5; stroke-linecap: square"/>
   </g>
   <g id="line2d_19">
    <path d="M 204.751613 192.238604 
L 212.247575 192.122881 
L 216.336282 191.871746 
L 218.380635 191.547025 
L 220.424988 191.004728 
L 222.469342 190.230231 
L 224.513695 189.198093 
L 226.898774 187.694402 
L 229.624578 185.992235 
L 231.668932 185.040942 
L 233.713285 184.115901 
L 235.076187 183.273547 
L 237.12054 181.663787 
L 238.824168 180.425979 
L 239.846345 179.951957 
L 240.868522 179.767104 
L 241.890698 179.884351 
L 242.912875 180.268895 
L 244.275777 181.081159 
L 248.364484 183.836856 
L 249.38666 184.225639 
L 250.408837 184.387228 
L 251.431014 184.323997 
L 253.134641 183.915946 
L 254.497544 183.664545 
L 255.51972 183.722382 
L 256.541897 184.06388 
L 257.564074 184.673481 
L 258.926976 185.776724 
L 263.356408 189.64829 
L 265.060036 190.775231 
L 266.422938 191.42393 
L 267.78584 191.841928 
L 269.489468 192.107879 
L 271.874547 192.221303 
L 272.555998 192.230241 
L 272.555998 192.230241 
" clip-path="url(#p9407976b73)" style="fill: none; stroke: #6f00a8; stroke-width: 1.5; stroke-linecap: square"/>
   </g>
   <g id="line2d_20">
    <path d="M 192.784972 192.239498 
L 200.694601 192.135453 
L 205.044896 191.866997 
L 207.417785 191.511581 
L 209.395192 190.994301 
L 212.559043 189.868628 
L 215.327413 188.691613 
L 217.700301 187.387787 
L 221.655116 185.123428 
L 223.632523 184.334149 
L 226.400892 183.264769 
L 230.355707 181.422543 
L 231.542151 181.289086 
L 232.728595 181.439292 
L 234.706002 182.039202 
L 237.474372 182.857526 
L 242.220149 184.076276 
L 244.197556 184.934688 
L 250.525259 188.016136 
L 252.107184 188.478782 
L 254.480073 188.871916 
L 256.45748 189.248209 
L 258.830368 189.96184 
L 262.785182 191.147949 
L 265.553552 191.823307 
L 267.530959 192.102339 
L 270.299329 192.22556 
L 271.485773 192.235788 
L 271.485773 192.235788 
" clip-path="url(#p9407976b73)" style="fill: none; stroke: #8b0aa5; stroke-width: 1.5; stroke-linecap: square"/>
   </g>
   <g id="line2d_21">
    <path d="M 172.659147 192.239867 
L 187.536826 192.135936 
L 191.787591 191.90116 
L 194.975665 191.548924 
L 197.101048 191.129741 
L 201.883159 190.060158 
L 204.539888 189.541025 
L 206.133925 188.958445 
L 207.727962 188.131459 
L 211.978727 185.681025 
L 213.572764 185.058653 
L 216.229492 184.34687 
L 219.417566 183.419349 
L 221.542949 182.838156 
L 223.136986 182.688208 
L 224.731023 182.832003 
L 227.919097 183.229523 
L 230.04448 183.485218 
L 231.638517 183.908344 
L 237.483319 186.024886 
L 245.98485 189.110385 
L 248.641578 189.751466 
L 252.892344 190.53829 
L 264.050603 191.841372 
L 267.770023 192.114401 
L 273.083479 192.227435 
L 278.396936 192.239859 
L 278.396936 192.239859 
" clip-path="url(#p9407976b73)" style="fill: none; stroke: #a31e9a; stroke-width: 1.5; stroke-linecap: square"/>
   </g>
   <g id="line2d_22">
    <path d="M 163.72187 192.239941 
L 174.559059 192.131627 
L 178.551708 191.888443 
L 185.966627 191.169458 
L 188.818519 190.617276 
L 192.240789 189.639505 
L 195.092681 188.642258 
L 198.514951 187.183879 
L 201.366843 185.96587 
L 203.648356 185.310035 
L 207.070627 184.339591 
L 208.781762 183.922393 
L 211.063275 183.659089 
L 215.626302 183.423051 
L 217.337437 183.505843 
L 219.618951 183.879498 
L 223.041221 184.663288 
L 224.752356 185.297888 
L 228.174626 186.719717 
L 232.737653 188.140119 
L 236.159923 188.997251 
L 240.72295 190.0458 
L 247.567491 191.068653 
L 252.700896 191.571883 
L 262.967707 192.08554 
L 269.241869 192.22067 
L 277.227166 192.239953 
L 277.227166 192.239953 
" clip-path="url(#p9407976b73)" style="fill: none; stroke: #b83289; stroke-width: 1.5; stroke-linecap: square"/>
   </g>
   <g id="line2d_23">
    <path d="M 141.598656 192.239951 
L 163.476588 192.131016 
L 170.313442 191.860586 
L 173.731869 191.478077 
L 177.833981 190.867079 
L 181.936093 189.922713 
L 186.038205 188.755299 
L 188.772947 187.776614 
L 191.507688 186.745638 
L 194.24243 185.999434 
L 201.079283 184.366104 
L 203.814025 183.994538 
L 206.548766 183.879495 
L 208.599822 183.976295 
L 212.018249 184.457834 
L 215.436676 185.134845 
L 218.855103 185.969216 
L 224.324586 187.738186 
L 227.059327 188.666536 
L 232.52881 189.981551 
L 235.263552 190.43649 
L 242.784091 191.340577 
L 248.937259 191.813144 
L 257.141483 192.082814 
L 268.080449 192.22907 
L 277.652044 192.239981 
L 277.652044 192.239981 
" clip-path="url(#p9407976b73)" style="fill: none; stroke: #cc4778; stroke-width: 1.5; stroke-linecap: square"/>
   </g>
   <g id="line2d_24">
    <path d="M 113.944867 192.239992 
L 154.141343 192.127844 
L 159.883697 191.869846 
L 166.446387 191.290094 
L 169.727732 190.785893 
L 174.649749 189.810091 
L 177.931094 188.990684 
L 185.31412 187.010395 
L 193.517483 185.222611 
L 198.4395 184.754077 
L 200.080172 184.647542 
L 204.181854 184.838681 
L 206.642862 184.980859 
L 209.103871 185.429089 
L 224.69026 189.189456 
L 227.971605 189.965024 
L 233.713958 190.938367 
L 243.557993 191.754424 
L 249.300347 192.020458 
L 260.785054 192.194088 
L 277.191779 192.239991 
L 277.191779 192.239991 
" clip-path="url(#p9407976b73)" style="fill: none; stroke: #db5c68; stroke-width: 1.5; stroke-linecap: square"/>
   </g>
   <g id="line2d_25">
    <path d="M 114.116532 192.239995 
L 143.381801 192.142526 
L 150.907156 191.88384 
L 155.924059 191.49046 
L 160.940962 190.875245 
L 165.957865 190.111503 
L 170.138618 189.194835 
L 175.991671 188.020926 
L 181.008575 187.021932 
L 186.861628 186.111514 
L 193.550833 185.53694 
L 199.403886 185.532222 
L 201.076187 185.659031 
L 209.437693 186.867302 
L 229.505305 190.714942 
L 234.522208 191.310981 
L 244.556015 191.928044 
L 251.245219 192.112752 
L 262.951326 192.222567 
L 280.510487 192.239993 
L 280.510487 192.239993 
" clip-path="url(#p9407976b73)" style="fill: none; stroke: #e97158; stroke-width: 1.5; stroke-linecap: square"/>
   </g>
   <g id="line2d_26">
    <path d="M 103.919547 192.239997 
L 134.398424 192.13635 
L 141.787242 191.908167 
L 149.176061 191.391618 
L 154.717675 190.745052 
L 161.182891 189.76369 
L 169.495312 188.311621 
L 173.189721 187.684548 
L 182.425745 186.610752 
L 187.967358 186.346431 
L 193.508972 186.2908 
L 201.821393 186.767574 
L 211.057417 188.09452 
L 221.217042 189.784394 
L 229.529463 190.966659 
L 235.071077 191.48988 
L 243.383498 191.918204 
L 251.695919 192.132472 
L 265.549954 192.231612 
L 287.716409 192.239997 
L 287.716409 192.239997 
" clip-path="url(#p9407976b73)" style="fill: none; stroke: #f48849; stroke-width: 1.5; stroke-linecap: square"/>
   </g>
   <g id="line2d_27">
    <path d="M 89.689812 192.239998 
L 125.394579 192.135054 
L 133.555669 191.923049 
L 140.696622 191.512535 
L 147.837575 190.826803 
L 153.958393 190.037548 
L 172.320844 187.560765 
L 178.441662 187.090645 
L 183.542343 186.885111 
L 188.643024 186.859836 
L 194.763841 187.041597 
L 205.985339 187.992562 
L 217.206837 189.533681 
L 230.468608 191.165189 
L 236.589425 191.622576 
L 243.730379 191.940428 
L 252.911604 192.145975 
L 269.233784 192.233908 
L 292.696916 192.239998 
L 292.696916 192.239998 
" clip-path="url(#p9407976b73)" style="fill: none; stroke: #fba238; stroke-width: 1.5; stroke-linecap: square"/>
   </g>
   <g id="line2d_28">
    <path d="M 69.296222 192.239999 
L 117.269382 192.130487 
L 127.800076 191.838973 
L 134.820539 191.440994 
L 141.841001 190.850172 
L 157.052003 189.09591 
L 165.242543 188.215557 
L 171.092928 187.752785 
L 178.113391 187.422969 
L 185.133853 187.303605 
L 190.984239 187.452761 
L 196.834624 187.738275 
L 201.514933 188.015363 
L 219.066089 189.997872 
L 227.256628 190.925424 
L 235.447168 191.549134 
L 243.637708 191.920271 
L 254.168401 192.146249 
L 274.059712 192.233559 
L 302.141562 192.239998 
L 302.141562 192.239998 
" clip-path="url(#p9407976b73)" style="fill: none; stroke: #febd2a; stroke-width: 1.5; stroke-linecap: square"/>
   </g>
   <g id="line2d_29">
    <path d="M 57.681818 192.239999 
L 108.664002 192.134017 
L 118.860439 191.905314 
L 126.507766 191.563141 
L 134.155094 191.049897 
L 141.802421 190.368619 
L 158.371631 188.843355 
L 169.842622 188.10615 
L 177.48995 187.843495 
L 186.411832 187.771882 
L 195.333714 188.054419 
L 202.981042 188.508059 
L 214.452033 189.605665 
L 231.021243 191.192208 
L 238.66857 191.663376 
L 247.590452 191.981846 
L 259.061444 192.162522 
L 279.454317 192.232868 
L 311.318182 192.239999 
L 311.318182 192.239999 
" clip-path="url(#p9407976b73)" style="fill: none; stroke: #fada24; stroke-width: 1.5; stroke-linecap: square"/>
   </g>
   <g id="line2d_30">
    <path d="M 224.996006 192.24 
L 224.996006 25.92 
" clip-path="url(#p9407976b73)" style="fill: none; stroke: #808080; stroke-width: 1.5; stroke-linecap: square"/>
   </g>
   <g id="patch_3">
    <path d="M 45 192.24 
L 45 25.92 
" style="fill: none; stroke: #000000; stroke-width: 0.8; stroke-linejoin: miter; stroke-linecap: square"/>
   </g>
   <g id="patch_4">
    <path d="M 324 192.24 
L 324 25.92 
" style="fill: none; stroke: #000000; stroke-width: 0.8; stroke-linejoin: miter; stroke-linecap: square"/>
   </g>
   <g id="patch_5">
    <path d="M 45 192.24 
L 324 192.24 
" style="fill: none; stroke: #000000; stroke-width: 0.8; stroke-linejoin: miter; stroke-linecap: square"/>
   </g>
   <g id="patch_6">
    <path d="M 45 25.92 
L 324 25.92 
" style="fill: none; stroke: #000000; stroke-width: 0.8; stroke-linejoin: miter; stroke-linecap: square"/>
   </g>
   <g id="legend_1">
    <g id="patch_7">
     <path d="M 355.975 224.735625 
L 400.7 224.735625 
Q 402.7 224.735625 402.7 222.735625 
L 402.7 32.92 
Q 402.7 30.92 400.7 30.92 
L 355.975 30.92 
Q 353.975 30.92 353.975 32.92 
L 353.975 222.735625 
Q 353.975 224.735625 355.975 224.735625 
z
" style="fill: #ffffff; opacity: 0.8; stroke: #cccccc; stroke-linejoin: miter"/>
    </g>
    <g id="line2d_31">
     <path d="M 357.975 39.018437 
L 361 39.018437 
" style="fill: none; stroke: #350498; stroke-width: 1.5; stroke-linecap: square"/>
    </g>
    <g id="text_19">
     <!-- 10 -->
     <g transform="translate(385.975 42.518437) scale(0.1 -0.1)">
      <defs>
       <path id="DejaVuSans-31" d="M 794 531 
L 1825 531 
L 1825 4091 
L 703 3866 
L 703 4441 
L 1819 4666 
L 2450 4666 
L 2450 531 
L 3481 531 
L 3481 0 
L 794 0 
L 794 531 
z
" transform="scale(0.015625)"/>
       <path id="DejaVuSans-30" d="M 2034 4250 
Q 1547 4250 1301 3770 
Q 1056 3291 1056 2328 
Q 1056 1369 1301 889 
Q 1547 409 2034 409 
Q 2525 409 2770 889 
Q 3016 1369 3016 2328 
Q 3016 3291 2770 3770 
Q 2525 4250 2034 4250 
z
M 2034 4750 
Q 2819 4750 3233 4129 
Q 3647 3509 3647 2328 
Q 3647 1150 3233 529 
Q 2819 -91 2034 -91 
Q 1250 -91 836 529 
Q 422 1150 422 2328 
Q 422 3509 836 4129 
Q 1250 4750 2034 4750 
z
" transform="scale(0.015625)"/>
      </defs>
      <use xlink:href="#DejaVuSans-31"/>
      <use xlink:href="#DejaVuSans-30" x="63.623047"/>
     </g>
    </g>
    <g id="line2d_32">
     <path d="M 357.975 53.696562 
L 361 53.696562 
" style="fill: none; stroke: #5302a3; stroke-width: 1.5; stroke-linecap: square"/>
    </g>
    <g id="text_20">
     <!-- 11 -->
     <g transform="translate(385.975 57.196562) scale(0.1 -0.1)">
      <use xlink:href="#DejaVuSans-31"/>
      <use xlink:href="#DejaVuSans-31" x="63.623047"/>
     </g>
    </g>
    <g id="line2d_33">
     <path d="M 357.975 68.374687 
L 361 68.374687 
" style="fill: none; stroke: #6f00a8; stroke-width: 1.5; stroke-linecap: square"/>
    </g>
    <g id="text_21">
     <!-- 12 -->
     <g transform="translate(385.975 71.874687) scale(0.1 -0.1)">
      <defs>
       <path id="DejaVuSans-32" d="M 1228 531 
L 3431 531 
L 3431 0 
L 469 0 
L 469 531 
Q 828 903 1448 1529 
Q 2069 2156 2228 2338 
Q 2531 2678 2651 2914 
Q 2772 3150 2772 3378 
Q 2772 3750 2511 3984 
Q 2250 4219 1831 4219 
Q 1534 4219 1204 4116 
Q 875 4013 500 3803 
L 500 4441 
Q 881 4594 1212 4672 
Q 1544 4750 1819 4750 
Q 2544 4750 2975 4387 
Q 3406 4025 3406 3419 
Q 3406 3131 3298 2873 
Q 3191 2616 2906 2266 
Q 2828 2175 2409 1742 
Q 1991 1309 1228 531 
z
" transform="scale(0.015625)"/>
      </defs>
      <use xlink:href="#DejaVuSans-31"/>
      <use xlink:href="#DejaVuSans-32" x="63.623047"/>
     </g>
    </g>
    <g id="line2d_34">
     <path d="M 357.975 83.052812 
L 361 83.052812 
" style="fill: none; stroke: #8b0aa5; stroke-width: 1.5; stroke-linecap: square"/>
    </g>
    <g id="text_22">
     <!-- 13 -->
     <g transform="translate(385.975 86.552812) scale(0.1 -0.1)">
      <defs>
       <path id="DejaVuSans-33" d="M 2597 2516 
Q 3050 2419 3304 2112 
Q 3559 1806 3559 1356 
Q 3559 666 3084 287 
Q 2609 -91 1734 -91 
Q 1441 -91 1130 -33 
Q 819 25 488 141 
L 488 750 
Q 750 597 1062 519 
Q 1375 441 1716 441 
Q 2309 441 2620 675 
Q 2931 909 2931 1356 
Q 2931 1769 2642 2001 
Q 2353 2234 1838 2234 
L 1294 2234 
L 1294 2753 
L 1863 2753 
Q 2328 2753 2575 2939 
Q 2822 3125 2822 3475 
Q 2822 3834 2567 4026 
Q 2313 4219 1838 4219 
Q 1578 4219 1281 4162 
Q 984 4106 628 3988 
L 628 4550 
Q 988 4650 1302 4700 
Q 1616 4750 1894 4750 
Q 2613 4750 3031 4423 
Q 3450 4097 3450 3541 
Q 3450 3153 3228 2886 
Q 3006 2619 2597 2516 
z
" transform="scale(0.015625)"/>
      </defs>
      <use xlink:href="#DejaVuSans-31"/>
      <use xlink:href="#DejaVuSans-33" x="63.623047"/>
     </g>
    </g>
    <g id="line2d_35">
     <path d="M 357.975 97.730937 
L 361 97.730937 
" style="fill: none; stroke: #a31e9a; stroke-width: 1.5; stroke-linecap: square"/>
    </g>
    <g id="text_23">
     <!-- 14 -->
     <g transform="translate(385.975 101.230937) scale(0.1 -0.1)">
      <defs>
       <path id="DejaVuSans-34" d="M 2419 4116 
L 825 1625 
L 2419 1625 
L 2419 4116 
z
M 2253 4666 
L 3047 4666 
L 3047 1625 
L 3713 1625 
L 3713 1100 
L 3047 1100 
L 3047 0 
L 2419 0 
L 2419 1100 
L 313 1100 
L 313 1709 
L 2253 4666 
z
" transform="scale(0.015625)"/>
      </defs>
      <use xlink:href="#DejaVuSans-31"/>
      <use xlink:href="#DejaVuSans-34" x="63.623047"/>
     </g>
    </g>
    <g id="line2d_36">
     <path d="M 357.975 112.409062 
L 361 112.409062 
" style="fill: none; stroke: #b83289; stroke-width: 1.5; stroke-linecap: square"/>
    </g>
    <g id="text_24">
     <!-- 15 -->
     <g transform="translate(385.975 115.909062) scale(0.1 -0.1)">
      <defs>
       <path id="DejaVuSans-35" d="M 691 4666 
L 3169 4666 
L 3169 4134 
L 1269 4134 
L 1269 2991 
Q 1406 3038 1543 3061 
Q 1681 3084 1819 3084 
Q 2600 3084 3056 2656 
Q 3513 2228 3513 1497 
Q 3513 744 3044 326 
Q 2575 -91 1722 -91 
Q 1428 -91 1123 -41 
Q 819 9 494 109 
L 494 744 
Q 775 591 1075 516 
Q 1375 441 1709 441 
Q 2250 441 2565 725 
Q 2881 1009 2881 1497 
Q 2881 1984 2565 2268 
Q 2250 2553 1709 2553 
Q 1456 2553 1204 2497 
Q 953 2441 691 2322 
L 691 4666 
z
" transform="scale(0.015625)"/>
      </defs>
      <use xlink:href="#DejaVuSans-31"/>
      <use xlink:href="#DejaVuSans-35" x="63.623047"/>
     </g>
    </g>
    <g id="line2d_37">
     <path d="M 357.975 127.087187 
L 361 127.087187 
" style="fill: none; stroke: #cc4778; stroke-width: 1.5; stroke-linecap: square"/>
    </g>
    <g id="text_25">
     <!-- 16 -->
     <g transform="translate(385.975 130.587187) scale(0.1 -0.1)">
      <defs>
       <path id="DejaVuSans-36" d="M 2113 2584 
Q 1688 2584 1439 2293 
Q 1191 2003 1191 1497 
Q 1191 994 1439 701 
Q 1688 409 2113 409 
Q 2538 409 2786 701 
Q 3034 994 3034 1497 
Q 3034 2003 2786 2293 
Q 2538 2584 2113 2584 
z
M 3366 4563 
L 3366 3988 
Q 3128 4100 2886 4159 
Q 2644 4219 2406 4219 
Q 1781 4219 1451 3797 
Q 1122 3375 1075 2522 
Q 1259 2794 1537 2939 
Q 1816 3084 2150 3084 
Q 2853 3084 3261 2657 
Q 3669 2231 3669 1497 
Q 3669 778 3244 343 
Q 2819 -91 2113 -91 
Q 1303 -91 875 529 
Q 447 1150 447 2328 
Q 447 3434 972 4092 
Q 1497 4750 2381 4750 
Q 2619 4750 2861 4703 
Q 3103 4656 3366 4563 
z
" transform="scale(0.015625)"/>
      </defs>
      <use xlink:href="#DejaVuSans-31"/>
      <use xlink:href="#DejaVuSans-36" x="63.623047"/>
     </g>
    </g>
    <g id="line2d_38">
     <path d="M 357.975 141.765312 
L 361 141.765312 
" style="fill: none; stroke: #db5c68; stroke-width: 1.5; stroke-linecap: square"/>
    </g>
    <g id="text_26">
     <!-- 17 -->
     <g transform="translate(385.975 145.265312) scale(0.1 -0.1)">
      <defs>
       <path id="DejaVuSans-37" d="M 525 4666 
L 3525 4666 
L 3525 4397 
L 1831 0 
L 1172 0 
L 2766 4134 
L 525 4134 
L 525 4666 
z
" transform="scale(0.015625)"/>
      </defs>
      <use xlink:href="#DejaVuSans-31"/>
      <use xlink:href="#DejaVuSans-37" x="63.623047"/>
     </g>
    </g>
    <g id="line2d_39">
     <path d="M 357.975 156.443437 
L 361 156.443437 
" style="fill: none; stroke: #e97158; stroke-width: 1.5; stroke-linecap: square"/>
    </g>
    <g id="text_27">
     <!-- 18 -->
     <g transform="translate(385.975 159.943437) scale(0.1 -0.1)">
      <defs>
       <path id="DejaVuSans-38" d="M 2034 2216 
Q 1584 2216 1326 1975 
Q 1069 1734 1069 1313 
Q 1069 891 1326 650 
Q 1584 409 2034 409 
Q 2484 409 2743 651 
Q 3003 894 3003 1313 
Q 3003 1734 2745 1975 
Q 2488 2216 2034 2216 
z
M 1403 2484 
Q 997 2584 770 2862 
Q 544 3141 544 3541 
Q 544 4100 942 4425 
Q 1341 4750 2034 4750 
Q 2731 4750 3128 4425 
Q 3525 4100 3525 3541 
Q 3525 3141 3298 2862 
Q 3072 2584 2669 2484 
Q 3125 2378 3379 2068 
Q 3634 1759 3634 1313 
Q 3634 634 3220 271 
Q 2806 -91 2034 -91 
Q 1263 -91 848 271 
Q 434 634 434 1313 
Q 434 1759 690 2068 
Q 947 2378 1403 2484 
z
M 1172 3481 
Q 1172 3119 1398 2916 
Q 1625 2713 2034 2713 
Q 2441 2713 2670 2916 
Q 2900 3119 2900 3481 
Q 2900 3844 2670 4047 
Q 2441 4250 2034 4250 
Q 1625 4250 1398 4047 
Q 1172 3844 1172 3481 
z
" transform="scale(0.015625)"/>
      </defs>
      <use xlink:href="#DejaVuSans-31"/>
      <use xlink:href="#DejaVuSans-38" x="63.623047"/>
     </g>
    </g>
    <g id="line2d_40">
     <path d="M 357.975 171.121562 
L 361 171.121562 
" style="fill: none; stroke: #f48849; stroke-width: 1.5; stroke-linecap: square"/>
    </g>
    <g id="text_28">
     <!-- 19 -->
     <g transform="translate(385.975 174.621562) scale(0.1 -0.1)">
      <defs>
       <path id="DejaVuSans-39" d="M 703 97 
L 703 672 
Q 941 559 1184 500 
Q 1428 441 1663 441 
Q 2288 441 2617 861 
Q 2947 1281 2994 2138 
Q 2813 1869 2534 1725 
Q 2256 1581 1919 1581 
Q 1219 1581 811 2004 
Q 403 2428 403 3163 
Q 403 3881 828 4315 
Q 1253 4750 1959 4750 
Q 2769 4750 3195 4129 
Q 3622 3509 3622 2328 
Q 3622 1225 3098 567 
Q 2575 -91 1691 -91 
Q 1453 -91 1209 -44 
Q 966 3 703 97 
z
M 1959 2075 
Q 2384 2075 2632 2365 
Q 2881 2656 2881 3163 
Q 2881 3666 2632 3958 
Q 2384 4250 1959 4250 
Q 1534 4250 1286 3958 
Q 1038 3666 1038 3163 
Q 1038 2656 1286 2365 
Q 1534 2075 1959 2075 
z
" transform="scale(0.015625)"/>
      </defs>
      <use xlink:href="#DejaVuSans-31"/>
      <use xlink:href="#DejaVuSans-39" x="63.623047"/>
     </g>
    </g>
    <g id="line2d_41">
     <path d="M 357.975 185.799687 
L 361 185.799687 
" style="fill: none; stroke: #fba238; stroke-width: 1.5; stroke-linecap: square"/>
    </g>
    <g id="text_29">
     <!-- 20 -->
     <g transform="translate(385.975 189.299687) scale(0.1 -0.1)">
      <use xlink:href="#DejaVuSans-32"/>
      <use xlink:href="#DejaVuSans-30" x="63.623047"/>
     </g>
    </g>
    <g id="line2d_42">
     <path d="M 357.975 200.477812 
L 361 200.477812 
" style="fill: none; stroke: #febd2a; stroke-width: 1.5; stroke-linecap: square"/>
    </g>
    <g id="text_30">
     <!-- 21 -->
     <g transform="translate(385.975 203.977812) scale(0.1 -0.1)">
      <use xlink:href="#DejaVuSans-32"/>
      <use xlink:href="#DejaVuSans-31" x="63.623047"/>
     </g>
    </g>
    <g id="line2d_43">
     <path d="M 357.975 215.155937 
L 361 215.155937 
" style="fill: none; stroke: #fada24; stroke-width: 1.5; stroke-linecap: square"/>
    </g>
    <g id="text_31">
     <!-- 22 -->
     <g transform="translate(385.975 218.655937) scale(0.1 -0.1)">
      <use xlink:href="#DejaVuSans-32"/>
      <use xlink:href="#DejaVuSans-32" x="63.623047"/>
     </g>
    </g>
   </g>
  </g>
 </g>
 <defs>
  <clipPath id="p9407976b73">
   <rect x="45" y="25.92" width="279" height="166.32"/>
  </clipPath>
 </defs>
</svg>
