<?xml version="1.0" encoding="utf-8" standalone="no"?>
<!DOCTYPE svg PUBLIC "-//W3C//DTD SVG 1.1//EN"
  "http://www.w3.org/Graphics/SVG/1.1/DTD/svg11.dtd">
<svg xmlns:xlink="http://www.w3.org/1999/xlink" width="648pt" height="216pt" viewBox="0 0 648 216" xmlns="http://www.w3.org/2000/svg" version="1.1">
 <metadata>
  <rdf:RDF xmlns:dc="http://purl.org/dc/elements/1.1/" xmlns:cc="http://creativecommons.org/ns#" xmlns:rdf="http://www.w3.org/1999/02/22-rdf-syntax-ns#">
   <cc:Work>
    <dc:type rdf:resource="http://purl.org/dc/dcmitype/StillImage"/>
    <dc:date>2023-10-03T21:29:39.851600</dc:date>
    <dc:format>image/svg+xml</dc:format>
    <dc:creator>
     <cc:Agent>
      <dc:title>Matplotlib v3.6.2, https://matplotlib.org/</dc:title>
     </cc:Agent>
    </dc:creator>
   </cc:Work>
  </rdf:RDF>
 </metadata>
 <defs>
  <style type="text/css">*{stroke-linejoin: round; stroke-linecap: butt}</style>
 </defs>
 <g id="figure_1">
  <g id="patch_1">
   <path d="M 0 216 
L 648 216 
L 648 0 
L 0 0 
z
" style="fill: #ffffff"/>
  </g>
  <g id="axes_1">
   <g id="patch_2">
    <path d="M 12.96 158.58 
L 211.68 158.58 
L 211.68 21.6 
L 12.96 21.6 
L 12.96 158.58 
z
" style="fill: none"/>
   </g>
   <g id="matplotlib.axis_1">
    <g id="xtick_1">
     <g id="text_1">
      <!-- −15 -->
      <g style="fill: #262626" transform="translate(15.525937 179.890391) scale(0.165 -0.165)">
       <defs>
        <path id="ArialMT-2212" d="M 3381 1997 
L 356 1997 
L 356 2522 
L 3381 2522 
L 3381 1997 
z
" transform="scale(0.015625)"/>
        <path id="ArialMT-31" d="M 2384 0 
L 1822 0 
L 1822 3584 
Q 1619 3391 1289 3197 
Q 959 3003 697 2906 
L 697 3450 
Q 1169 3672 1522 3987 
Q 1875 4303 2022 4600 
L 2384 4600 
L 2384 0 
z
" transform="scale(0.015625)"/>
        <path id="ArialMT-35" d="M 266 1200 
L 856 1250 
Q 922 819 1161 601 
Q 1400 384 1738 384 
Q 2144 384 2425 690 
Q 2706 997 2706 1503 
Q 2706 1984 2436 2262 
Q 2166 2541 1728 2541 
Q 1456 2541 1237 2417 
Q 1019 2294 894 2097 
L 366 2166 
L 809 4519 
L 3088 4519 
L 3088 3981 
L 1259 3981 
L 1013 2750 
Q 1425 3038 1878 3038 
Q 2478 3038 2890 2622 
Q 3303 2206 3303 1553 
Q 3303 931 2941 478 
Q 2500 -78 1738 -78 
Q 1113 -78 717 272 
Q 322 622 266 1200 
z
" transform="scale(0.015625)"/>
       </defs>
       <use xlink:href="#ArialMT-2212"/>
       <use xlink:href="#ArialMT-31" x="58.398438"/>
       <use xlink:href="#ArialMT-35" x="114.013672"/>
      </g>
     </g>
    </g>
    <g id="xtick_2">
     <g id="text_2">
      <!-- −10 -->
      <g style="fill: #262626" transform="translate(98.325937 179.890391) scale(0.165 -0.165)">
       <defs>
        <path id="ArialMT-30" d="M 266 2259 
Q 266 3072 433 3567 
Q 600 4063 929 4331 
Q 1259 4600 1759 4600 
Q 2128 4600 2406 4451 
Q 2684 4303 2865 4023 
Q 3047 3744 3150 3342 
Q 3253 2941 3253 2259 
Q 3253 1453 3087 958 
Q 2922 463 2592 192 
Q 2263 -78 1759 -78 
Q 1097 -78 719 397 
Q 266 969 266 2259 
z
M 844 2259 
Q 844 1131 1108 757 
Q 1372 384 1759 384 
Q 2147 384 2411 759 
Q 2675 1134 2675 2259 
Q 2675 3391 2411 3762 
Q 2147 4134 1753 4134 
Q 1366 4134 1134 3806 
Q 844 3388 844 2259 
z
" transform="scale(0.015625)"/>
       </defs>
       <use xlink:href="#ArialMT-2212"/>
       <use xlink:href="#ArialMT-31" x="58.398438"/>
       <use xlink:href="#ArialMT-30" x="114.013672"/>
      </g>
     </g>
    </g>
    <g id="xtick_3">
     <g id="text_3">
      <!-- −5 -->
      <g style="fill: #262626" transform="translate(185.713711 179.890391) scale(0.165 -0.165)">
       <use xlink:href="#ArialMT-2212"/>
       <use xlink:href="#ArialMT-35" x="58.398438"/>
      </g>
     </g>
    </g>
   </g>
   <g id="matplotlib.axis_2"/>
   <g id="PolyCollection_1">
    <defs>
     <path id="m0a557434eb" d="M 25.68131 -57.420551 
L 25.68131 -57.42 
L 26.050415 -57.42 
L 26.419519 -57.42 
L 26.788624 -57.42 
L 27.157728 -57.42 
L 27.526833 -57.42 
L 27.895937 -57.42 
L 28.265042 -57.42 
L 28.634147 -57.42 
L 29.003251 -57.42 
L 29.372356 -57.42 
L 29.74146 -57.42 
L 30.110565 -57.42 
L 30.479669 -57.42 
L 30.848774 -57.42 
L 31.217878 -57.42 
L 31.586983 -57.42 
L 31.956088 -57.42 
L 32.325192 -57.42 
L 32.694297 -57.42 
L 33.063401 -57.42 
L 33.432506 -57.42 
L 33.80161 -57.42 
L 34.170715 -57.42 
L 34.539819 -57.42 
L 34.908924 -57.42 
L 35.278029 -57.42 
L 35.647133 -57.42 
L 36.016238 -57.42 
L 36.385342 -57.42 
L 36.754447 -57.42 
L 37.123551 -57.42 
L 37.492656 -57.42 
L 37.86176 -57.42 
L 38.230865 -57.42 
L 38.59997 -57.42 
L 38.969074 -57.42 
L 39.338179 -57.42 
L 39.707283 -57.42 
L 40.076388 -57.42 
L 40.445492 -57.42 
L 40.814597 -57.42 
L 41.183701 -57.42 
L 41.552806 -57.42 
L 41.921911 -57.42 
L 42.291015 -57.42 
L 42.66012 -57.42 
L 43.029224 -57.42 
L 43.398329 -57.42 
L 43.767433 -57.42 
L 44.136538 -57.42 
L 44.505642 -57.42 
L 44.874747 -57.42 
L 45.243852 -57.42 
L 45.612956 -57.42 
L 45.982061 -57.42 
L 46.351165 -57.42 
L 46.72027 -57.42 
L 47.089374 -57.42 
L 47.458479 -57.42 
L 47.827583 -57.42 
L 48.196688 -57.42 
L 48.565793 -57.42 
L 48.934897 -57.42 
L 49.304002 -57.42 
L 49.673106 -57.42 
L 50.042211 -57.42 
L 50.411315 -57.42 
L 50.78042 -57.42 
L 51.149524 -57.42 
L 51.518629 -57.42 
L 51.887734 -57.42 
L 52.256838 -57.42 
L 52.625943 -57.42 
L 52.995047 -57.42 
L 53.364152 -57.42 
L 53.733256 -57.42 
L 54.102361 -57.42 
L 54.471465 -57.42 
L 54.84057 -57.42 
L 55.209675 -57.42 
L 55.578779 -57.42 
L 55.947884 -57.42 
L 56.316988 -57.42 
L 56.686093 -57.42 
L 57.055197 -57.42 
L 57.424302 -57.42 
L 57.793406 -57.42 
L 58.162511 -57.42 
L 58.531616 -57.42 
L 58.90072 -57.42 
L 59.269825 -57.42 
L 59.638929 -57.42 
L 60.008034 -57.42 
L 60.377138 -57.42 
L 60.746243 -57.42 
L 61.115347 -57.42 
L 61.484452 -57.42 
L 61.853557 -57.42 
L 62.222661 -57.42 
L 62.591766 -57.42 
L 62.96087 -57.42 
L 63.329975 -57.42 
L 63.699079 -57.42 
L 64.068184 -57.42 
L 64.437288 -57.42 
L 64.806393 -57.42 
L 65.175498 -57.42 
L 65.544602 -57.42 
L 65.913707 -57.42 
L 66.282811 -57.42 
L 66.651916 -57.42 
L 67.02102 -57.42 
L 67.390125 -57.42 
L 67.759229 -57.42 
L 68.128334 -57.42 
L 68.497439 -57.42 
L 68.866543 -57.42 
L 69.235648 -57.42 
L 69.604752 -57.42 
L 69.973857 -57.42 
L 70.342961 -57.42 
L 70.712066 -57.42 
L 71.08117 -57.42 
L 71.450275 -57.42 
L 71.81938 -57.42 
L 72.188484 -57.42 
L 72.557589 -57.42 
L 72.926693 -57.42 
L 73.295798 -57.42 
L 73.664902 -57.42 
L 74.034007 -57.42 
L 74.403111 -57.42 
L 74.772216 -57.42 
L 75.141321 -57.42 
L 75.510425 -57.42 
L 75.87953 -57.42 
L 76.248634 -57.42 
L 76.617739 -57.42 
L 76.986843 -57.42 
L 77.355948 -57.42 
L 77.725052 -57.42 
L 78.094157 -57.42 
L 78.463262 -57.42 
L 78.832366 -57.42 
L 79.201471 -57.42 
L 79.570575 -57.42 
L 79.93968 -57.42 
L 80.308784 -57.42 
L 80.677889 -57.42 
L 81.046993 -57.42 
L 81.416098 -57.42 
L 81.785203 -57.42 
L 82.154307 -57.42 
L 82.523412 -57.42 
L 82.892516 -57.42 
L 83.261621 -57.42 
L 83.630725 -57.42 
L 83.99983 -57.42 
L 84.368934 -57.42 
L 84.738039 -57.42 
L 85.107144 -57.42 
L 85.476248 -57.42 
L 85.845353 -57.42 
L 86.214457 -57.42 
L 86.583562 -57.42 
L 86.952666 -57.42 
L 87.321771 -57.42 
L 87.690875 -57.42 
L 88.05998 -57.42 
L 88.429085 -57.42 
L 88.798189 -57.42 
L 89.167294 -57.42 
L 89.536398 -57.42 
L 89.905503 -57.42 
L 90.274607 -57.42 
L 90.643712 -57.42 
L 91.012816 -57.42 
L 91.381921 -57.42 
L 91.751026 -57.42 
L 92.12013 -57.42 
L 92.489235 -57.42 
L 92.858339 -57.42 
L 93.227444 -57.42 
L 93.596548 -57.42 
L 93.965653 -57.42 
L 94.334757 -57.42 
L 94.703862 -57.42 
L 95.072967 -57.42 
L 95.442071 -57.42 
L 95.811176 -57.42 
L 96.18028 -57.42 
L 96.549385 -57.42 
L 96.918489 -57.42 
L 97.287594 -57.42 
L 97.656698 -57.42 
L 98.025803 -57.42 
L 98.394908 -57.42 
L 98.764012 -57.42 
L 99.133117 -57.42 
L 99.133117 -57.62473 
L 99.133117 -57.62473 
L 98.764012 -57.828575 
L 98.394908 -58.200079 
L 98.025803 -58.845475 
L 97.656698 -59.914265 
L 97.287594 -61.601446 
L 96.918489 -64.1403 
L 96.549385 -67.782166 
L 96.18028 -72.762114 
L 95.811176 -79.253584 
L 95.442071 -87.319963 
L 95.072967 -96.874783 
L 94.703862 -107.663003 
L 94.334757 -119.272279 
L 93.965653 -131.175912 
L 93.596548 -142.800302 
L 93.227444 -153.602495 
L 92.858339 -163.140437 
L 92.489235 -171.121054 
L 92.12013 -177.418054 
L 91.751026 -182.059767 
L 91.381921 -185.19446 
L 91.012816 -187.044261 
L 90.643712 -187.858834 
L 90.274607 -187.877143 
L 89.905503 -187.301776 
L 89.536398 -186.286662 
L 89.167294 -184.936443 
L 88.798189 -183.314348 
L 88.429085 -181.454853 
L 88.05998 -179.37751 
L 87.690875 -177.09888 
L 87.321771 -174.640494 
L 86.952666 -172.032058 
L 86.583562 -169.310403 
L 86.214457 -166.515697 
L 85.845353 -163.68679 
L 85.476248 -160.857337 
L 85.107144 -158.053633 
L 84.738039 -155.294321 
L 84.368934 -152.59152 
L 83.99983 -149.952681 
L 83.630725 -147.382421 
L 83.261621 -144.883829 
L 82.892516 -142.458918 
L 82.523412 -140.108213 
L 82.154307 -137.82971 
L 81.785203 -135.617701 
L 81.416098 -133.461988 
L 81.046993 -131.347969 
L 80.677889 -129.257824 
L 80.308784 -127.172722 
L 79.93968 -125.075778 
L 79.570575 -122.9553 
L 79.201471 -120.807749 
L 78.832366 -118.639767 
L 78.463262 -116.468596 
L 78.094157 -114.320364 
L 77.725052 -112.226117 
L 77.355948 -110.216119 
L 76.986843 -108.313611 
L 76.617739 -106.529651 
L 76.248634 -104.860579 
L 75.87953 -103.289025 
L 75.510425 -101.788321 
L 75.141321 -100.32913 
L 74.772216 -98.886392 
L 74.403111 -97.444617 
L 74.034007 -96.000197 
L 73.664902 -94.560437 
L 73.295798 -93.140012 
L 72.926693 -91.756215 
L 72.557589 -90.424391 
L 72.188484 -89.154545 
L 71.81938 -87.949462 
L 71.450275 -86.804268 
L 71.08117 -85.707142 
L 70.712066 -84.641007 
L 70.342961 -83.586114 
L 69.973857 -82.523394 
L 69.604752 -81.438191 
L 69.235648 -80.32364 
L 68.866543 -79.182784 
L 68.497439 -78.028633 
L 68.128334 -76.881903 
L 67.759229 -75.766787 
L 67.390125 -74.705817 
L 67.02102 -73.71515 
L 66.651916 -72.801541 
L 66.282811 -71.961775 
L 65.913707 -71.184623 
L 65.544602 -70.454651 
L 65.175498 -69.756771 
L 64.806393 -69.080269 
L 64.437288 -68.421277 
L 64.068184 -67.783167 
L 63.699079 -67.17493 
L 63.329975 -66.60811 
L 62.96087 -66.093219 
L 62.591766 -65.636568 
L 62.222661 -65.238311 
L 61.853557 -64.892106 
L 61.484452 -64.586363 
L 61.115347 -64.306684 
L 60.746243 -64.038777 
L 60.377138 -63.771084 
L 60.008034 -63.496475 
L 59.638929 -63.21267 
L 59.269825 -62.921452 
L 58.90072 -62.62706 
L 58.531616 -62.334349 
L 58.162511 -62.047315 
L 57.793406 -61.768321 
L 57.424302 -61.498155 
L 57.055197 -61.236678 
L 56.686093 -60.983758 
L 56.316988 -60.740054 
L 55.947884 -60.507415 
L 55.578779 -60.288742 
L 55.209675 -60.087407 
L 54.84057 -59.90642 
L 54.471465 -59.74762 
L 54.102361 -59.611117 
L 53.733256 -59.495137 
L 53.364152 -59.396296 
L 52.995047 -59.310189 
L 52.625943 -59.232119 
L 52.256838 -59.157782 
L 51.887734 -59.083737 
L 51.518629 -59.007636 
L 51.149524 -58.9282 
L 50.78042 -58.84507 
L 50.411315 -58.758589 
L 50.042211 -58.669613 
L 49.673106 -58.579361 
L 49.304002 -58.489298 
L 48.934897 -58.401037 
L 48.565793 -58.316244 
L 48.196688 -58.236551 
L 47.827583 -58.16348 
L 47.458479 -58.098382 
L 47.089374 -58.042356 
L 46.72027 -57.996146 
L 46.351165 -57.96 
L 45.982061 -57.93353 
L 45.612956 -57.915613 
L 45.243852 -57.904405 
L 44.874747 -57.897479 
L 44.505642 -57.892108 
L 44.136538 -57.885606 
L 43.767433 -57.875695 
L 43.398329 -57.860789 
L 43.029224 -57.840159 
L 42.66012 -57.813969 
L 42.291015 -57.78318 
L 41.921911 -57.749351 
L 41.552806 -57.714406 
L 41.183701 -57.680362 
L 40.814597 -57.649079 
L 40.445492 -57.622036 
L 40.076388 -57.600162 
L 39.707283 -57.583744 
L 39.338179 -57.572419 
L 38.969074 -57.565278 
L 38.59997 -57.561039 
L 38.230865 -57.558281 
L 37.86176 -57.555661 
L 37.492656 -57.552103 
L 37.123551 -57.546892 
L 36.754447 -57.539703 
L 36.385342 -57.530568 
L 36.016238 -57.519809 
L 35.647133 -57.507971 
L 35.278029 -57.495744 
L 34.908924 -57.483901 
L 34.539819 -57.473222 
L 34.170715 -57.464408 
L 33.80161 -57.458003 
L 33.432506 -57.454305 
L 33.063401 -57.453315 
L 32.694297 -57.454704 
L 32.325192 -57.457843 
L 31.956088 -57.461875 
L 31.586983 -57.465838 
L 31.217878 -57.468818 
L 30.848774 -57.470103 
L 30.479669 -57.469295 
L 30.110565 -57.466369 
L 29.74146 -57.46164 
L 29.372356 -57.455674 
L 29.003251 -57.449147 
L 28.634147 -57.442705 
L 28.265042 -57.436863 
L 27.895937 -57.43194 
L 27.526833 -57.428059 
L 27.157728 -57.425185 
L 26.788624 -57.423181 
L 26.419519 -57.42186 
L 26.050415 -57.421037 
L 25.68131 -57.420551 
z
" style="stroke: #9c179e"/>
    </defs>
    <g clip-path="url(#p2d740abe95)">
     <use xlink:href="#m0a557434eb" x="0" y="216" style="fill: #9c179e; fill-opacity: 0.25; stroke: #9c179e"/>
    </g>
   </g>
   <g id="PolyCollection_2">
    <defs>
     <path id="m186f3fba6e" d="M 32.360973 -57.420883 
L 32.360973 -57.42 
L 32.860718 -57.42 
L 33.360464 -57.42 
L 33.860209 -57.42 
L 34.359955 -57.42 
L 34.8597 -57.42 
L 35.359445 -57.42 
L 35.859191 -57.42 
L 36.358936 -57.42 
L 36.858681 -57.42 
L 37.358427 -57.42 
L 37.858172 -57.42 
L 38.357917 -57.42 
L 38.857663 -57.42 
L 39.357408 -57.42 
L 39.857154 -57.42 
L 40.356899 -57.42 
L 40.856644 -57.42 
L 41.35639 -57.42 
L 41.856135 -57.42 
L 42.35588 -57.42 
L 42.855626 -57.42 
L 43.355371 -57.42 
L 43.855117 -57.42 
L 44.354862 -57.42 
L 44.854607 -57.42 
L 45.354353 -57.42 
L 45.854098 -57.42 
L 46.353843 -57.42 
L 46.853589 -57.42 
L 47.353334 -57.42 
L 47.85308 -57.42 
L 48.352825 -57.42 
L 48.85257 -57.42 
L 49.352316 -57.42 
L 49.852061 -57.42 
L 50.351806 -57.42 
L 50.851552 -57.42 
L 51.351297 -57.42 
L 51.851042 -57.42 
L 52.350788 -57.42 
L 52.850533 -57.42 
L 53.350279 -57.42 
L 53.850024 -57.42 
L 54.349769 -57.42 
L 54.849515 -57.42 
L 55.34926 -57.42 
L 55.849005 -57.42 
L 56.348751 -57.42 
L 56.848496 -57.42 
L 57.348242 -57.42 
L 57.847987 -57.42 
L 58.347732 -57.42 
L 58.847478 -57.42 
L 59.347223 -57.42 
L 59.846968 -57.42 
L 60.346714 -57.42 
L 60.846459 -57.42 
L 61.346205 -57.42 
L 61.84595 -57.42 
L 62.345695 -57.42 
L 62.845441 -57.42 
L 63.345186 -57.42 
L 63.844931 -57.42 
L 64.344677 -57.42 
L 64.844422 -57.42 
L 65.344167 -57.42 
L 65.843913 -57.42 
L 66.343658 -57.42 
L 66.843404 -57.42 
L 67.343149 -57.42 
L 67.842894 -57.42 
L 68.34264 -57.42 
L 68.842385 -57.42 
L 69.34213 -57.42 
L 69.841876 -57.42 
L 70.341621 -57.42 
L 70.841367 -57.42 
L 71.341112 -57.42 
L 71.840857 -57.42 
L 72.340603 -57.42 
L 72.840348 -57.42 
L 73.340093 -57.42 
L 73.839839 -57.42 
L 74.339584 -57.42 
L 74.839329 -57.42 
L 75.339075 -57.42 
L 75.83882 -57.42 
L 76.338566 -57.42 
L 76.838311 -57.42 
L 77.338056 -57.42 
L 77.837802 -57.42 
L 78.337547 -57.42 
L 78.837292 -57.42 
L 79.337038 -57.42 
L 79.836783 -57.42 
L 80.336529 -57.42 
L 80.836274 -57.42 
L 81.336019 -57.42 
L 81.835765 -57.42 
L 82.33551 -57.42 
L 82.835255 -57.42 
L 83.335001 -57.42 
L 83.834746 -57.42 
L 84.334492 -57.42 
L 84.834237 -57.42 
L 85.333982 -57.42 
L 85.833728 -57.42 
L 86.333473 -57.42 
L 86.833218 -57.42 
L 87.332964 -57.42 
L 87.832709 -57.42 
L 88.332454 -57.42 
L 88.8322 -57.42 
L 89.331945 -57.42 
L 89.831691 -57.42 
L 90.331436 -57.42 
L 90.831181 -57.42 
L 91.330927 -57.42 
L 91.830672 -57.42 
L 92.330417 -57.42 
L 92.830163 -57.42 
L 93.329908 -57.42 
L 93.829654 -57.42 
L 94.329399 -57.42 
L 94.829144 -57.42 
L 95.32889 -57.42 
L 95.828635 -57.42 
L 96.32838 -57.42 
L 96.828126 -57.42 
L 97.327871 -57.42 
L 97.827617 -57.42 
L 98.327362 -57.42 
L 98.827107 -57.42 
L 99.326853 -57.42 
L 99.826598 -57.42 
L 100.326343 -57.42 
L 100.826089 -57.42 
L 101.325834 -57.42 
L 101.825579 -57.42 
L 102.325325 -57.42 
L 102.82507 -57.42 
L 103.324816 -57.42 
L 103.824561 -57.42 
L 104.324306 -57.42 
L 104.824052 -57.42 
L 105.323797 -57.42 
L 105.823542 -57.42 
L 106.323288 -57.42 
L 106.823033 -57.42 
L 107.322779 -57.42 
L 107.822524 -57.42 
L 108.322269 -57.42 
L 108.822015 -57.42 
L 109.32176 -57.42 
L 109.821505 -57.42 
L 110.321251 -57.42 
L 110.820996 -57.42 
L 111.320742 -57.42 
L 111.820487 -57.42 
L 112.320232 -57.42 
L 112.819978 -57.42 
L 113.319723 -57.42 
L 113.819468 -57.42 
L 114.319214 -57.42 
L 114.818959 -57.42 
L 115.318704 -57.42 
L 115.81845 -57.42 
L 116.318195 -57.42 
L 116.817941 -57.42 
L 117.317686 -57.42 
L 117.817431 -57.42 
L 118.317177 -57.42 
L 118.816922 -57.42 
L 119.316667 -57.42 
L 119.816413 -57.42 
L 120.316158 -57.42 
L 120.815904 -57.42 
L 121.315649 -57.42 
L 121.815394 -57.42 
L 122.31514 -57.42 
L 122.814885 -57.42 
L 123.31463 -57.42 
L 123.814376 -57.42 
L 124.314121 -57.42 
L 124.813866 -57.42 
L 125.313612 -57.42 
L 125.813357 -57.42 
L 126.313103 -57.42 
L 126.812848 -57.42 
L 127.312593 -57.42 
L 127.812339 -57.42 
L 128.312084 -57.42 
L 128.811829 -57.42 
L 129.311575 -57.42 
L 129.81132 -57.42 
L 130.311066 -57.42 
L 130.810811 -57.42 
L 131.310556 -57.42 
L 131.810302 -57.42 
L 131.810302 -57.421432 
L 131.810302 -57.421432 
L 131.310556 -57.422997 
L 130.810811 -57.425963 
L 130.311066 -57.431288 
L 129.81132 -57.440344 
L 129.311575 -57.454936 
L 128.811829 -57.477223 
L 128.312084 -57.509507 
L 127.812339 -57.553884 
L 127.312593 -57.61183 
L 126.812848 -57.683816 
L 126.313103 -57.769091 
L 125.813357 -57.865763 
L 125.313612 -57.971184 
L 124.813866 -58.082581 
L 124.314121 -58.197733 
L 123.814376 -58.315474 
L 123.31463 -58.435863 
L 122.814885 -58.559997 
L 122.31514 -58.689561 
L 121.815394 -58.826346 
L 121.315649 -58.971913 
L 120.815904 -59.12751 
L 120.316158 -59.294223 
L 119.816413 -59.473254 
L 119.316667 -59.666203 
L 118.816922 -59.875265 
L 118.317177 -60.103315 
L 117.817431 -60.353859 
L 117.317686 -60.630827 
L 116.817941 -60.938202 
L 116.318195 -61.27951 
L 115.81845 -61.657318 
L 115.318704 -62.07296 
L 114.818959 -62.526744 
L 114.319214 -63.018749 
L 113.819468 -63.550057 
L 113.319723 -64.124035 
L 112.819978 -64.747151 
L 112.320232 -65.428933 
L 111.820487 -66.180994 
L 111.320742 -67.015347 
L 110.820996 -67.94246 
L 110.321251 -68.969465 
L 109.821505 -70.098735 
L 109.32176 -71.326958 
L 108.822015 -72.644835 
L 108.322269 -74.037659 
L 107.822524 -75.487149 
L 107.322779 -76.974713 
L 106.823033 -78.48584 
L 106.323288 -80.014702 
L 105.823542 -81.567611 
L 105.323797 -83.163986 
L 104.824052 -84.834049 
L 104.324306 -86.613346 
L 103.824561 -88.535183 
L 103.324816 -90.622697 
L 102.82507 -92.882442 
L 102.325325 -95.300984 
L 101.825579 -97.845269 
L 101.325834 -100.466674 
L 100.826089 -103.107922 
L 100.326343 -105.711521 
L 99.826598 -108.228115 
L 99.326853 -110.623128 
L 98.827107 -112.880309 
L 98.327362 -115.001443 
L 97.827617 -117.002356 
L 97.327871 -118.906447 
L 96.828126 -120.737715 
L 96.32838 -122.515447 
L 95.828635 -124.251993 
L 95.32889 -125.953768 
L 94.829144 -127.62413 
L 94.329399 -129.265939 
L 93.829654 -130.881813 
L 93.329908 -132.471346 
L 92.830163 -134.026366 
L 92.330417 -135.5267 
L 91.830672 -136.939123 
L 91.330927 -138.220975 
L 90.831181 -139.327832 
L 90.331436 -140.222647 
L 89.831691 -140.88291 
L 89.331945 -141.303045 
L 88.8322 -141.491158 
L 88.332454 -141.461418 
L 87.832709 -141.225045 
L 87.332964 -140.783315 
L 86.833218 -140.125293 
L 86.333473 -139.231326 
L 85.833728 -138.081273 
L 85.333982 -136.664671 
L 84.834237 -134.989085 
L 84.334492 -133.08328 
L 83.834746 -130.993631 
L 83.335001 -128.774661 
L 82.835255 -126.476928 
L 82.33551 -124.136484 
L 81.835765 -121.769407 
L 81.336019 -119.372775 
L 80.836274 -116.930978 
L 80.336529 -114.424543 
L 79.836783 -111.838393 
L 79.337038 -109.167407 
L 78.837292 -106.418681 
L 78.337547 -103.61105 
L 77.837802 -100.772929 
L 77.338056 -97.939331 
L 76.838311 -95.148529 
L 76.338566 -92.438567 
L 75.83882 -89.843849 
L 75.339075 -87.39225 
L 74.839329 -85.103241 
L 74.339584 -82.98739 
L 73.839839 -81.04711 
L 73.340093 -79.278152 
L 72.840348 -77.671104 
L 72.340603 -76.212407 
L 71.840857 -74.884874 
L 71.341112 -73.668154 
L 70.841367 -72.539759 
L 70.341621 -71.477035 
L 69.841876 -70.459951 
L 69.34213 -69.474055 
L 68.842385 -68.512699 
L 68.34264 -67.577746 
L 67.842894 -66.678383 
L 67.343149 -65.828216 
L 66.843404 -65.04136 
L 66.343658 -64.328534 
L 65.843913 -63.694186 
L 65.344167 -63.135395 
L 64.844422 -62.642755 
L 64.344677 -62.202882 
L 63.844931 -61.80172 
L 63.345186 -61.427646 
L 62.845441 -61.073499 
L 62.345695 -60.737091 
L 61.84595 -60.420245 
L 61.346205 -60.126841 
L 60.846459 -59.860602 
L 60.346714 -59.623346 
L 59.846968 -59.414187 
L 59.347223 -59.229825 
L 58.847478 -59.065659 
L 58.347732 -58.917215 
L 57.847987 -58.781321 
L 57.348242 -58.656614 
L 56.848496 -58.543283 
L 56.348751 -58.442268 
L 55.849005 -58.354291 
L 55.34926 -58.279126 
L 54.849515 -58.215347 
L 54.349769 -58.160577 
L 53.850024 -58.112076 
L 53.350279 -58.0674 
L 52.850533 -58.024882 
L 52.350788 -57.983788 
L 51.851042 -57.944144 
L 51.351297 -57.906372 
L 50.851552 -57.870899 
L 50.351806 -57.837906 
L 49.852061 -57.807252 
L 49.352316 -57.778544 
L 48.85257 -57.751271 
L 48.352825 -57.724922 
L 47.85308 -57.699074 
L 47.353334 -57.673469 
L 46.853589 -57.648085 
L 46.353843 -57.623205 
L 45.854098 -57.599437 
L 45.354353 -57.577658 
L 44.854607 -57.558869 
L 44.354862 -57.543996 
L 43.855117 -57.533696 
L 43.355371 -57.528211 
L 42.855626 -57.52732 
L 42.35588 -57.530346 
L 41.856135 -57.536223 
L 41.35639 -57.543578 
L 40.856644 -57.55084 
L 40.356899 -57.556387 
L 39.857154 -57.558748 
L 39.357408 -57.556831 
L 38.857663 -57.550141 
L 38.357917 -57.538903 
L 37.858172 -57.524032 
L 37.358427 -57.506951 
L 36.858681 -57.489292 
L 36.358936 -57.472569 
L 35.859191 -57.457921 
L 35.359445 -57.445984 
L 34.8597 -57.4369 
L 34.359955 -57.430426 
L 33.860209 -57.426098 
L 33.360464 -57.42338 
L 32.860718 -57.421775 
L 32.360973 -57.420883 
z
" style="stroke: #ed7953"/>
    </defs>
    <g clip-path="url(#p2d740abe95)">
     <use xlink:href="#m186f3fba6e" x="0" y="216" style="fill: #ed7953; fill-opacity: 0.25; stroke: #ed7953"/>
    </g>
   </g>
   <g id="line2d_1">
    <path d="M 85.710183 158.58 
L 85.710183 21.6 
" clip-path="url(#p2d740abe95)" style="fill: none; stroke: #800080; stroke-width: 1.5; stroke-linecap: round"/>
   </g>
   <g id="line2d_2">
    <path d="M 89.426137 158.58 
L 89.426137 21.6 
" clip-path="url(#p2d740abe95)" style="fill: none; stroke: #ffa500; stroke-width: 1.5; stroke-linecap: round"/>
   </g>
   <g id="patch_3">
    <path d="M 12.96 158.58 
L 12.96 21.6 
" style="fill: none; stroke: #262626; stroke-width: 1.25; stroke-linejoin: miter; stroke-linecap: square"/>
   </g>
   <g id="patch_4">
    <path d="M 12.96 158.58 
L 211.68 158.58 
" style="fill: none; stroke: #262626; stroke-width: 1.25; stroke-linejoin: miter; stroke-linecap: square"/>
   </g>
  </g>
  <g id="axes_2">
   <g id="patch_5">
    <path d="M 224.64 158.58 
L 423.36 158.58 
L 423.36 21.6 
L 224.64 21.6 
L 224.64 158.58 
z
" style="fill: none"/>
   </g>
   <g id="matplotlib.axis_3">
    <g id="xtick_4">
     <g id="text_4">
      <!-- −15 -->
      <g style="fill: #262626" transform="translate(227.205938 179.890391) scale(0.165 -0.165)">
       <use xlink:href="#ArialMT-2212"/>
       <use xlink:href="#ArialMT-31" x="58.398438"/>
       <use xlink:href="#ArialMT-35" x="114.013672"/>
      </g>
     </g>
    </g>
    <g id="xtick_5">
     <g id="text_5">
      <!-- −10 -->
      <g style="fill: #262626" transform="translate(310.005938 179.890391) scale(0.165 -0.165)">
       <use xlink:href="#ArialMT-2212"/>
       <use xlink:href="#ArialMT-31" x="58.398438"/>
       <use xlink:href="#ArialMT-30" x="114.013672"/>
      </g>
     </g>
    </g>
    <g id="xtick_6">
     <g id="text_6">
      <!-- −5 -->
      <g style="fill: #262626" transform="translate(397.393711 179.890391) scale(0.165 -0.165)">
       <use xlink:href="#ArialMT-2212"/>
       <use xlink:href="#ArialMT-35" x="58.398438"/>
      </g>
     </g>
    </g>
   </g>
   <g id="matplotlib.axis_4"/>
   <g id="PolyCollection_3">
    <defs>
     <path id="m2ec5ffe59d" d="M 280.910025 -57.420529 
L 280.910025 -57.42 
L 281.214982 -57.42 
L 281.51994 -57.42 
L 281.824897 -57.42 
L 282.129855 -57.42 
L 282.434812 -57.42 
L 282.73977 -57.42 
L 283.044727 -57.42 
L 283.349684 -57.42 
L 283.654642 -57.42 
L 283.959599 -57.42 
L 284.264557 -57.42 
L 284.569514 -57.42 
L 284.874472 -57.42 
L 285.179429 -57.42 
L 285.484387 -57.42 
L 285.789344 -57.42 
L 286.094302 -57.42 
L 286.399259 -57.42 
L 286.704217 -57.42 
L 287.009174 -57.42 
L 287.314132 -57.42 
L 287.619089 -57.42 
L 287.924047 -57.42 
L 288.229004 -57.42 
L 288.533962 -57.42 
L 288.838919 -57.42 
L 289.143877 -57.42 
L 289.448834 -57.42 
L 289.753791 -57.42 
L 290.058749 -57.42 
L 290.363706 -57.42 
L 290.668664 -57.42 
L 290.973621 -57.42 
L 291.278579 -57.42 
L 291.583536 -57.42 
L 291.888494 -57.42 
L 292.193451 -57.42 
L 292.498409 -57.42 
L 292.803366 -57.42 
L 293.108324 -57.42 
L 293.413281 -57.42 
L 293.718239 -57.42 
L 294.023196 -57.42 
L 294.328154 -57.42 
L 294.633111 -57.42 
L 294.938069 -57.42 
L 295.243026 -57.42 
L 295.547983 -57.42 
L 295.852941 -57.42 
L 296.157898 -57.42 
L 296.462856 -57.42 
L 296.767813 -57.42 
L 297.072771 -57.42 
L 297.377728 -57.42 
L 297.682686 -57.42 
L 297.987643 -57.42 
L 298.292601 -57.42 
L 298.597558 -57.42 
L 298.902516 -57.42 
L 299.207473 -57.42 
L 299.512431 -57.42 
L 299.817388 -57.42 
L 300.122346 -57.42 
L 300.427303 -57.42 
L 300.732261 -57.42 
L 301.037218 -57.42 
L 301.342175 -57.42 
L 301.647133 -57.42 
L 301.95209 -57.42 
L 302.257048 -57.42 
L 302.562005 -57.42 
L 302.866963 -57.42 
L 303.17192 -57.42 
L 303.476878 -57.42 
L 303.781835 -57.42 
L 304.086793 -57.42 
L 304.39175 -57.42 
L 304.696708 -57.42 
L 305.001665 -57.42 
L 305.306623 -57.42 
L 305.61158 -57.42 
L 305.916538 -57.42 
L 306.221495 -57.42 
L 306.526453 -57.42 
L 306.83141 -57.42 
L 307.136367 -57.42 
L 307.441325 -57.42 
L 307.746282 -57.42 
L 308.05124 -57.42 
L 308.356197 -57.42 
L 308.661155 -57.42 
L 308.966112 -57.42 
L 309.27107 -57.42 
L 309.576027 -57.42 
L 309.880985 -57.42 
L 310.185942 -57.42 
L 310.4909 -57.42 
L 310.795857 -57.42 
L 311.100815 -57.42 
L 311.405772 -57.42 
L 311.71073 -57.42 
L 312.015687 -57.42 
L 312.320645 -57.42 
L 312.625602 -57.42 
L 312.930559 -57.42 
L 313.235517 -57.42 
L 313.540474 -57.42 
L 313.845432 -57.42 
L 314.150389 -57.42 
L 314.455347 -57.42 
L 314.760304 -57.42 
L 315.065262 -57.42 
L 315.370219 -57.42 
L 315.675177 -57.42 
L 315.980134 -57.42 
L 316.285092 -57.42 
L 316.590049 -57.42 
L 316.895007 -57.42 
L 317.199964 -57.42 
L 317.504922 -57.42 
L 317.809879 -57.42 
L 318.114837 -57.42 
L 318.419794 -57.42 
L 318.724751 -57.42 
L 319.029709 -57.42 
L 319.334666 -57.42 
L 319.639624 -57.42 
L 319.944581 -57.42 
L 320.249539 -57.42 
L 320.554496 -57.42 
L 320.859454 -57.42 
L 321.164411 -57.42 
L 321.469369 -57.42 
L 321.774326 -57.42 
L 322.079284 -57.42 
L 322.384241 -57.42 
L 322.689199 -57.42 
L 322.994156 -57.42 
L 323.299114 -57.42 
L 323.604071 -57.42 
L 323.909029 -57.42 
L 324.213986 -57.42 
L 324.518944 -57.42 
L 324.823901 -57.42 
L 325.128858 -57.42 
L 325.433816 -57.42 
L 325.738773 -57.42 
L 326.043731 -57.42 
L 326.348688 -57.42 
L 326.653646 -57.42 
L 326.958603 -57.42 
L 327.263561 -57.42 
L 327.568518 -57.42 
L 327.873476 -57.42 
L 328.178433 -57.42 
L 328.483391 -57.42 
L 328.788348 -57.42 
L 329.093306 -57.42 
L 329.398263 -57.42 
L 329.703221 -57.42 
L 330.008178 -57.42 
L 330.313136 -57.42 
L 330.618093 -57.42 
L 330.92305 -57.42 
L 331.228008 -57.42 
L 331.532965 -57.42 
L 331.837923 -57.42 
L 332.14288 -57.42 
L 332.447838 -57.42 
L 332.752795 -57.42 
L 333.057753 -57.42 
L 333.36271 -57.42 
L 333.667668 -57.42 
L 333.972625 -57.42 
L 334.277583 -57.42 
L 334.58254 -57.42 
L 334.887498 -57.42 
L 335.192455 -57.42 
L 335.497413 -57.42 
L 335.80237 -57.42 
L 336.107328 -57.42 
L 336.412285 -57.42 
L 336.717242 -57.42 
L 337.0222 -57.42 
L 337.327157 -57.42 
L 337.632115 -57.42 
L 337.937072 -57.42 
L 338.24203 -57.42 
L 338.546987 -57.42 
L 338.851945 -57.42 
L 339.156902 -57.42 
L 339.46186 -57.42 
L 339.766817 -57.42 
L 340.071775 -57.42 
L 340.376732 -57.42 
L 340.68169 -57.42 
L 340.986647 -57.42 
L 341.291605 -57.42 
L 341.596562 -57.42 
L 341.596562 -57.613444 
L 341.596562 -57.613444 
L 341.291605 -57.797531 
L 340.986647 -58.127755 
L 340.68169 -58.69492 
L 340.376732 -59.62755 
L 340.071775 -61.095735 
L 339.766817 -63.308268 
L 339.46186 -66.49974 
L 339.156902 -70.905545 
L 338.851945 -76.725419 
L 338.546987 -84.079886 
L 338.24203 -92.967733 
L 337.937072 -103.235045 
L 337.632115 -114.565961 
L 337.327157 -126.501608 
L 337.0222 -138.487212 
L 336.717242 -149.939978 
L 336.412285 -160.324404 
L 336.107328 -169.219321 
L 335.80237 -176.363091 
L 335.497413 -181.669217 
L 335.192455 -185.212232 
L 334.887498 -187.190553 
L 334.58254 -187.877143 
L 334.277583 -187.569486 
L 333.972625 -186.548106 
L 333.667668 -185.048857 
L 333.36271 -183.250064 
L 333.057753 -181.272361 
L 332.752795 -179.187284 
L 332.447838 -177.030268 
L 332.14288 -174.814298 
L 331.837923 -172.54159 
L 331.532965 -170.21197 
L 331.228008 -167.827764 
L 330.92305 -165.395835 
L 330.618093 -162.927843 
L 330.313136 -160.43971 
L 330.008178 -157.950918 
L 329.703221 -155.483717 
L 329.398263 -153.061906 
L 329.093306 -150.708763 
L 328.788348 -148.444001 
L 328.483391 -146.2801 
L 328.178433 -144.218844 
L 327.873476 -142.249083 
L 327.568518 -140.346525 
L 327.263561 -138.475905 
L 326.958603 -136.595312 
L 326.653646 -134.66196 
L 326.348688 -132.63845 
L 326.043731 -130.498477 
L 325.738773 -128.231022 
L 325.433816 -125.842294 
L 325.128858 -123.355029 
L 324.823901 -120.805274 
L 324.518944 -118.237266 
L 324.213986 -115.697486 
L 323.909029 -113.229049 
L 323.604071 -110.867408 
L 323.299114 -108.637842 
L 322.994156 -106.554683 
L 322.689199 -104.621873 
L 322.384241 -102.834349 
L 322.079284 -101.1799 
L 321.774326 -99.641313 
L 321.469369 -98.198732 
L 321.164411 -96.832094 
L 320.859454 -95.52334 
L 320.554496 -94.258026 
L 320.249539 -93.026035 
L 319.944581 -91.821297 
L 319.639624 -90.640768 
L 319.334666 -89.483117 
L 319.029709 -88.347606 
L 318.724751 -87.233486 
L 318.419794 -86.139941 
L 318.114837 -85.066364 
L 317.809879 -84.012627 
L 317.504922 -82.979069 
L 317.199964 -81.966138 
L 316.895007 -80.973802 
L 316.590049 -80.00101 
L 316.285092 -79.045463 
L 315.980134 -78.103881 
L 315.675177 -77.172727 
L 315.370219 -76.249257 
L 315.065262 -75.332609 
L 314.760304 -74.424646 
L 314.455347 -73.530297 
L 314.150389 -72.657283 
L 313.845432 -71.8152 
L 313.540474 -71.014133 
L 313.235517 -70.263053 
L 312.930559 -69.568344 
L 312.625602 -68.932752 
L 312.320645 -68.354988 
L 312.015687 -67.83003 
L 311.71073 -67.350054 
L 311.405772 -66.905757 
L 311.100815 -66.487832 
L 310.795857 -66.0883 
L 310.4909 -65.701501 
L 310.185942 -65.3246 
L 309.880985 -64.957576 
L 309.576027 -64.602759 
L 309.27107 -64.264032 
L 308.966112 -63.945896 
L 308.661155 -63.652545 
L 308.356197 -63.387109 
L 308.05124 -63.151093 
L 307.746282 -62.944052 
L 307.441325 -62.76346 
L 307.136367 -62.604785 
L 306.83141 -62.461775 
L 306.526453 -62.326998 
L 306.221495 -62.192637 
L 305.916538 -62.05146 
L 305.61158 -61.897836 
L 305.306623 -61.728566 
L 305.001665 -61.54335 
L 304.696708 -61.344739 
L 304.39175 -61.137591 
L 304.086793 -60.928131 
L 303.781835 -60.722836 
L 303.476878 -60.52736 
L 303.17192 -60.345712 
L 302.866963 -60.179795 
L 302.562005 -60.029359 
L 302.257048 -59.892331 
L 301.95209 -59.765425 
L 301.647133 -59.64492 
L 301.342175 -59.527436 
L 301.037218 -59.410586 
L 300.732261 -59.293361 
L 300.427303 -59.176188 
L 300.122346 -59.060655 
L 299.817388 -58.948996 
L 299.512431 -58.843468 
L 299.207473 -58.745785 
L 298.902516 -58.656747 
L 298.597558 -58.576129 
L 298.292601 -58.50283 
L 297.987643 -58.435199 
L 297.682686 -58.371444 
L 297.377728 -58.310012 
L 297.072771 -58.249866 
L 296.767813 -58.19063 
L 296.462856 -58.132597 
L 296.157898 -58.076613 
L 295.852941 -58.023878 
L 295.547983 -57.975679 
L 295.243026 -57.933111 
L 294.938069 -57.896817 
L 294.633111 -57.866817 
L 294.328154 -57.842447 
L 294.023196 -57.822457 
L 293.718239 -57.805231 
L 293.413281 -57.789106 
L 293.108324 -57.772697 
L 292.803366 -57.755146 
L 292.498409 -57.736237 
L 292.193451 -57.716338 
L 291.888494 -57.696198 
L 291.583536 -57.676653 
L 291.278579 -57.658349 
L 290.973621 -57.641531 
L 290.668664 -57.62599 
L 290.363706 -57.611155 
L 290.058749 -57.596296 
L 289.753791 -57.580778 
L 289.448834 -57.564277 
L 289.143877 -57.546906 
L 288.838919 -57.529216 
L 288.533962 -57.512073 
L 288.229004 -57.496478 
L 287.924047 -57.483346 
L 287.619089 -57.473331 
L 287.314132 -57.466704 
L 287.009174 -57.463309 
L 286.704217 -57.462607 
L 286.399259 -57.463766 
L 286.094302 -57.465803 
L 285.789344 -57.467744 
L 285.484387 -57.468765 
L 285.179429 -57.468307 
L 284.874472 -57.466138 
L 284.569514 -57.462347 
L 284.264557 -57.457286 
L 283.959599 -57.451462 
L 283.654642 -57.44543 
L 283.349684 -57.439684 
L 283.044727 -57.434588 
L 282.73977 -57.430351 
L 282.434812 -57.427031 
L 282.129855 -57.424573 
L 281.824897 -57.422847 
L 281.51994 -57.421697 
L 281.214982 -57.420968 
L 280.910025 -57.420529 
z
" style="stroke: #9c179e"/>
    </defs>
    <g clip-path="url(#p7b41362008)">
     <use xlink:href="#m2ec5ffe59d" x="0" y="216" style="fill: #9c179e; fill-opacity: 0.25; stroke: #9c179e"/>
    </g>
   </g>
   <g id="PolyCollection_4">
    <defs>
     <path id="md3ffcd34d3" d="M 276.7446 -57.420369 
L 276.7446 -57.42 
L 277.190508 -57.42 
L 277.636416 -57.42 
L 278.082324 -57.42 
L 278.528232 -57.42 
L 278.97414 -57.42 
L 279.420048 -57.42 
L 279.865956 -57.42 
L 280.311864 -57.42 
L 280.757772 -57.42 
L 281.20368 -57.42 
L 281.649588 -57.42 
L 282.095496 -57.42 
L 282.541404 -57.42 
L 282.987312 -57.42 
L 283.43322 -57.42 
L 283.879128 -57.42 
L 284.325036 -57.42 
L 284.770944 -57.42 
L 285.216852 -57.42 
L 285.66276 -57.42 
L 286.108668 -57.42 
L 286.554576 -57.42 
L 287.000484 -57.42 
L 287.446392 -57.42 
L 287.8923 -57.42 
L 288.338208 -57.42 
L 288.784116 -57.42 
L 289.230025 -57.42 
L 289.675933 -57.42 
L 290.121841 -57.42 
L 290.567749 -57.42 
L 291.013657 -57.42 
L 291.459565 -57.42 
L 291.905473 -57.42 
L 292.351381 -57.42 
L 292.797289 -57.42 
L 293.243197 -57.42 
L 293.689105 -57.42 
L 294.135013 -57.42 
L 294.580921 -57.42 
L 295.026829 -57.42 
L 295.472737 -57.42 
L 295.918645 -57.42 
L 296.364553 -57.42 
L 296.810461 -57.42 
L 297.256369 -57.42 
L 297.702277 -57.42 
L 298.148185 -57.42 
L 298.594093 -57.42 
L 299.040001 -57.42 
L 299.485909 -57.42 
L 299.931817 -57.42 
L 300.377725 -57.42 
L 300.823633 -57.42 
L 301.269541 -57.42 
L 301.715449 -57.42 
L 302.161357 -57.42 
L 302.607265 -57.42 
L 303.053173 -57.42 
L 303.499081 -57.42 
L 303.944989 -57.42 
L 304.390897 -57.42 
L 304.836805 -57.42 
L 305.282713 -57.42 
L 305.728621 -57.42 
L 306.174529 -57.42 
L 306.620437 -57.42 
L 307.066345 -57.42 
L 307.512253 -57.42 
L 307.958161 -57.42 
L 308.404069 -57.42 
L 308.849977 -57.42 
L 309.295885 -57.42 
L 309.741793 -57.42 
L 310.187701 -57.42 
L 310.633609 -57.42 
L 311.079517 -57.42 
L 311.525425 -57.42 
L 311.971333 -57.42 
L 312.417241 -57.42 
L 312.863149 -57.42 
L 313.309057 -57.42 
L 313.754965 -57.42 
L 314.200873 -57.42 
L 314.646782 -57.42 
L 315.09269 -57.42 
L 315.538598 -57.42 
L 315.984506 -57.42 
L 316.430414 -57.42 
L 316.876322 -57.42 
L 317.32223 -57.42 
L 317.768138 -57.42 
L 318.214046 -57.42 
L 318.659954 -57.42 
L 319.105862 -57.42 
L 319.55177 -57.42 
L 319.997678 -57.42 
L 320.443586 -57.42 
L 320.889494 -57.42 
L 321.335402 -57.42 
L 321.78131 -57.42 
L 322.227218 -57.42 
L 322.673126 -57.42 
L 323.119034 -57.42 
L 323.564942 -57.42 
L 324.01085 -57.42 
L 324.456758 -57.42 
L 324.902666 -57.42 
L 325.348574 -57.42 
L 325.794482 -57.42 
L 326.24039 -57.42 
L 326.686298 -57.42 
L 327.132206 -57.42 
L 327.578114 -57.42 
L 328.024022 -57.42 
L 328.46993 -57.42 
L 328.915838 -57.42 
L 329.361746 -57.42 
L 329.807654 -57.42 
L 330.253562 -57.42 
L 330.69947 -57.42 
L 331.145378 -57.42 
L 331.591286 -57.42 
L 332.037194 -57.42 
L 332.483102 -57.42 
L 332.92901 -57.42 
L 333.374918 -57.42 
L 333.820826 -57.42 
L 334.266734 -57.42 
L 334.712642 -57.42 
L 335.15855 -57.42 
L 335.604458 -57.42 
L 336.050366 -57.42 
L 336.496274 -57.42 
L 336.942182 -57.42 
L 337.38809 -57.42 
L 337.833998 -57.42 
L 338.279906 -57.42 
L 338.725814 -57.42 
L 339.171722 -57.42 
L 339.61763 -57.42 
L 340.063539 -57.42 
L 340.509447 -57.42 
L 340.955355 -57.42 
L 341.401263 -57.42 
L 341.847171 -57.42 
L 342.293079 -57.42 
L 342.738987 -57.42 
L 343.184895 -57.42 
L 343.630803 -57.42 
L 344.076711 -57.42 
L 344.522619 -57.42 
L 344.968527 -57.42 
L 345.414435 -57.42 
L 345.860343 -57.42 
L 346.306251 -57.42 
L 346.752159 -57.42 
L 347.198067 -57.42 
L 347.643975 -57.42 
L 348.089883 -57.42 
L 348.535791 -57.42 
L 348.981699 -57.42 
L 349.427607 -57.42 
L 349.873515 -57.42 
L 350.319423 -57.42 
L 350.765331 -57.42 
L 351.211239 -57.42 
L 351.657147 -57.42 
L 352.103055 -57.42 
L 352.548963 -57.42 
L 352.994871 -57.42 
L 353.440779 -57.42 
L 353.886687 -57.42 
L 354.332595 -57.42 
L 354.778503 -57.42 
L 355.224411 -57.42 
L 355.670319 -57.42 
L 356.116227 -57.42 
L 356.562135 -57.42 
L 357.008043 -57.42 
L 357.453951 -57.42 
L 357.899859 -57.42 
L 358.345767 -57.42 
L 358.791675 -57.42 
L 359.237583 -57.42 
L 359.683491 -57.42 
L 360.129399 -57.42 
L 360.575307 -57.42 
L 361.021215 -57.42 
L 361.467123 -57.42 
L 361.913031 -57.42 
L 362.358939 -57.42 
L 362.804847 -57.42 
L 363.250755 -57.42 
L 363.696663 -57.42 
L 364.142571 -57.42 
L 364.588479 -57.42 
L 365.034387 -57.42 
L 365.480295 -57.42 
L 365.480295 -57.450574 
L 365.480295 -57.450574 
L 365.034387 -57.482638 
L 364.588479 -57.542612 
L 364.142571 -57.649432 
L 363.696663 -57.830628 
L 363.250755 -58.123411 
L 362.804847 -58.574163 
L 362.358939 -59.23556 
L 361.913031 -60.160861 
L 361.467123 -61.39573 
L 361.021215 -62.968869 
L 360.575307 -64.883637 
L 360.129399 -67.113139 
L 359.683491 -69.600799 
L 359.237583 -72.26707 
L 358.791675 -75.021176 
L 358.345767 -77.775133 
L 357.899859 -80.456484 
L 357.453951 -83.016555 
L 357.008043 -85.432416 
L 356.562135 -87.702749 
L 356.116227 -89.839618 
L 355.670319 -91.859151 
L 355.224411 -93.774091 
L 354.778503 -95.590171 
L 354.332595 -97.306731 
L 353.886687 -98.920611 
L 353.440779 -100.431503 
L 352.994871 -101.846867 
L 352.548963 -103.18495 
L 352.103055 -104.475219 
L 351.657147 -105.75606 
L 351.211239 -107.070019 
L 350.765331 -108.457101 
L 350.319423 -109.947057 
L 349.873515 -111.552092 
L 349.427607 -113.261895 
L 348.981699 -115.042853 
L 348.535791 -116.842446 
L 348.089883 -118.598299 
L 347.643975 -120.249614 
L 347.198067 -121.74768 
L 346.752159 -123.062317 
L 346.306251 -124.182592 
L 345.860343 -125.112265 
L 345.414435 -125.862297 
L 344.968527 -126.443563 
L 344.522619 -126.862383 
L 344.076711 -127.119981 
L 343.630803 -127.215298 
L 343.184895 -127.149378 
L 342.738987 -126.92925 
L 342.293079 -126.569804 
L 341.847171 -126.09312 
L 341.401263 -125.52568 
L 340.955355 -124.894461 
L 340.509447 -124.223054 
L 340.063539 -123.528708 
L 339.61763 -122.820803 
L 339.171722 -122.100826 
L 338.725814 -121.363578 
L 338.279906 -120.599101 
L 337.833998 -119.79471 
L 337.38809 -118.936658 
L 336.942182 -118.011175 
L 336.496274 -117.005017 
L 336.050366 -115.905913 
L 335.604458 -114.703376 
L 335.15855 -113.390089 
L 334.712642 -111.963703 
L 334.266734 -110.428449 
L 333.820826 -108.795845 
L 333.374918 -107.08392 
L 332.92901 -105.314868 
L 332.483102 -103.511623 
L 332.037194 -101.694251 
L 331.591286 -99.877133 
L 331.145378 -98.067658 
L 330.69947 -96.266661 
L 330.253562 -94.470344 
L 329.807654 -92.673126 
L 329.361746 -90.870764 
L 328.915838 -89.063151 
L 328.46993 -87.2563 
L 328.024022 -85.463128 
L 327.578114 -83.702783 
L 327.132206 -81.998469 
L 326.686298 -80.374097 
L 326.24039 -78.850419 
L 325.794482 -77.441548 
L 325.348574 -76.152711 
L 324.902666 -74.979716 
L 324.456758 -73.910162 
L 324.01085 -72.925959 
L 323.564942 -72.006532 
L 323.119034 -71.132039 
L 322.673126 -70.286126 
L 322.227218 -69.457871 
L 321.78131 -68.642747 
L 321.335402 -67.842506 
L 320.889494 -67.064042 
L 320.443586 -66.317443 
L 319.997678 -65.613628 
L 319.55177 -64.962053 
L 319.105862 -64.368957 
L 318.659954 -63.836447 
L 318.214046 -63.362496 
L 317.768138 -62.941709 
L 317.32223 -62.56656 
L 316.876322 -62.228771 
L 316.430414 -61.92055 
L 315.984506 -61.635466 
L 315.538598 -61.368851 
L 315.09269 -61.117711 
L 314.646782 -60.880253 
L 314.200873 -60.655215 
L 313.754965 -60.44129 
L 313.309057 -60.236877 
L 312.863149 -60.040294 
L 312.417241 -59.850357 
L 311.971333 -59.667039 
L 311.525425 -59.49184 
L 311.079517 -59.32759 
L 310.633609 -59.177636 
L 310.187701 -59.044697 
L 309.741793 -58.92982 
L 309.295885 -58.831889 
L 308.849977 -58.747886 
L 308.404069 -58.673794 
L 307.958161 -58.605745 
L 307.512253 -58.540966 
L 307.066345 -58.47818 
L 306.620437 -58.417412 
L 306.174529 -58.359393 
L 305.728621 -58.3049 
L 305.282713 -58.254296 
L 304.836805 -58.207414 
L 304.390897 -58.16372 
L 303.944989 -58.122577 
L 303.499081 -58.08344 
L 303.053173 -58.045888 
L 302.607265 -58.009504 
L 302.161357 -57.973715 
L 301.715449 -57.937711 
L 301.269541 -57.900519 
L 300.823633 -57.86122 
L 300.377725 -57.81924 
L 299.931817 -57.774593 
L 299.485909 -57.727982 
L 299.040001 -57.680729 
L 298.594093 -57.634542 
L 298.148185 -57.591195 
L 297.702277 -57.552226 
L 297.256369 -57.518703 
L 296.810461 -57.491117 
L 296.364553 -57.469408 
L 295.918645 -57.453069 
L 295.472737 -57.441311 
L 295.026829 -57.433228 
L 294.580921 -57.427939 
L 294.135013 -57.424683 
L 293.689105 -57.422872 
L 293.243197 -57.422113 
L 292.797289 -57.422202 
L 292.351381 -57.423105 
L 291.905473 -57.424922 
L 291.459565 -57.427848 
L 291.013657 -57.432104 
L 290.567749 -57.437859 
L 290.121841 -57.445143 
L 289.675933 -57.453775 
L 289.230025 -57.463328 
L 288.784116 -57.473154 
L 288.338208 -57.482482 
L 287.8923 -57.490565 
L 287.446392 -57.496829 
L 287.000484 -57.500991 
L 286.554576 -57.503089 
L 286.108668 -57.50342 
L 285.66276 -57.502413 
L 285.216852 -57.500475 
L 284.770944 -57.497874 
L 284.325036 -57.494695 
L 283.879128 -57.490863 
L 283.43322 -57.486234 
L 282.987312 -57.480702 
L 282.541404 -57.474283 
L 282.095496 -57.467151 
L 281.649588 -57.459631 
L 281.20368 -57.452129 
L 280.757772 -57.445058 
L 280.311864 -57.438764 
L 279.865956 -57.433467 
L 279.420048 -57.429252 
L 278.97414 -57.426077 
L 278.528232 -57.423813 
L 278.082324 -57.422284 
L 277.636416 -57.421305 
L 277.190508 -57.420711 
L 276.7446 -57.420369 
z
" style="stroke: #ed7953"/>
    </defs>
    <g clip-path="url(#p7b41362008)">
     <use xlink:href="#md3ffcd34d3" x="0" y="216" style="fill: #ed7953; fill-opacity: 0.25; stroke: #ed7953"/>
    </g>
   </g>
   <g id="line2d_3">
    <path d="M 330.246908 158.58 
L 330.246908 21.6 
" clip-path="url(#p7b41362008)" style="fill: none; stroke: #800080; stroke-width: 1.5; stroke-linecap: round"/>
   </g>
   <g id="line2d_4">
    <path d="M 341.850181 158.58 
L 341.850181 21.6 
" clip-path="url(#p7b41362008)" style="fill: none; stroke: #ffa500; stroke-width: 1.5; stroke-linecap: round"/>
   </g>
   <g id="patch_6">
    <path d="M 224.64 158.58 
L 224.64 21.6 
" style="fill: none; stroke: #262626; stroke-width: 1.25; stroke-linejoin: miter; stroke-linecap: square"/>
   </g>
   <g id="patch_7">
    <path d="M 224.64 158.58 
L 423.36 158.58 
" style="fill: none; stroke: #262626; stroke-width: 1.25; stroke-linejoin: miter; stroke-linecap: square"/>
   </g>
  </g>
  <g id="axes_3">
   <g id="patch_8">
    <path d="M 436.32 158.58 
L 635.04 158.58 
L 635.04 21.6 
L 436.32 21.6 
L 436.32 158.58 
z
" style="fill: none"/>
   </g>
   <g id="matplotlib.axis_5">
    <g id="xtick_7">
     <g id="text_7">
      <!-- −15 -->
      <g style="fill: #262626" transform="translate(438.885938 179.890391) scale(0.165 -0.165)">
       <use xlink:href="#ArialMT-2212"/>
       <use xlink:href="#ArialMT-31" x="58.398438"/>
       <use xlink:href="#ArialMT-35" x="114.013672"/>
      </g>
     </g>
    </g>
    <g id="xtick_8">
     <g id="text_8">
      <!-- −10 -->
      <g style="fill: #262626" transform="translate(521.685938 179.890391) scale(0.165 -0.165)">
       <use xlink:href="#ArialMT-2212"/>
       <use xlink:href="#ArialMT-31" x="58.398438"/>
       <use xlink:href="#ArialMT-30" x="114.013672"/>
      </g>
     </g>
    </g>
    <g id="xtick_9">
     <g id="text_9">
      <!-- −5 -->
      <g style="fill: #262626" transform="translate(609.073711 179.890391) scale(0.165 -0.165)">
       <use xlink:href="#ArialMT-2212"/>
       <use xlink:href="#ArialMT-35" x="58.398438"/>
      </g>
     </g>
    </g>
   </g>
   <g id="matplotlib.axis_6"/>
   <g id="PolyCollection_5">
    <defs>
     <path id="mc468067c30" d="M 510.617317 -57.42086 
L 510.617317 -57.42 
L 510.933679 -57.42 
L 511.250041 -57.42 
L 511.566403 -57.42 
L 511.882765 -57.42 
L 512.199127 -57.42 
L 512.515489 -57.42 
L 512.831851 -57.42 
L 513.148213 -57.42 
L 513.464575 -57.42 
L 513.780937 -57.42 
L 514.097299 -57.42 
L 514.413662 -57.42 
L 514.730024 -57.42 
L 515.046386 -57.42 
L 515.362748 -57.42 
L 515.67911 -57.42 
L 515.995472 -57.42 
L 516.311834 -57.42 
L 516.628196 -57.42 
L 516.944558 -57.42 
L 517.26092 -57.42 
L 517.577282 -57.42 
L 517.893644 -57.42 
L 518.210006 -57.42 
L 518.526368 -57.42 
L 518.842731 -57.42 
L 519.159093 -57.42 
L 519.475455 -57.42 
L 519.791817 -57.42 
L 520.108179 -57.42 
L 520.424541 -57.42 
L 520.740903 -57.42 
L 521.057265 -57.42 
L 521.373627 -57.42 
L 521.689989 -57.42 
L 522.006351 -57.42 
L 522.322713 -57.42 
L 522.639075 -57.42 
L 522.955437 -57.42 
L 523.271799 -57.42 
L 523.588162 -57.42 
L 523.904524 -57.42 
L 524.220886 -57.42 
L 524.537248 -57.42 
L 524.85361 -57.42 
L 525.169972 -57.42 
L 525.486334 -57.42 
L 525.802696 -57.42 
L 526.119058 -57.42 
L 526.43542 -57.42 
L 526.751782 -57.42 
L 527.068144 -57.42 
L 527.384506 -57.42 
L 527.700868 -57.42 
L 528.01723 -57.42 
L 528.333593 -57.42 
L 528.649955 -57.42 
L 528.966317 -57.42 
L 529.282679 -57.42 
L 529.599041 -57.42 
L 529.915403 -57.42 
L 530.231765 -57.42 
L 530.548127 -57.42 
L 530.864489 -57.42 
L 531.180851 -57.42 
L 531.497213 -57.42 
L 531.813575 -57.42 
L 532.129937 -57.42 
L 532.446299 -57.42 
L 532.762661 -57.42 
L 533.079024 -57.42 
L 533.395386 -57.42 
L 533.711748 -57.42 
L 534.02811 -57.42 
L 534.344472 -57.42 
L 534.660834 -57.42 
L 534.977196 -57.42 
L 535.293558 -57.42 
L 535.60992 -57.42 
L 535.926282 -57.42 
L 536.242644 -57.42 
L 536.559006 -57.42 
L 536.875368 -57.42 
L 537.19173 -57.42 
L 537.508093 -57.42 
L 537.824455 -57.42 
L 538.140817 -57.42 
L 538.457179 -57.42 
L 538.773541 -57.42 
L 539.089903 -57.42 
L 539.406265 -57.42 
L 539.722627 -57.42 
L 540.038989 -57.42 
L 540.355351 -57.42 
L 540.671713 -57.42 
L 540.988075 -57.42 
L 541.304437 -57.42 
L 541.620799 -57.42 
L 541.937161 -57.42 
L 542.253524 -57.42 
L 542.569886 -57.42 
L 542.886248 -57.42 
L 543.20261 -57.42 
L 543.518972 -57.42 
L 543.835334 -57.42 
L 544.151696 -57.42 
L 544.468058 -57.42 
L 544.78442 -57.42 
L 545.100782 -57.42 
L 545.417144 -57.42 
L 545.733506 -57.42 
L 546.049868 -57.42 
L 546.36623 -57.42 
L 546.682592 -57.42 
L 546.998955 -57.42 
L 547.315317 -57.42 
L 547.631679 -57.42 
L 547.948041 -57.42 
L 548.264403 -57.42 
L 548.580765 -57.42 
L 548.897127 -57.42 
L 549.213489 -57.42 
L 549.529851 -57.42 
L 549.846213 -57.42 
L 550.162575 -57.42 
L 550.478937 -57.42 
L 550.795299 -57.42 
L 551.111661 -57.42 
L 551.428024 -57.42 
L 551.744386 -57.42 
L 552.060748 -57.42 
L 552.37711 -57.42 
L 552.693472 -57.42 
L 553.009834 -57.42 
L 553.326196 -57.42 
L 553.642558 -57.42 
L 553.95892 -57.42 
L 554.275282 -57.42 
L 554.591644 -57.42 
L 554.908006 -57.42 
L 555.224368 -57.42 
L 555.54073 -57.42 
L 555.857092 -57.42 
L 556.173455 -57.42 
L 556.489817 -57.42 
L 556.806179 -57.42 
L 557.122541 -57.42 
L 557.438903 -57.42 
L 557.755265 -57.42 
L 558.071627 -57.42 
L 558.387989 -57.42 
L 558.704351 -57.42 
L 559.020713 -57.42 
L 559.337075 -57.42 
L 559.653437 -57.42 
L 559.969799 -57.42 
L 560.286161 -57.42 
L 560.602523 -57.42 
L 560.918886 -57.42 
L 561.235248 -57.42 
L 561.55161 -57.42 
L 561.867972 -57.42 
L 562.184334 -57.42 
L 562.500696 -57.42 
L 562.817058 -57.42 
L 563.13342 -57.42 
L 563.449782 -57.42 
L 563.766144 -57.42 
L 564.082506 -57.42 
L 564.398868 -57.42 
L 564.71523 -57.42 
L 565.031592 -57.42 
L 565.347954 -57.42 
L 565.664317 -57.42 
L 565.980679 -57.42 
L 566.297041 -57.42 
L 566.613403 -57.42 
L 566.929765 -57.42 
L 567.246127 -57.42 
L 567.562489 -57.42 
L 567.878851 -57.42 
L 568.195213 -57.42 
L 568.511575 -57.42 
L 568.827937 -57.42 
L 569.144299 -57.42 
L 569.460661 -57.42 
L 569.777023 -57.42 
L 570.093386 -57.42 
L 570.409748 -57.42 
L 570.72611 -57.42 
L 571.042472 -57.42 
L 571.358834 -57.42 
L 571.675196 -57.42 
L 571.991558 -57.42 
L 572.30792 -57.42 
L 572.624282 -57.42 
L 572.940644 -57.42 
L 573.257006 -57.42 
L 573.573368 -57.42 
L 573.573368 -57.629704 
L 573.573368 -57.629704 
L 573.257006 -57.826658 
L 572.940644 -58.177471 
L 572.624282 -58.775688 
L 572.30792 -59.75225 
L 571.991558 -61.27835 
L 571.675196 -63.561251 
L 571.358834 -66.830057 
L 571.042472 -71.309866 
L 570.72611 -77.185572 
L 570.409748 -84.560185 
L 570.093386 -93.415934 
L 569.777023 -103.588121 
L 569.460661 -114.760655 
L 569.144299 -126.488074 
L 568.827937 -138.242498 
L 568.511575 -149.477417 
L 568.195213 -159.695491 
L 567.878851 -168.506537 
L 567.562489 -175.664672 
L 567.246127 -181.079343 
L 566.929765 -184.801463 
L 566.613403 -186.991255 
L 566.297041 -187.877143 
L 565.980679 -187.714996 
L 565.664317 -186.754765 
L 565.347954 -185.218237 
L 565.031592 -183.288322 
L 564.71523 -181.107813 
L 564.398868 -178.784175 
L 564.082506 -176.396762 
L 563.766144 -174.003572 
L 563.449782 -171.645898 
L 563.13342 -169.350614 
L 562.817058 -167.130881 
L 562.500696 -164.986578 
L 562.184334 -162.905643 
L 561.867972 -160.866943 
L 561.55161 -158.844509 
L 561.235248 -156.812332 
L 560.918886 -154.748654 
L 560.602523 -152.638852 
L 560.286161 -150.476484 
L 559.969799 -148.262667 
L 559.653437 -146.0044 
L 559.337075 -143.712579 
L 559.020713 -141.400274 
L 558.704351 -139.081503 
L 558.387989 -136.770349 
L 558.071627 -134.480093 
L 557.755265 -132.222042 
L 557.438903 -130.00404 
L 557.122541 -127.82894 
L 556.806179 -125.693611 
L 556.489817 -123.589058 
L 556.173455 -121.501998 
L 555.857092 -119.417736 
L 555.54073 -117.323722 
L 555.224368 -115.21283 
L 554.908006 -113.085437 
L 554.591644 -110.949772 
L 554.275282 -108.820578 
L 553.95892 -106.716668 
L 553.642558 -104.658223 
L 553.326196 -102.66457 
L 553.009834 -100.752786 
L 552.693472 -98.93703 
L 552.37711 -97.228172 
L 552.060748 -95.633319 
L 551.744386 -94.155023 
L 551.428024 -92.790343 
L 551.111661 -91.530179 
L 550.795299 -90.359369 
L 550.478937 -89.257867 
L 550.162575 -88.202993 
L 549.846213 -87.172431 
L 549.529851 -86.147402 
L 549.213489 -85.115374 
L 548.897127 -84.071769 
L 548.580765 -83.020298 
L 548.264403 -81.971873 
L 547.948041 -80.942234 
L 547.631679 -79.948726 
L 547.315317 -79.006807 
L 546.998955 -78.12694 
L 546.682592 -77.312508 
L 546.36623 -76.559192 
L 546.049868 -75.855956 
L 545.733506 -75.187421 
L 545.417144 -74.537059 
L 545.100782 -73.890468 
L 544.78442 -73.237942 
L 544.468058 -72.575801 
L 544.151696 -71.906253 
L 543.835334 -71.235992 
L 543.518972 -70.573997 
L 543.20261 -69.929195 
L 542.886248 -69.308552 
L 542.569886 -68.715971 
L 542.253524 -68.152116 
L 541.937161 -67.614992 
L 541.620799 -67.100989 
L 541.304437 -66.606049 
L 540.988075 -66.12668 
L 540.671713 -65.660652 
L 540.355351 -65.207296 
L 540.038989 -64.767446 
L 539.722627 -64.343084 
L 539.406265 -63.936812 
L 539.089903 -63.551285 
L 538.773541 -63.188763 
L 538.457179 -62.850867 
L 538.140817 -62.538572 
L 537.824455 -62.252372 
L 537.508093 -61.992464 
L 537.19173 -61.758833 
L 536.875368 -61.551138 
L 536.559006 -61.368443 
L 536.242644 -61.208888 
L 535.926282 -61.069487 
L 535.60992 -60.946159 
L 535.293558 -60.834059 
L 534.977196 -60.728143 
L 534.660834 -60.623826 
L 534.344472 -60.517572 
L 534.02811 -60.407263 
L 533.711748 -60.29227 
L 533.395386 -60.173229 
L 533.079024 -60.051582 
L 532.762661 -59.929029 
L 532.446299 -59.807036 
L 532.129937 -59.686519 
L 531.813575 -59.567799 
L 531.497213 -59.45079 
L 531.180851 -59.335326 
L 530.864489 -59.221476 
L 530.548127 -59.1097 
L 530.231765 -59.000787 
L 529.915403 -58.895603 
L 529.599041 -58.794796 
L 529.282679 -58.698602 
L 528.966317 -58.606845 
L 528.649955 -58.519159 
L 528.333593 -58.435293 
L 528.01723 -58.355372 
L 527.700868 -58.279974 
L 527.384506 -58.209965 
L 527.068144 -58.146165 
L 526.751782 -58.088969 
L 526.43542 -58.03808 
L 526.119058 -57.992457 
L 525.802696 -57.950512 
L 525.486334 -57.910498 
L 525.169972 -57.870964 
L 524.85361 -57.831145 
L 524.537248 -57.791167 
L 524.220886 -57.752013 
L 523.904524 -57.715266 
L 523.588162 -57.682685 
L 523.271799 -57.65576 
L 522.955437 -57.635319 
L 522.639075 -57.621329 
L 522.322713 -57.612879 
L 522.006351 -57.608375 
L 521.689989 -57.605862 
L 521.373627 -57.603391 
L 521.057265 -57.599365 
L 520.740903 -57.592773 
L 520.424541 -57.583304 
L 520.108179 -57.57133 
L 519.791817 -57.557775 
L 519.475455 -57.543913 
L 519.159093 -57.531141 
L 518.842731 -57.520749 
L 518.526368 -57.513732 
L 518.210006 -57.51065 
L 517.893644 -57.511555 
L 517.577282 -57.51599 
L 517.26092 -57.523044 
L 516.944558 -57.53147 
L 516.628196 -57.539838 
L 516.311834 -57.546712 
L 515.995472 -57.550841 
L 515.67911 -57.551318 
L 515.362748 -57.547699 
L 515.046386 -57.540058 
L 514.730024 -57.528953 
L 514.413662 -57.515325 
L 514.097299 -57.500325 
L 513.780937 -57.485134 
L 513.464575 -57.470789 
L 513.148213 -57.45806 
L 512.831851 -57.447395 
L 512.515489 -57.438931 
L 512.199127 -57.432555 
L 511.882765 -57.427988 
L 511.566403 -57.424874 
L 511.250041 -57.422852 
L 510.933679 -57.4216 
L 510.617317 -57.42086 
z
" style="stroke: #9c179e"/>
    </defs>
    <g clip-path="url(#p6b64249e97)">
     <use xlink:href="#mc468067c30" x="0" y="216" style="fill: #9c179e; fill-opacity: 0.25; stroke: #9c179e"/>
    </g>
   </g>
   <g id="PolyCollection_6">
    <defs>
     <path id="m0fd25b283a" d="M 510.644874 -57.420293 
L 510.644874 -57.42 
L 511.214951 -57.42 
L 511.785028 -57.42 
L 512.355106 -57.42 
L 512.925183 -57.42 
L 513.49526 -57.42 
L 514.065338 -57.42 
L 514.635415 -57.42 
L 515.205492 -57.42 
L 515.77557 -57.42 
L 516.345647 -57.42 
L 516.915724 -57.42 
L 517.485801 -57.42 
L 518.055879 -57.42 
L 518.625956 -57.42 
L 519.196033 -57.42 
L 519.766111 -57.42 
L 520.336188 -57.42 
L 520.906265 -57.42 
L 521.476343 -57.42 
L 522.04642 -57.42 
L 522.616497 -57.42 
L 523.186574 -57.42 
L 523.756652 -57.42 
L 524.326729 -57.42 
L 524.896806 -57.42 
L 525.466884 -57.42 
L 526.036961 -57.42 
L 526.607038 -57.42 
L 527.177116 -57.42 
L 527.747193 -57.42 
L 528.31727 -57.42 
L 528.887347 -57.42 
L 529.457425 -57.42 
L 530.027502 -57.42 
L 530.597579 -57.42 
L 531.167657 -57.42 
L 531.737734 -57.42 
L 532.307811 -57.42 
L 532.877889 -57.42 
L 533.447966 -57.42 
L 534.018043 -57.42 
L 534.58812 -57.42 
L 535.158198 -57.42 
L 535.728275 -57.42 
L 536.298352 -57.42 
L 536.86843 -57.42 
L 537.438507 -57.42 
L 538.008584 -57.42 
L 538.578662 -57.42 
L 539.148739 -57.42 
L 539.718816 -57.42 
L 540.288893 -57.42 
L 540.858971 -57.42 
L 541.429048 -57.42 
L 541.999125 -57.42 
L 542.569203 -57.42 
L 543.13928 -57.42 
L 543.709357 -57.42 
L 544.279435 -57.42 
L 544.849512 -57.42 
L 545.419589 -57.42 
L 545.989666 -57.42 
L 546.559744 -57.42 
L 547.129821 -57.42 
L 547.699898 -57.42 
L 548.269976 -57.42 
L 548.840053 -57.42 
L 549.41013 -57.42 
L 549.980208 -57.42 
L 550.550285 -57.42 
L 551.120362 -57.42 
L 551.690439 -57.42 
L 552.260517 -57.42 
L 552.830594 -57.42 
L 553.400671 -57.42 
L 553.970749 -57.42 
L 554.540826 -57.42 
L 555.110903 -57.42 
L 555.68098 -57.42 
L 556.251058 -57.42 
L 556.821135 -57.42 
L 557.391212 -57.42 
L 557.96129 -57.42 
L 558.531367 -57.42 
L 559.101444 -57.42 
L 559.671522 -57.42 
L 560.241599 -57.42 
L 560.811676 -57.42 
L 561.381753 -57.42 
L 561.951831 -57.42 
L 562.521908 -57.42 
L 563.091985 -57.42 
L 563.662063 -57.42 
L 564.23214 -57.42 
L 564.802217 -57.42 
L 565.372295 -57.42 
L 565.942372 -57.42 
L 566.512449 -57.42 
L 567.082526 -57.42 
L 567.652604 -57.42 
L 568.222681 -57.42 
L 568.792758 -57.42 
L 569.362836 -57.42 
L 569.932913 -57.42 
L 570.50299 -57.42 
L 571.073068 -57.42 
L 571.643145 -57.42 
L 572.213222 -57.42 
L 572.783299 -57.42 
L 573.353377 -57.42 
L 573.923454 -57.42 
L 574.493531 -57.42 
L 575.063609 -57.42 
L 575.633686 -57.42 
L 576.203763 -57.42 
L 576.773841 -57.42 
L 577.343918 -57.42 
L 577.913995 -57.42 
L 578.484072 -57.42 
L 579.05415 -57.42 
L 579.624227 -57.42 
L 580.194304 -57.42 
L 580.764382 -57.42 
L 581.334459 -57.42 
L 581.904536 -57.42 
L 582.474614 -57.42 
L 583.044691 -57.42 
L 583.614768 -57.42 
L 584.184845 -57.42 
L 584.754923 -57.42 
L 585.325 -57.42 
L 585.895077 -57.42 
L 586.465155 -57.42 
L 587.035232 -57.42 
L 587.605309 -57.42 
L 588.175387 -57.42 
L 588.745464 -57.42 
L 589.315541 -57.42 
L 589.885618 -57.42 
L 590.455696 -57.42 
L 591.025773 -57.42 
L 591.59585 -57.42 
L 592.165928 -57.42 
L 592.736005 -57.42 
L 593.306082 -57.42 
L 593.87616 -57.42 
L 594.446237 -57.42 
L 595.016314 -57.42 
L 595.586391 -57.42 
L 596.156469 -57.42 
L 596.726546 -57.42 
L 597.296623 -57.42 
L 597.866701 -57.42 
L 598.436778 -57.42 
L 599.006855 -57.42 
L 599.576932 -57.42 
L 600.14701 -57.42 
L 600.717087 -57.42 
L 601.287164 -57.42 
L 601.857242 -57.42 
L 602.427319 -57.42 
L 602.997396 -57.42 
L 603.567474 -57.42 
L 604.137551 -57.42 
L 604.707628 -57.42 
L 605.277705 -57.42 
L 605.847783 -57.42 
L 606.41786 -57.42 
L 606.987937 -57.42 
L 607.558015 -57.42 
L 608.128092 -57.42 
L 608.698169 -57.42 
L 609.268247 -57.42 
L 609.838324 -57.42 
L 610.408401 -57.42 
L 610.978478 -57.42 
L 611.548556 -57.42 
L 612.118633 -57.42 
L 612.68871 -57.42 
L 613.258788 -57.42 
L 613.828865 -57.42 
L 614.398942 -57.42 
L 614.96902 -57.42 
L 615.539097 -57.42 
L 616.109174 -57.42 
L 616.679251 -57.42 
L 617.249329 -57.42 
L 617.819406 -57.42 
L 618.389483 -57.42 
L 618.959561 -57.42 
L 619.529638 -57.42 
L 620.099715 -57.42 
L 620.669793 -57.42 
L 621.23987 -57.42 
L 621.809947 -57.42 
L 622.380024 -57.42 
L 622.950102 -57.42 
L 623.520179 -57.42 
L 624.090256 -57.42 
L 624.090256 -57.420293 
L 624.090256 -57.420293 
L 623.520179 -57.420582 
L 622.950102 -57.421092 
L 622.380024 -57.421942 
L 621.809947 -57.423277 
L 621.23987 -57.425253 
L 620.669793 -57.428018 
L 620.099715 -57.431694 
L 619.529638 -57.436373 
L 618.959561 -57.442145 
L 618.389483 -57.449166 
L 617.819406 -57.457738 
L 617.249329 -57.468392 
L 616.679251 -57.481894 
L 616.109174 -57.499181 
L 615.539097 -57.52119 
L 614.96902 -57.548663 
L 614.398942 -57.581997 
L 613.828865 -57.621232 
L 613.258788 -57.666209 
L 612.68871 -57.716857 
L 612.118633 -57.773469 
L 611.548556 -57.836823 
L 610.978478 -57.908018 
L 610.408401 -57.988044 
L 609.838324 -58.077203 
L 609.268247 -58.174633 
L 608.698169 -58.27814 
L 608.128092 -58.384496 
L 607.558015 -58.490168 
L 606.987937 -58.592321 
L 606.41786 -58.689839 
L 605.847783 -58.784128 
L 605.277705 -58.879483 
L 604.707628 -58.982939 
L 604.137551 -59.103561 
L 603.567474 -59.251298 
L 602.997396 -59.435538 
L 602.427319 -59.66365 
L 601.857242 -59.939738 
L 601.287164 -60.263803 
L 600.717087 -60.631439 
L 600.14701 -61.034086 
L 599.576932 -61.459885 
L 599.006855 -61.89514 
L 598.436778 -62.32631 
L 597.866701 -62.742341 
L 597.296623 -63.136902 
L 596.726546 -63.510034 
L 596.156469 -63.868757 
L 595.586391 -64.22643 
L 595.016314 -64.601012 
L 594.446237 -65.012622 
L 593.87616 -65.480936 
L 593.306082 -66.022968 
L 592.736005 -66.651618 
L 592.165928 -67.375214 
L 591.59585 -68.198009 
L 591.025773 -69.121332 
L 590.455696 -70.144837 
L 589.885618 -71.267312 
L 589.315541 -72.48668 
L 588.745464 -73.79928 
L 588.175387 -75.198959 
L 587.605309 -76.676641 
L 587.035232 -78.220863 
L 586.465155 -79.819239 
L 585.895077 -81.460293 
L 585.325 -83.134852 
L 584.754923 -84.836358 
L 584.184845 -86.559958 
L 583.614768 -88.300816 
L 583.044691 -90.052468 
L 582.474614 -91.806034 
L 581.904536 -93.550717 
L 581.334459 -95.275395 
L 580.764382 -96.970597 
L 580.194304 -98.629932 
L 579.624227 -100.250248 
L 579.05415 -101.830386 
L 578.484072 -103.369007 
L 577.913995 -104.862371 
L 577.343918 -106.302967 
L 576.773841 -107.679573 
L 576.203763 -108.978902 
L 575.633686 -110.188513 
L 575.063609 -111.300403 
L 574.493531 -112.31434 
L 573.923454 -113.239907 
L 573.353377 -114.09626 
L 572.783299 -114.909059 
L 572.213222 -115.7048 
L 571.643145 -116.503681 
L 571.073068 -117.312755 
L 570.50299 -118.121264 
L 569.932913 -118.899586 
L 569.362836 -119.602347 
L 568.792758 -120.175256 
L 568.222681 -120.564325 
L 567.652604 -120.725583 
L 567.082526 -120.633198 
L 566.512449 -120.284201 
L 565.942372 -119.698622 
L 565.372295 -118.914814 
L 564.802217 -117.980805 
L 564.23214 -116.943541 
L 563.662063 -115.838496 
L 563.091985 -114.682216 
L 562.521908 -113.469771 
L 561.951831 -112.177912 
L 561.381753 -110.773188 
L 560.811676 -109.222827 
L 560.241599 -107.50527 
L 559.671522 -105.617276 
L 559.101444 -103.575598 
L 558.531367 -101.413055 
L 557.96129 -99.170683 
L 557.391212 -96.88887 
L 556.821135 -94.60046 
L 556.251058 -92.327795 
L 555.68098 -90.084035 
L 555.110903 -87.877618 
L 554.540826 -85.717765 
L 553.970749 -83.61887 
L 553.400671 -81.602152 
L 552.830594 -79.69392 
L 552.260517 -77.920906 
L 551.690439 -76.304014 
L 551.120362 -74.852418 
L 550.550285 -73.559947 
L 549.980208 -72.405087 
L 549.41013 -71.354847 
L 548.840053 -70.37153 
L 548.269976 -69.420562 
L 547.699898 -68.477205 
L 547.129821 -67.530458 
L 546.559744 -66.583385 
L 545.989666 -65.650223 
L 545.419589 -64.751499 
L 544.849512 -63.908748 
L 544.279435 -63.140199 
L 543.709357 -62.45821 
L 543.13928 -61.868504 
L 542.569203 -61.370696 
L 541.999125 -60.959403 
L 541.429048 -60.625372 
L 540.858971 -60.356433 
L 540.288893 -60.138397 
L 539.718816 -59.956159 
L 539.148739 -59.795158 
L 538.578662 -59.643023 
L 538.008584 -59.491011 
L 537.438507 -59.334763 
L 536.86843 -59.174094 
L 536.298352 -59.011884 
L 535.728275 -58.852471 
L 535.158198 -58.700095 
L 534.58812 -58.557872 
L 534.018043 -58.42749 
L 533.447966 -58.309534 
L 532.877889 -58.204095 
L 532.307811 -58.111324 
L 531.737734 -58.03167 
L 531.167657 -57.965757 
L 530.597579 -57.914004 
L 530.027502 -57.876191 
L 529.457425 -57.85116 
L 528.887347 -57.836757 
L 528.31727 -57.830036 
L 527.747193 -57.827634 
L 527.177116 -57.826223 
L 526.607038 -57.822911 
L 526.036961 -57.815525 
L 525.466884 -57.802744 
L 524.896806 -57.784093 
L 524.326729 -57.759849 
L 523.756652 -57.730886 
L 523.186574 -57.698505 
L 522.616497 -57.664272 
L 522.04642 -57.62984 
L 521.476343 -57.596786 
L 520.906265 -57.56644 
L 520.336188 -57.539745 
L 519.766111 -57.517164 
L 519.196033 -57.49867 
L 518.625956 -57.483829 
L 518.055879 -57.471954 
L 517.485801 -57.462295 
L 516.915724 -57.454203 
L 516.345647 -57.44723 
L 515.77557 -57.441146 
L 515.205492 -57.435887 
L 514.635415 -57.431472 
L 514.065338 -57.427923 
L 513.49526 -57.425214 
L 512.925183 -57.423262 
L 512.355106 -57.421937 
L 511.785028 -57.42109 
L 511.214951 -57.420581 
L 510.644874 -57.420293 
z
" style="stroke: #ed7953"/>
    </defs>
    <g clip-path="url(#p6b64249e97)">
     <use xlink:href="#m0fd25b283a" x="0" y="216" style="fill: #ed7953; fill-opacity: 0.25; stroke: #ed7953"/>
    </g>
   </g>
   <g id="line2d_5">
    <path d="M 561.693645 158.58 
L 561.693645 21.6 
" clip-path="url(#p6b64249e97)" style="fill: none; stroke: #800080; stroke-width: 1.5; stroke-linecap: round"/>
   </g>
   <g id="line2d_6">
    <path d="M 569.169095 158.58 
L 569.169095 21.6 
" clip-path="url(#p6b64249e97)" style="fill: none; stroke: #ffa500; stroke-width: 1.5; stroke-linecap: round"/>
   </g>
   <g id="patch_9">
    <path d="M 436.32 158.58 
L 436.32 21.6 
" style="fill: none; stroke: #262626; stroke-width: 1.25; stroke-linejoin: miter; stroke-linecap: square"/>
   </g>
   <g id="patch_10">
    <path d="M 436.32 158.58 
L 635.04 158.58 
" style="fill: none; stroke: #262626; stroke-width: 1.25; stroke-linejoin: miter; stroke-linecap: square"/>
   </g>
  </g>
 </g>
 <defs>
  <clipPath id="p2d740abe95">
   <rect x="12.96" y="21.6" width="198.72" height="136.98"/>
  </clipPath>
  <clipPath id="p7b41362008">
   <rect x="224.64" y="21.6" width="198.72" height="136.98"/>
  </clipPath>
  <clipPath id="p6b64249e97">
   <rect x="436.32" y="21.6" width="198.72" height="136.98"/>
  </clipPath>
 </defs>
</svg>
