<?xml version="1.0" encoding="utf-8" standalone="no"?>
<!DOCTYPE svg PUBLIC "-//W3C//DTD SVG 1.1//EN"
  "http://www.w3.org/Graphics/SVG/1.1/DTD/svg11.dtd">
<svg xmlns:xlink="http://www.w3.org/1999/xlink" width="360pt" height="216pt" viewBox="0 0 360 216" xmlns="http://www.w3.org/2000/svg" version="1.1">
 <metadata>
  <rdf:RDF xmlns:dc="http://purl.org/dc/elements/1.1/" xmlns:cc="http://creativecommons.org/ns#" xmlns:rdf="http://www.w3.org/1999/02/22-rdf-syntax-ns#">
   <cc:Work>
    <dc:type rdf:resource="http://purl.org/dc/dcmitype/StillImage"/>
    <dc:date>2023-10-03T21:29:46.424590</dc:date>
    <dc:format>image/svg+xml</dc:format>
    <dc:creator>
     <cc:Agent>
      <dc:title>Matplotlib v3.6.2, https://matplotlib.org/</dc:title>
     </cc:Agent>
    </dc:creator>
   </cc:Work>
  </rdf:RDF>
 </metadata>
 <defs>
  <style type="text/css">*{stroke-linejoin: round; stroke-linecap: butt}</style>
 </defs>
 <g id="figure_1">
  <g id="patch_1">
   <path d="M 0 216 
L 360 216 
L 360 0 
L 0 0 
z
" style="fill: #ffffff"/>
  </g>
  <g id="axes_1">
   <g id="patch_2">
    <path d="M 45 192.24 
L 324 192.24 
L 324 25.92 
L 45 25.92 
z
" style="fill: #ffffff"/>
   </g>
   <g id="matplotlib.axis_1">
    <g id="xtick_1">
     <g id="text_1">
      <!-- -15 -->
      <g style="fill: #262626" transform="translate(63.306508 210.329375) scale(0.12 -0.12)">
       <defs>
        <path id="ArialMT-2d" d="M 203 1375 
L 203 1941 
L 1931 1941 
L 1931 1375 
L 203 1375 
z
" transform="scale(0.015625)"/>
        <path id="ArialMT-31" d="M 2384 0 
L 1822 0 
L 1822 3584 
Q 1619 3391 1289 3197 
Q 959 3003 697 2906 
L 697 3450 
Q 1169 3672 1522 3987 
Q 1875 4303 2022 4600 
L 2384 4600 
L 2384 0 
z
" transform="scale(0.015625)"/>
        <path id="ArialMT-35" d="M 266 1200 
L 856 1250 
Q 922 819 1161 601 
Q 1400 384 1738 384 
Q 2144 384 2425 690 
Q 2706 997 2706 1503 
Q 2706 1984 2436 2262 
Q 2166 2541 1728 2541 
Q 1456 2541 1237 2417 
Q 1019 2294 894 2097 
L 366 2166 
L 809 4519 
L 3088 4519 
L 3088 3981 
L 1259 3981 
L 1013 2750 
Q 1425 3038 1878 3038 
Q 2478 3038 2890 2622 
Q 3303 2206 3303 1553 
Q 3303 931 2941 478 
Q 2500 -78 1738 -78 
Q 1113 -78 717 272 
Q 322 622 266 1200 
z
" transform="scale(0.015625)"/>
       </defs>
       <use xlink:href="#ArialMT-2d"/>
       <use xlink:href="#ArialMT-31" x="33.300781"/>
       <use xlink:href="#ArialMT-35" x="88.916016"/>
      </g>
     </g>
    </g>
    <g id="xtick_2">
     <g id="text_2">
      <!-- -14 -->
      <g style="fill: #262626" transform="translate(102.623399 210.329375) scale(0.12 -0.12)">
       <defs>
        <path id="ArialMT-34" d="M 2069 0 
L 2069 1097 
L 81 1097 
L 81 1613 
L 2172 4581 
L 2631 4581 
L 2631 1613 
L 3250 1613 
L 3250 1097 
L 2631 1097 
L 2631 0 
L 2069 0 
z
M 2069 1613 
L 2069 3678 
L 634 1613 
L 2069 1613 
z
" transform="scale(0.015625)"/>
       </defs>
       <use xlink:href="#ArialMT-2d"/>
       <use xlink:href="#ArialMT-31" x="33.300781"/>
       <use xlink:href="#ArialMT-34" x="88.916016"/>
      </g>
     </g>
    </g>
    <g id="xtick_3">
     <g id="text_3">
      <!-- -13 -->
      <g style="fill: #262626" transform="translate(141.94029 210.329375) scale(0.12 -0.12)">
       <defs>
        <path id="ArialMT-33" d="M 269 1209 
L 831 1284 
Q 928 806 1161 595 
Q 1394 384 1728 384 
Q 2125 384 2398 659 
Q 2672 934 2672 1341 
Q 2672 1728 2419 1979 
Q 2166 2231 1775 2231 
Q 1616 2231 1378 2169 
L 1441 2663 
Q 1497 2656 1531 2656 
Q 1891 2656 2178 2843 
Q 2466 3031 2466 3422 
Q 2466 3731 2256 3934 
Q 2047 4138 1716 4138 
Q 1388 4138 1169 3931 
Q 950 3725 888 3313 
L 325 3413 
Q 428 3978 793 4289 
Q 1159 4600 1703 4600 
Q 2078 4600 2393 4439 
Q 2709 4278 2876 4000 
Q 3044 3722 3044 3409 
Q 3044 3113 2884 2869 
Q 2725 2625 2413 2481 
Q 2819 2388 3044 2092 
Q 3269 1797 3269 1353 
Q 3269 753 2831 336 
Q 2394 -81 1725 -81 
Q 1122 -81 723 278 
Q 325 638 269 1209 
z
" transform="scale(0.015625)"/>
       </defs>
       <use xlink:href="#ArialMT-2d"/>
       <use xlink:href="#ArialMT-31" x="33.300781"/>
       <use xlink:href="#ArialMT-33" x="88.916016"/>
      </g>
     </g>
    </g>
    <g id="xtick_4">
     <g id="text_4">
      <!-- -12 -->
      <g style="fill: #262626" transform="translate(181.257181 210.329375) scale(0.12 -0.12)">
       <defs>
        <path id="ArialMT-32" d="M 3222 541 
L 3222 0 
L 194 0 
Q 188 203 259 391 
Q 375 700 629 1000 
Q 884 1300 1366 1694 
Q 2113 2306 2375 2664 
Q 2638 3022 2638 3341 
Q 2638 3675 2398 3904 
Q 2159 4134 1775 4134 
Q 1369 4134 1125 3890 
Q 881 3647 878 3216 
L 300 3275 
Q 359 3922 746 4261 
Q 1134 4600 1788 4600 
Q 2447 4600 2831 4234 
Q 3216 3869 3216 3328 
Q 3216 3053 3103 2787 
Q 2991 2522 2730 2228 
Q 2469 1934 1863 1422 
Q 1356 997 1212 845 
Q 1069 694 975 541 
L 3222 541 
z
" transform="scale(0.015625)"/>
       </defs>
       <use xlink:href="#ArialMT-2d"/>
       <use xlink:href="#ArialMT-31" x="33.300781"/>
       <use xlink:href="#ArialMT-32" x="88.916016"/>
      </g>
     </g>
    </g>
    <g id="xtick_5">
     <g id="text_5">
      <!-- -11 -->
      <g style="fill: #262626" transform="translate(221.016572 210.329375) scale(0.12 -0.12)">
       <use xlink:href="#ArialMT-2d"/>
       <use xlink:href="#ArialMT-31" x="33.300781"/>
       <use xlink:href="#ArialMT-31" x="81.541016"/>
      </g>
     </g>
    </g>
    <g id="xtick_6">
     <g id="text_6">
      <!-- -10 -->
      <g style="fill: #262626" transform="translate(259.890963 210.329375) scale(0.12 -0.12)">
       <defs>
        <path id="ArialMT-30" d="M 266 2259 
Q 266 3072 433 3567 
Q 600 4063 929 4331 
Q 1259 4600 1759 4600 
Q 2128 4600 2406 4451 
Q 2684 4303 2865 4023 
Q 3047 3744 3150 3342 
Q 3253 2941 3253 2259 
Q 3253 1453 3087 958 
Q 2922 463 2592 192 
Q 2263 -78 1759 -78 
Q 1097 -78 719 397 
Q 266 969 266 2259 
z
M 844 2259 
Q 844 1131 1108 757 
Q 1372 384 1759 384 
Q 2147 384 2411 759 
Q 2675 1134 2675 2259 
Q 2675 3391 2411 3762 
Q 2147 4134 1753 4134 
Q 1366 4134 1134 3806 
Q 844 3388 844 2259 
z
" transform="scale(0.015625)"/>
       </defs>
       <use xlink:href="#ArialMT-2d"/>
       <use xlink:href="#ArialMT-31" x="33.300781"/>
       <use xlink:href="#ArialMT-30" x="88.916016"/>
      </g>
     </g>
    </g>
    <g id="xtick_7">
     <g id="text_7">
      <!-- -9 -->
      <g style="fill: #262626" transform="translate(302.544416 210.329375) scale(0.12 -0.12)">
       <defs>
        <path id="ArialMT-39" d="M 350 1059 
L 891 1109 
Q 959 728 1153 556 
Q 1347 384 1650 384 
Q 1909 384 2104 503 
Q 2300 622 2425 820 
Q 2550 1019 2634 1356 
Q 2719 1694 2719 2044 
Q 2719 2081 2716 2156 
Q 2547 1888 2255 1720 
Q 1963 1553 1622 1553 
Q 1053 1553 659 1965 
Q 266 2378 266 3053 
Q 266 3750 677 4175 
Q 1088 4600 1706 4600 
Q 2153 4600 2523 4359 
Q 2894 4119 3086 3673 
Q 3278 3228 3278 2384 
Q 3278 1506 3087 986 
Q 2897 466 2520 194 
Q 2144 -78 1638 -78 
Q 1100 -78 759 220 
Q 419 519 350 1059 
z
M 2653 3081 
Q 2653 3566 2395 3850 
Q 2138 4134 1775 4134 
Q 1400 4134 1122 3828 
Q 844 3522 844 3034 
Q 844 2597 1108 2323 
Q 1372 2050 1759 2050 
Q 2150 2050 2401 2323 
Q 2653 2597 2653 3081 
z
" transform="scale(0.015625)"/>
       </defs>
       <use xlink:href="#ArialMT-2d"/>
       <use xlink:href="#ArialMT-39" x="33.300781"/>
      </g>
     </g>
    </g>
    <g id="text_8">
     <!-- score -->
     <g style="fill: #262626" transform="translate(169.829062 225.30375) scale(0.12 -0.12)">
      <defs>
       <path id="ArialMT-73" d="M 197 991 
L 753 1078 
Q 800 744 1014 566 
Q 1228 388 1613 388 
Q 2000 388 2187 545 
Q 2375 703 2375 916 
Q 2375 1106 2209 1216 
Q 2094 1291 1634 1406 
Q 1016 1563 777 1677 
Q 538 1791 414 1992 
Q 291 2194 291 2438 
Q 291 2659 392 2848 
Q 494 3038 669 3163 
Q 800 3259 1026 3326 
Q 1253 3394 1513 3394 
Q 1903 3394 2198 3281 
Q 2494 3169 2634 2976 
Q 2775 2784 2828 2463 
L 2278 2388 
Q 2241 2644 2061 2787 
Q 1881 2931 1553 2931 
Q 1166 2931 1000 2803 
Q 834 2675 834 2503 
Q 834 2394 903 2306 
Q 972 2216 1119 2156 
Q 1203 2125 1616 2013 
Q 2213 1853 2448 1751 
Q 2684 1650 2818 1456 
Q 2953 1263 2953 975 
Q 2953 694 2789 445 
Q 2625 197 2315 61 
Q 2006 -75 1616 -75 
Q 969 -75 630 194 
Q 291 463 197 991 
z
" transform="scale(0.015625)"/>
       <path id="ArialMT-63" d="M 2588 1216 
L 3141 1144 
Q 3050 572 2676 248 
Q 2303 -75 1759 -75 
Q 1078 -75 664 370 
Q 250 816 250 1647 
Q 250 2184 428 2587 
Q 606 2991 970 3192 
Q 1334 3394 1763 3394 
Q 2303 3394 2647 3120 
Q 2991 2847 3088 2344 
L 2541 2259 
Q 2463 2594 2264 2762 
Q 2066 2931 1784 2931 
Q 1359 2931 1093 2626 
Q 828 2322 828 1663 
Q 828 994 1084 691 
Q 1341 388 1753 388 
Q 2084 388 2306 591 
Q 2528 794 2588 1216 
z
" transform="scale(0.015625)"/>
       <path id="ArialMT-6f" d="M 213 1659 
Q 213 2581 725 3025 
Q 1153 3394 1769 3394 
Q 2453 3394 2887 2945 
Q 3322 2497 3322 1706 
Q 3322 1066 3130 698 
Q 2938 331 2570 128 
Q 2203 -75 1769 -75 
Q 1072 -75 642 372 
Q 213 819 213 1659 
z
M 791 1659 
Q 791 1022 1069 705 
Q 1347 388 1769 388 
Q 2188 388 2466 706 
Q 2744 1025 2744 1678 
Q 2744 2294 2464 2611 
Q 2184 2928 1769 2928 
Q 1347 2928 1069 2612 
Q 791 2297 791 1659 
z
" transform="scale(0.015625)"/>
       <path id="ArialMT-72" d="M 416 0 
L 416 3319 
L 922 3319 
L 922 2816 
Q 1116 3169 1280 3281 
Q 1444 3394 1641 3394 
Q 1925 3394 2219 3213 
L 2025 2691 
Q 1819 2813 1613 2813 
Q 1428 2813 1281 2702 
Q 1134 2591 1072 2394 
Q 978 2094 978 1738 
L 978 0 
L 416 0 
z
" transform="scale(0.015625)"/>
       <path id="ArialMT-65" d="M 2694 1069 
L 3275 997 
Q 3138 488 2766 206 
Q 2394 -75 1816 -75 
Q 1088 -75 661 373 
Q 234 822 234 1631 
Q 234 2469 665 2931 
Q 1097 3394 1784 3394 
Q 2450 3394 2872 2941 
Q 3294 2488 3294 1666 
Q 3294 1616 3291 1516 
L 816 1516 
Q 847 969 1125 678 
Q 1403 388 1819 388 
Q 2128 388 2347 550 
Q 2566 713 2694 1069 
z
M 847 1978 
L 2700 1978 
Q 2663 2397 2488 2606 
Q 2219 2931 1791 2931 
Q 1403 2931 1139 2672 
Q 875 2413 847 1978 
z
" transform="scale(0.015625)"/>
      </defs>
      <use xlink:href="#ArialMT-73"/>
      <use xlink:href="#ArialMT-63" x="50"/>
      <use xlink:href="#ArialMT-6f" x="100"/>
      <use xlink:href="#ArialMT-72" x="155.615234"/>
      <use xlink:href="#ArialMT-65" x="188.916016"/>
     </g>
    </g>
   </g>
   <g id="matplotlib.axis_2">
    <g id="ytick_1">
     <g id="text_9">
      <!-- 0.0 -->
      <g style="fill: #262626" transform="translate(18.82 196.534688) scale(0.12 -0.12)">
       <defs>
        <path id="ArialMT-2e" d="M 581 0 
L 581 641 
L 1222 641 
L 1222 0 
L 581 0 
z
" transform="scale(0.015625)"/>
       </defs>
       <use xlink:href="#ArialMT-30"/>
       <use xlink:href="#ArialMT-2e" x="55.615234"/>
       <use xlink:href="#ArialMT-30" x="83.398438"/>
      </g>
     </g>
    </g>
    <g id="ytick_2">
     <g id="text_10">
      <!-- 0.2 -->
      <g style="fill: #262626" transform="translate(18.82 157.530477) scale(0.12 -0.12)">
       <use xlink:href="#ArialMT-30"/>
       <use xlink:href="#ArialMT-2e" x="55.615234"/>
       <use xlink:href="#ArialMT-32" x="83.398438"/>
      </g>
     </g>
    </g>
    <g id="ytick_3">
     <g id="text_11">
      <!-- 0.4 -->
      <g style="fill: #262626" transform="translate(18.82 118.526266) scale(0.12 -0.12)">
       <use xlink:href="#ArialMT-30"/>
       <use xlink:href="#ArialMT-2e" x="55.615234"/>
       <use xlink:href="#ArialMT-34" x="83.398438"/>
      </g>
     </g>
    </g>
    <g id="ytick_4">
     <g id="text_12">
      <!-- 0.6 -->
      <g style="fill: #262626" transform="translate(18.82 79.522055) scale(0.12 -0.12)">
       <defs>
        <path id="ArialMT-36" d="M 3184 3459 
L 2625 3416 
Q 2550 3747 2413 3897 
Q 2184 4138 1850 4138 
Q 1581 4138 1378 3988 
Q 1113 3794 959 3422 
Q 806 3050 800 2363 
Q 1003 2672 1297 2822 
Q 1591 2972 1913 2972 
Q 2475 2972 2870 2558 
Q 3266 2144 3266 1488 
Q 3266 1056 3080 686 
Q 2894 316 2569 119 
Q 2244 -78 1831 -78 
Q 1128 -78 684 439 
Q 241 956 241 2144 
Q 241 3472 731 4075 
Q 1159 4600 1884 4600 
Q 2425 4600 2770 4297 
Q 3116 3994 3184 3459 
z
M 888 1484 
Q 888 1194 1011 928 
Q 1134 663 1356 523 
Q 1578 384 1822 384 
Q 2178 384 2434 671 
Q 2691 959 2691 1453 
Q 2691 1928 2437 2201 
Q 2184 2475 1800 2475 
Q 1419 2475 1153 2201 
Q 888 1928 888 1484 
z
" transform="scale(0.015625)"/>
       </defs>
       <use xlink:href="#ArialMT-30"/>
       <use xlink:href="#ArialMT-2e" x="55.615234"/>
       <use xlink:href="#ArialMT-36" x="83.398438"/>
      </g>
     </g>
    </g>
    <g id="ytick_5">
     <g id="text_13">
      <!-- 0.8 -->
      <g style="fill: #262626" transform="translate(18.82 40.517844) scale(0.12 -0.12)">
       <defs>
        <path id="ArialMT-38" d="M 1131 2484 
Q 781 2613 612 2850 
Q 444 3088 444 3419 
Q 444 3919 803 4259 
Q 1163 4600 1759 4600 
Q 2359 4600 2725 4251 
Q 3091 3903 3091 3403 
Q 3091 3084 2923 2848 
Q 2756 2613 2416 2484 
Q 2838 2347 3058 2040 
Q 3278 1734 3278 1309 
Q 3278 722 2862 322 
Q 2447 -78 1769 -78 
Q 1091 -78 675 323 
Q 259 725 259 1325 
Q 259 1772 486 2073 
Q 713 2375 1131 2484 
z
M 1019 3438 
Q 1019 3113 1228 2906 
Q 1438 2700 1772 2700 
Q 2097 2700 2305 2904 
Q 2513 3109 2513 3406 
Q 2513 3716 2298 3927 
Q 2084 4138 1766 4138 
Q 1444 4138 1231 3931 
Q 1019 3725 1019 3438 
z
M 838 1322 
Q 838 1081 952 856 
Q 1066 631 1291 507 
Q 1516 384 1775 384 
Q 2178 384 2440 643 
Q 2703 903 2703 1303 
Q 2703 1709 2433 1975 
Q 2163 2241 1756 2241 
Q 1359 2241 1098 1978 
Q 838 1716 838 1322 
z
" transform="scale(0.015625)"/>
       </defs>
       <use xlink:href="#ArialMT-30"/>
       <use xlink:href="#ArialMT-2e" x="55.615234"/>
       <use xlink:href="#ArialMT-38" x="83.398438"/>
      </g>
     </g>
    </g>
    <g id="text_14">
     <!-- Density -->
     <g style="fill: #262626" transform="translate(12.294375 129.08625) rotate(-90) scale(0.12 -0.12)">
      <defs>
       <path id="ArialMT-44" d="M 494 0 
L 494 4581 
L 2072 4581 
Q 2606 4581 2888 4516 
Q 3281 4425 3559 4188 
Q 3922 3881 4101 3404 
Q 4281 2928 4281 2316 
Q 4281 1794 4159 1391 
Q 4038 988 3847 723 
Q 3656 459 3429 307 
Q 3203 156 2883 78 
Q 2563 0 2147 0 
L 494 0 
z
M 1100 541 
L 2078 541 
Q 2531 541 2789 625 
Q 3047 709 3200 863 
Q 3416 1078 3536 1442 
Q 3656 1806 3656 2325 
Q 3656 3044 3420 3430 
Q 3184 3816 2847 3947 
Q 2603 4041 2063 4041 
L 1100 4041 
L 1100 541 
z
" transform="scale(0.015625)"/>
       <path id="ArialMT-6e" d="M 422 0 
L 422 3319 
L 928 3319 
L 928 2847 
Q 1294 3394 1984 3394 
Q 2284 3394 2536 3286 
Q 2788 3178 2913 3003 
Q 3038 2828 3088 2588 
Q 3119 2431 3119 2041 
L 3119 0 
L 2556 0 
L 2556 2019 
Q 2556 2363 2490 2533 
Q 2425 2703 2258 2804 
Q 2091 2906 1866 2906 
Q 1506 2906 1245 2678 
Q 984 2450 984 1813 
L 984 0 
L 422 0 
z
" transform="scale(0.015625)"/>
       <path id="ArialMT-69" d="M 425 3934 
L 425 4581 
L 988 4581 
L 988 3934 
L 425 3934 
z
M 425 0 
L 425 3319 
L 988 3319 
L 988 0 
L 425 0 
z
" transform="scale(0.015625)"/>
       <path id="ArialMT-74" d="M 1650 503 
L 1731 6 
Q 1494 -44 1306 -44 
Q 1000 -44 831 53 
Q 663 150 594 308 
Q 525 466 525 972 
L 525 2881 
L 113 2881 
L 113 3319 
L 525 3319 
L 525 4141 
L 1084 4478 
L 1084 3319 
L 1650 3319 
L 1650 2881 
L 1084 2881 
L 1084 941 
Q 1084 700 1114 631 
Q 1144 563 1211 522 
Q 1278 481 1403 481 
Q 1497 481 1650 503 
z
" transform="scale(0.015625)"/>
       <path id="ArialMT-79" d="M 397 -1278 
L 334 -750 
Q 519 -800 656 -800 
Q 844 -800 956 -737 
Q 1069 -675 1141 -563 
Q 1194 -478 1313 -144 
Q 1328 -97 1363 -6 
L 103 3319 
L 709 3319 
L 1400 1397 
Q 1534 1031 1641 628 
Q 1738 1016 1872 1384 
L 2581 3319 
L 3144 3319 
L 1881 -56 
Q 1678 -603 1566 -809 
Q 1416 -1088 1222 -1217 
Q 1028 -1347 759 -1347 
Q 597 -1347 397 -1278 
z
" transform="scale(0.015625)"/>
      </defs>
      <use xlink:href="#ArialMT-44"/>
      <use xlink:href="#ArialMT-65" x="72.216797"/>
      <use xlink:href="#ArialMT-6e" x="127.832031"/>
      <use xlink:href="#ArialMT-73" x="183.447266"/>
      <use xlink:href="#ArialMT-69" x="233.447266"/>
      <use xlink:href="#ArialMT-74" x="255.664062"/>
      <use xlink:href="#ArialMT-79" x="283.447266"/>
     </g>
    </g>
   </g>
   <g id="line2d_1">
    <path d="M 152.319229 191.71941 
L 154.406835 191.322563 
L 156.494442 190.676894 
L 157.886179 190.051569 
L 159.277917 189.221523 
L 160.669654 188.138263 
L 162.061391 186.748538 
L 163.453129 184.99621 
L 164.844866 182.824988 
L 166.236604 180.182008 
L 167.628341 177.02215 
L 169.020079 173.312871 
L 170.411816 169.039206 
L 171.803554 164.208461 
L 173.89116 155.998745 
L 175.978766 146.851521 
L 182.937453 115.144751 
L 185.025059 107.265046 
L 186.416797 102.840316 
L 187.808534 99.154405 
L 189.200272 96.220674 
L 190.592009 94.003479 
L 191.983747 92.419883 
L 193.375484 91.345468 
L 194.767221 90.62392 
L 198.942434 88.813939 
L 200.334171 87.78061 
L 201.725909 86.329461 
L 203.117646 84.407254 
L 204.509384 82.017304 
L 205.901121 79.221485 
L 208.684596 72.930737 
L 210.772202 68.339162 
L 212.16394 65.75157 
L 213.555677 63.80296 
L 214.251546 63.131888 
L 214.947414 62.69256 
L 215.643283 62.503643 
L 216.339152 62.580508 
L 217.035021 62.934913 
L 217.730889 63.574764 
L 218.426758 64.503945 
L 219.122627 65.722247 
L 219.818495 67.225363 
L 221.210233 71.048954 
L 222.60197 75.863714 
L 223.993708 81.506637 
L 226.081314 91.074043 
L 231.648264 117.641969 
L 233.73587 126.095555 
L 235.127607 130.920911 
L 236.519345 135.03961 
L 237.911082 138.448438 
L 239.30282 141.180257 
L 240.694557 143.297258 
L 242.086295 144.883515 
L 243.478032 146.037533 
L 244.86977 146.865335 
L 246.957376 147.729671 
L 250.436719 148.987523 
L 251.828457 149.670152 
L 253.220194 150.550091 
L 254.611932 151.668972 
L 256.003669 153.051746 
L 257.395407 154.706598 
L 258.787144 156.625483 
L 260.87475 159.94481 
L 263.658225 164.977123 
L 269.921044 176.703909 
L 272.00865 180.110055 
L 274.096256 183.063172 
L 276.183862 185.517145 
L 277.5756 186.874881 
L 278.967337 188.020812 
L 280.359074 188.970732 
L 282.446681 190.071633 
L 284.534287 190.849656 
L 286.621893 191.378384 
L 289.405368 191.808408 
L 290.797105 191.941475 
L 290.797105 191.941475 
" clip-path="url(#pe34cc90777)" style="fill: none; stroke: #5801a4; stroke-width: 1.5; stroke-linecap: round"/>
   </g>
   <g id="line2d_2">
    <path d="M 117.438893 192.176043 
L 120.685219 191.996371 
L 123.119963 191.657146 
L 124.743126 191.260401 
L 126.366289 190.673705 
L 127.989452 189.857546 
L 129.612615 188.792613 
L 131.235778 187.494744 
L 136.916848 182.445233 
L 138.540011 181.473042 
L 139.351592 181.16035 
L 140.163174 180.979344 
L 140.974755 180.936191 
L 141.786336 181.031778 
L 142.597918 181.261609 
L 144.221081 182.080755 
L 145.844244 183.265937 
L 150.713732 187.290795 
L 152.336895 188.291618 
L 153.960058 188.987137 
L 155.583221 189.371762 
L 157.206384 189.472493 
L 158.829547 189.327597 
L 160.45271 188.965218 
L 162.075873 188.386254 
L 163.699036 187.554606 
L 165.322199 186.396346 
L 166.945361 184.807319 
L 168.568524 182.666608 
L 170.191687 179.851991 
L 171.81485 176.253678 
L 173.438013 171.784529 
L 175.061176 166.387562 
L 176.684339 160.043254 
L 178.307502 152.778562 
L 179.930665 144.676661 
L 182.365409 131.2891 
L 188.858061 94.012595 
L 191.292805 81.866235 
L 192.915968 74.882476 
L 194.539131 68.960615 
L 196.162294 64.198642 
L 196.973875 62.264779 
L 197.785457 60.623521 
L 198.597038 59.261307 
L 199.408619 58.155962 
L 200.220201 57.276281 
L 201.843364 56.025484 
L 205.08969 54.031307 
L 205.901271 53.300613 
L 206.712852 52.378612 
L 207.524434 51.235415 
L 208.336015 49.857696 
L 209.959178 46.44252 
L 214.017086 36.682814 
L 214.828667 35.263904 
L 215.640248 34.281422 
L 216.45183 33.839999 
L 217.263411 34.030278 
L 218.074993 34.923634 
L 218.886574 36.56794 
L 219.698156 38.984688 
L 220.509737 42.16768 
L 221.321319 46.083351 
L 222.944482 55.854675 
L 224.567644 67.590056 
L 230.248715 111.462974 
L 231.871877 122.01513 
L 233.49504 131.172014 
L 235.118203 139.014192 
L 236.741366 145.730102 
L 238.364529 151.530663 
L 239.987692 156.589289 
L 241.610855 161.015967 
L 243.234018 164.862038 
L 244.857181 168.144655 
L 246.480344 170.877542 
L 248.103506 173.096679 
L 249.726669 174.873888 
L 251.349832 176.316067 
L 253.784577 178.133351 
L 257.030902 180.526072 
L 259.465647 182.576921 
L 265.146717 187.642129 
L 266.76988 188.845561 
L 268.393043 189.843038 
L 270.016206 190.623207 
L 271.639369 191.19936 
L 274.074113 191.748663 
L 276.508857 192.032011 
L 278.943602 192.161175 
L 278.943602 192.161175 
" clip-path="url(#pe34cc90777)" style="fill: none; stroke: #7701a8; stroke-width: 1.5; stroke-linecap: round"/>
   </g>
   <g id="line2d_3">
    <path d="M 103.90875 192.22582 
L 109.052447 192.088832 
L 112.481579 191.751676 
L 115.053427 191.269412 
L 117.625276 190.576906 
L 123.626255 188.747161 
L 125.340821 188.435712 
L 127.055387 188.312936 
L 129.627235 188.449349 
L 133.913649 188.838866 
L 136.485498 188.741014 
L 142.486478 188.212313 
L 145.915609 188.087378 
L 147.630175 187.790459 
L 149.34474 187.145877 
L 151.059306 186.056498 
L 152.773872 184.495527 
L 154.488437 182.51433 
L 157.060286 179.033744 
L 160.489417 174.342656 
L 162.203983 172.302652 
L 163.918548 170.542908 
L 166.490397 168.30631 
L 169.062245 166.137099 
L 170.776811 164.418493 
L 172.491377 162.254114 
L 174.205942 159.471304 
L 175.920508 155.938378 
L 177.635074 151.580598 
L 179.349639 146.394965 
L 181.064205 140.461384 
L 183.636054 130.527496 
L 191.351599 99.649583 
L 194.78073 87.310724 
L 198.209862 75.907064 
L 205.068124 53.904042 
L 206.78269 48.900134 
L 208.497256 44.579975 
L 209.354538 42.772049 
L 210.211821 41.246898 
L 211.069104 40.037515 
L 211.926387 39.174314 
L 212.78367 38.685196 
L 213.640953 38.595601 
L 214.498235 38.928389 
L 215.355518 39.703386 
L 216.212801 40.936553 
L 217.070084 42.638729 
L 217.927367 44.814059 
L 218.78465 47.458244 
L 219.641932 50.556899 
L 221.356498 58.002871 
L 223.071064 66.807392 
L 226.500195 86.450037 
L 229.072044 100.938562 
L 231.643892 114.027584 
L 234.215741 125.570363 
L 236.787589 135.904226 
L 239.359438 145.354256 
L 241.931286 153.931632 
L 243.645852 159.027485 
L 245.360417 163.503666 
L 247.074983 167.303588 
L 248.789549 170.455889 
L 250.504114 173.0825 
L 253.075963 176.452001 
L 261.648791 187.143576 
L 263.363357 188.80534 
L 265.077922 190.085535 
L 266.792488 190.986855 
L 268.507054 191.566064 
L 270.221619 191.905636 
L 272.793468 192.139921 
L 274.508034 192.199691 
L 274.508034 192.199691 
" clip-path="url(#pe34cc90777)" style="fill: none; stroke: #920fa3; stroke-width: 1.5; stroke-linecap: round"/>
   </g>
   <g id="line2d_4">
    <path d="M 82.192585 192.237485 
L 90.134823 192.113152 
L 98.077062 191.855858 
L 103.750089 192.072775 
L 108.288511 192.143121 
L 112.826933 191.971239 
L 118.499961 191.525281 
L 128.71141 190.529379 
L 134.384438 190.397843 
L 136.653649 190.118971 
L 146.865098 188.25677 
L 149.134309 187.452735 
L 151.40352 186.356095 
L 154.807337 184.394463 
L 157.076548 182.818131 
L 159.345759 180.779159 
L 161.61497 178.140962 
L 167.287997 170.767357 
L 169.557208 168.517814 
L 172.961025 165.501267 
L 174.09563 164.314822 
L 175.230236 162.919248 
L 176.364841 161.248131 
L 177.499447 159.23711 
L 178.634052 156.825307 
L 179.768658 153.960927 
L 180.903263 150.610134 
L 182.037869 146.766134 
L 184.30708 137.733709 
L 186.576291 127.407749 
L 192.249318 100.798918 
L 194.518529 91.405135 
L 196.78774 83.1273 
L 199.056951 75.698337 
L 202.460767 65.468976 
L 204.729978 59.503252 
L 205.864584 56.967387 
L 206.999189 54.808511 
L 208.133795 53.067338 
L 209.2684 51.773044 
L 210.403006 50.948807 
L 211.537611 50.614462 
L 212.672217 50.784372 
L 213.806822 51.461942 
L 214.941428 52.634059 
L 216.076033 54.268562 
L 217.210639 56.316141 
L 218.345244 58.716294 
L 220.614455 64.327047 
L 222.883666 70.70142 
L 225.152877 77.640537 
L 229.691299 92.576429 
L 234.229721 107.824244 
L 236.498932 116.230775 
L 238.768143 125.605956 
L 242.17196 139.901917 
L 243.306565 144.130221 
L 244.441171 147.9202 
L 245.575776 151.260871 
L 246.710382 154.195477 
L 248.979593 159.162228 
L 252.383409 165.522346 
L 259.191042 177.695224 
L 261.460253 181.298745 
L 263.729464 184.311865 
L 264.86407 185.564892 
L 265.998675 186.644539 
L 267.133281 187.552599 
L 268.267886 188.29518 
L 269.402492 188.884537 
L 271.671703 189.690937 
L 275.075519 190.417422 
L 280.748547 191.420125 
L 284.152363 191.7228 
L 288.690785 191.80748 
L 295.498418 191.949347 
L 304.575262 192.222726 
L 307.979078 192.237663 
L 307.979078 192.237663 
" clip-path="url(#pe34cc90777)" style="fill: none; stroke: #ac2694; stroke-width: 1.5; stroke-linecap: round"/>
   </g>
   <g id="line2d_5">
    <path d="M 82.240263 192.238367 
L 90.298281 192.120021 
L 96.054007 191.999229 
L 109.867751 192.01228 
L 131.739512 191.126268 
L 135.192948 190.866786 
L 138.646384 190.346368 
L 145.553256 189.049612 
L 147.855547 188.270476 
L 152.460128 186.215322 
L 157.064709 184.119903 
L 158.215854 183.402603 
L 159.367 182.519959 
L 160.518145 181.457472 
L 162.820436 178.875498 
L 172.029598 167.478852 
L 173.180744 165.743338 
L 174.331889 163.800454 
L 176.63418 159.250306 
L 178.93647 153.741326 
L 181.238761 147.092031 
L 183.541051 139.30464 
L 191.599069 109.944706 
L 193.901359 102.775075 
L 199.657086 85.983238 
L 201.959377 78.744476 
L 203.110522 75.503604 
L 204.261667 72.77069 
L 205.412813 70.631108 
L 206.563958 69.060197 
L 207.715103 67.951039 
L 208.866248 67.165386 
L 210.017394 66.584456 
L 211.168539 66.143572 
L 212.319684 65.846055 
L 213.47083 65.758682 
L 214.621975 65.990986 
L 215.77312 66.659286 
L 216.924266 67.840694 
L 218.075411 69.53229 
L 219.226556 71.636806 
L 230.73801 95.393243 
L 235.342591 105.64166 
L 236.493736 108.515663 
L 237.644881 111.697127 
L 239.947172 119.072772 
L 245.702899 139.521203 
L 246.854044 142.984017 
L 248.005189 146.049667 
L 249.156335 148.733494 
L 251.458625 153.269639 
L 254.912061 159.594975 
L 260.667788 170.750532 
L 262.970078 174.452847 
L 265.272369 177.474294 
L 267.57466 179.835367 
L 269.87695 181.695724 
L 273.330386 184.089777 
L 275.632677 185.500415 
L 277.934968 186.655322 
L 280.237258 187.555558 
L 283.690694 188.598442 
L 288.295275 189.662982 
L 292.899857 190.489159 
L 304.41131 192.068766 
L 307.864746 192.211972 
L 311.318182 192.237713 
L 311.318182 192.237713 
" clip-path="url(#pe34cc90777)" style="fill: none; stroke: #c23c81; stroke-width: 1.5; stroke-linecap: round"/>
   </g>
   <g id="line2d_6">
    <path d="M 76.2165 192.239729 
L 91.509974 192.146535 
L 99.744921 192.07832 
L 111.509131 192.029685 
L 127.979026 191.505748 
L 142.096078 190.321714 
L 144.44892 189.873796 
L 146.801762 189.166412 
L 156.21313 185.724655 
L 158.565972 184.465309 
L 160.918815 182.836236 
L 164.448078 179.990597 
L 166.80092 177.813423 
L 169.153762 175.341505 
L 171.506604 172.447937 
L 173.859446 168.90697 
L 176.212288 164.558438 
L 178.56513 159.417421 
L 182.094393 150.7914 
L 184.447235 144.568095 
L 186.800077 137.594033 
L 191.505761 122.919839 
L 193.858603 116.698533 
L 196.211445 111.380273 
L 198.564288 106.185941 
L 200.91713 100.391192 
L 203.269972 94.517692 
L 204.446393 91.976049 
L 205.622814 89.8666 
L 206.799235 88.199578 
L 207.975656 86.893757 
L 210.328498 84.876754 
L 212.68134 83.238383 
L 213.857761 82.634686 
L 215.034182 82.273318 
L 216.210603 82.215681 
L 217.387024 82.49533 
L 218.563445 83.110562 
L 219.739866 84.022406 
L 222.092708 86.457608 
L 226.798392 91.810192 
L 229.151234 93.884285 
L 232.680497 96.500491 
L 233.856918 97.558247 
L 235.03334 98.875331 
L 236.209761 100.564887 
L 237.386182 102.730482 
L 238.562603 105.424994 
L 239.739024 108.605215 
L 244.444708 122.47959 
L 246.79755 128.174303 
L 249.150392 133.125951 
L 251.503234 137.425785 
L 257.385339 146.986137 
L 260.914602 153.878413 
L 263.267444 158.409805 
L 265.620286 162.446365 
L 266.796707 164.201294 
L 267.973128 165.751613 
L 270.32597 168.310449 
L 272.678813 170.63451 
L 275.031655 173.284857 
L 277.384497 176.039595 
L 278.560918 177.257123 
L 279.737339 178.312624 
L 282.090181 180.015994 
L 287.972286 183.597074 
L 290.325128 184.797452 
L 296.207233 187.332172 
L 298.560075 188.829776 
L 300.912917 190.377396 
L 302.089338 191.008549 
L 303.265759 191.490803 
L 304.44218 191.822836 
L 306.795022 192.142563 
L 310.324286 192.234839 
L 310.324286 192.234839 
" clip-path="url(#pe34cc90777)" style="fill: none; stroke: #d45270; stroke-width: 1.5; stroke-linecap: round"/>
   </g>
   <g id="line2d_7">
    <path d="M 76.362198 192.239793 
L 93.947419 192.128729 
L 102.153855 192.10769 
L 113.877336 192.039724 
L 122.083772 191.837122 
L 125.600817 191.730587 
L 130.290209 191.278326 
L 136.151949 190.755527 
L 140.841341 190.374205 
L 144.358386 189.839052 
L 147.87543 189.0112 
L 154.909518 186.971436 
L 157.254214 186.016128 
L 159.59891 184.754737 
L 161.943607 183.232004 
L 164.288303 181.43099 
L 166.632999 179.318594 
L 170.150043 175.815343 
L 172.494739 173.280782 
L 174.839435 170.270819 
L 177.184131 166.589656 
L 179.528828 162.342885 
L 183.045872 155.359873 
L 185.390568 150.254695 
L 195.9417 126.113961 
L 198.286397 121.405397 
L 202.975789 112.622726 
L 205.320485 108.780412 
L 207.665181 105.637481 
L 210.009877 102.921589 
L 212.354573 100.516605 
L 214.699269 98.558034 
L 217.043966 97.057776 
L 218.216314 96.499162 
L 219.388662 96.090751 
L 220.56101 95.835497 
L 221.733358 95.720444 
L 224.078054 95.814256 
L 226.42275 96.177447 
L 228.767446 96.817349 
L 229.939794 97.32201 
L 231.112142 97.976132 
L 233.456838 99.642252 
L 235.801535 101.713074 
L 236.973883 103.009539 
L 238.146231 104.561402 
L 240.490927 108.354166 
L 242.835623 112.324084 
L 245.180319 115.815441 
L 248.697363 121.026704 
L 253.386755 128.256767 
L 256.9038 133.427134 
L 259.248496 137.307488 
L 263.937888 145.360132 
L 266.282584 148.74074 
L 268.62728 151.504828 
L 270.971976 154.025094 
L 273.316673 157.00053 
L 276.833717 162.11059 
L 279.178413 164.984316 
L 281.523109 167.369938 
L 285.040153 170.461774 
L 290.901894 175.258864 
L 294.418938 177.826842 
L 295.591286 178.899545 
L 296.763634 180.242674 
L 297.935982 181.902079 
L 302.625374 189.428246 
L 303.797722 190.631789 
L 304.97007 191.415206 
L 306.142418 191.862585 
L 307.314766 192.086504 
L 309.659463 192.222373 
L 309.659463 192.222373 
" clip-path="url(#pe34cc90777)" style="fill: none; stroke: #e4695e; stroke-width: 1.5; stroke-linecap: round"/>
   </g>
   <g id="line2d_8">
    <path d="M 57.681818 192.239924 
L 96.836652 192.125973 
L 115.78254 191.952971 
L 122.097836 191.818437 
L 127.150072 191.687294 
L 141.043723 190.607724 
L 144.832901 190.044021 
L 148.622078 189.162425 
L 154.937374 187.397593 
L 157.463492 186.389981 
L 161.25267 184.532532 
L 163.778788 183.108801 
L 166.304907 181.371743 
L 168.831025 179.305305 
L 172.620202 175.854762 
L 175.146321 173.124226 
L 177.672439 169.886034 
L 181.461617 164.516748 
L 183.987735 160.557269 
L 186.513853 155.991044 
L 192.829149 144.206213 
L 196.618327 137.223947 
L 202.933622 126.818396 
L 205.459741 122.91796 
L 207.985859 119.750911 
L 215.564214 110.727587 
L 216.827273 109.443262 
L 218.090332 108.320274 
L 219.353392 107.413324 
L 220.616451 106.722594 
L 229.457865 102.945853 
L 230.720924 102.703221 
L 231.983983 102.603935 
L 233.247042 102.636075 
L 234.510102 102.832105 
L 235.773161 103.256452 
L 237.03622 103.957988 
L 238.299279 104.934883 
L 240.825397 107.447522 
L 243.351516 110.026649 
L 248.403752 114.94919 
L 250.929871 117.352889 
L 253.455989 119.662142 
L 255.982107 122.307519 
L 258.508226 125.5201 
L 261.034344 129.301622 
L 263.560462 133.137193 
L 266.086581 136.415841 
L 268.612699 139.117074 
L 272.401877 142.986237 
L 274.927995 145.907691 
L 278.717172 150.491253 
L 282.50635 154.698001 
L 285.032468 157.202543 
L 293.873883 165.414543 
L 295.136942 167.034674 
L 296.400001 169.262225 
L 297.66306 172.31215 
L 298.926119 176.157086 
L 301.452238 184.474226 
L 302.715297 187.749615 
L 303.978356 189.981366 
L 305.241415 191.260459 
L 306.504474 191.876129 
L 307.767533 192.124792 
L 309.030593 192.209025 
L 309.030593 192.209025 
" clip-path="url(#pe34cc90777)" style="fill: none; stroke: #f1814d; stroke-width: 1.5; stroke-linecap: round"/>
   </g>
   <g id="line2d_9">
    <path d="M 58.168615 192.239948 
L 94.656095 192.135525 
L 109.754363 192.070118 
L 116.045308 191.941342 
L 131.143575 191.362595 
L 143.725465 190.262889 
L 148.758221 189.33181 
L 153.790977 188.164454 
L 156.307355 187.350826 
L 160.081922 185.756416 
L 163.856489 183.969396 
L 166.372867 182.523696 
L 168.889244 180.778476 
L 172.663811 177.909046 
L 175.180189 175.683496 
L 177.696567 173.090332 
L 182.729323 167.359054 
L 185.245701 164.169762 
L 190.278457 156.8631 
L 194.053024 151.31871 
L 197.827591 145.442356 
L 202.860347 138.353358 
L 205.376725 134.965027 
L 215.442236 122.752914 
L 217.958614 120.079646 
L 220.474992 117.907299 
L 229.282315 111.056771 
L 230.540504 110.325641 
L 231.798693 109.754537 
L 233.056882 109.346146 
L 234.315071 109.091686 
L 235.57326 108.987656 
L 236.831449 109.033219 
L 238.089638 109.219362 
L 240.606016 109.918895 
L 244.380582 111.112715 
L 246.89696 111.902545 
L 250.671527 113.42182 
L 253.187905 114.692495 
L 256.962472 116.880937 
L 259.47885 118.568168 
L 260.737039 119.607918 
L 263.253417 122.133567 
L 265.769795 124.813165 
L 269.544362 128.386492 
L 273.318929 131.600504 
L 275.835307 133.788087 
L 279.609874 137.526865 
L 283.38444 141.33241 
L 287.159007 144.639066 
L 290.933574 147.998059 
L 292.191763 149.27995 
L 293.449952 150.754916 
L 294.708141 152.626031 
L 295.96633 155.273967 
L 297.224519 159.177934 
L 298.482708 164.601254 
L 302.257275 183.863112 
L 303.515464 188.002793 
L 304.773653 190.419959 
L 306.031842 191.581407 
L 307.290031 192.040405 
L 308.54822 192.189557 
L 308.54822 192.189557 
" clip-path="url(#pe34cc90777)" style="fill: none; stroke: #fa9b3d; stroke-width: 1.5; stroke-linecap: round"/>
   </g>
   <g id="line2d_10">
    <path d="M 58.566678 192.239962 
L 94.938151 192.130822 
L 125.03868 191.681623 
L 130.055435 191.396313 
L 140.088945 190.585822 
L 143.851511 190.145372 
L 148.868265 189.249906 
L 152.630832 188.359258 
L 156.393398 187.237176 
L 161.410153 185.502136 
L 163.91853 184.482566 
L 166.426907 183.23519 
L 170.189474 180.97352 
L 173.95204 178.403925 
L 176.460417 176.440757 
L 178.968795 174.210972 
L 185.239738 168.200669 
L 187.748116 165.284976 
L 192.76487 159.302535 
L 195.273248 156.174774 
L 200.290003 149.738131 
L 206.560946 142.169853 
L 210.323512 137.898608 
L 216.594456 130.562379 
L 219.102833 128.006246 
L 226.627966 121.264241 
L 229.136343 118.963106 
L 230.390532 117.965949 
L 232.898909 116.380704 
L 235.407287 115.225534 
L 237.915664 114.472758 
L 244.186608 113.156788 
L 245.440796 113.000431 
L 247.949174 113.011506 
L 255.474306 113.471524 
L 257.982683 114.068893 
L 260.491061 114.923488 
L 262.999438 116.086255 
L 270.524571 119.939782 
L 273.032948 121.148637 
L 274.287137 121.906658 
L 276.795514 123.895374 
L 279.303892 125.981955 
L 281.812269 127.821959 
L 285.574835 130.281101 
L 289.337401 132.729163 
L 291.845779 134.767913 
L 293.099967 136.022444 
L 294.354156 137.673936 
L 295.608345 140.253909 
L 296.862534 144.563778 
L 298.116722 151.26202 
L 299.370911 160.195341 
L 300.6251 170.067366 
L 301.879288 178.977068 
L 303.133477 185.503679 
L 304.387666 189.373203 
L 305.641854 191.227549 
L 306.896043 191.94534 
L 308.150232 192.169689 
L 308.150232 192.169689 
" clip-path="url(#pe34cc90777)" style="fill: none; stroke: #feb82c; stroke-width: 1.5; stroke-linecap: round"/>
   </g>
   <g id="line2d_11">
    <path d="M 58.898378 192.23997 
L 96.424029 192.132861 
L 113.936 191.92972 
L 131.447971 191.192859 
L 141.454811 190.322628 
L 145.207376 189.838145 
L 148.959941 189.194572 
L 152.712506 188.338589 
L 157.715927 186.879239 
L 162.719347 185.237336 
L 165.221057 184.195785 
L 168.973622 182.368474 
L 172.726187 180.244733 
L 175.227897 178.668818 
L 177.729607 176.841993 
L 186.485593 169.655212 
L 193.990723 162.048609 
L 200.244998 154.917568 
L 205.248418 149.573994 
L 209.000984 145.795134 
L 217.756969 135.858466 
L 220.258679 133.393129 
L 231.516374 123.162851 
L 234.018085 121.302511 
L 236.519795 119.900018 
L 240.27236 118.119575 
L 244.024925 116.247844 
L 246.526635 115.42854 
L 255.28262 113.574109 
L 257.784331 113.301343 
L 260.286041 113.282593 
L 264.038606 113.478676 
L 266.540316 113.75794 
L 270.292881 114.319191 
L 272.794591 114.493696 
L 274.045446 114.737292 
L 275.296301 115.194042 
L 280.299721 117.506 
L 282.801432 118.492361 
L 285.303142 119.273671 
L 289.055707 120.396522 
L 290.306562 120.9497 
L 291.557417 121.669945 
L 292.808272 122.597314 
L 294.059127 123.903116 
L 295.309982 126.124875 
L 296.560837 130.292293 
L 297.811692 137.562623 
L 299.062547 148.257649 
L 301.564257 173.226311 
L 302.815112 182.509007 
L 304.065967 188.120711 
L 305.316822 190.813803 
L 306.567677 191.839373 
L 307.818533 192.14922 
L 307.818533 192.14922 
" clip-path="url(#pe34cc90777)" style="fill: none; stroke: #fad824; stroke-width: 1.5; stroke-linecap: round"/>
   </g>
   <g id="patch_3">
    <path d="M 45 192.24 
L 45 25.92 
" style="fill: none; stroke: #262626; stroke-width: 1.25; stroke-linejoin: miter; stroke-linecap: square"/>
   </g>
   <g id="patch_4">
    <path d="M 324 192.24 
L 324 25.92 
" style="fill: none; stroke: #262626; stroke-width: 1.25; stroke-linejoin: miter; stroke-linecap: square"/>
   </g>
   <g id="patch_5">
    <path d="M 45 192.24 
L 324 192.24 
" style="fill: none; stroke: #262626; stroke-width: 1.25; stroke-linejoin: miter; stroke-linecap: square"/>
   </g>
   <g id="patch_6">
    <path d="M 45 25.92 
L 324 25.92 
" style="fill: none; stroke: #262626; stroke-width: 1.25; stroke-linejoin: miter; stroke-linecap: square"/>
   </g>
   <g id="legend_1">
    <g id="patch_7">
     <path d="M 352.565937 205.878281 
L 400 205.878281 
Q 402.2 205.878281 402.2 203.678281 
L 402.2 33.62 
Q 402.2 31.42 400 31.42 
L 352.565937 31.42 
Q 350.365937 31.42 350.365937 33.62 
L 350.365937 203.678281 
Q 350.365937 205.878281 352.565937 205.878281 
z
" style="fill: #ffffff; opacity: 0.8; stroke: #cccccc; stroke-linejoin: miter"/>
    </g>
    <g id="line2d_12">
     <path d="M 354.765937 39.843594 
L 361 39.843594 
" style="fill: none; stroke: #5801a4; stroke-width: 1.5; stroke-linecap: round"/>
    </g>
    <g id="text_15">
     <!-- 24 -->
     <g style="fill: #262626" transform="translate(385.565937 43.693594) scale(0.11 -0.11)">
      <use xlink:href="#ArialMT-32"/>
      <use xlink:href="#ArialMT-34" x="55.615234"/>
     </g>
    </g>
    <g id="line2d_13">
     <path d="M 354.765937 55.403437 
L 361 55.403437 
" style="fill: none; stroke: #7701a8; stroke-width: 1.5; stroke-linecap: round"/>
    </g>
    <g id="text_16">
     <!-- 25 -->
     <g style="fill: #262626" transform="translate(385.565937 59.253437) scale(0.11 -0.11)">
      <use xlink:href="#ArialMT-32"/>
      <use xlink:href="#ArialMT-35" x="55.615234"/>
     </g>
    </g>
    <g id="line2d_14">
     <path d="M 354.765937 70.963281 
L 361 70.963281 
" style="fill: none; stroke: #920fa3; stroke-width: 1.5; stroke-linecap: round"/>
    </g>
    <g id="text_17">
     <!-- 26 -->
     <g style="fill: #262626" transform="translate(385.565937 74.813281) scale(0.11 -0.11)">
      <use xlink:href="#ArialMT-32"/>
      <use xlink:href="#ArialMT-36" x="55.615234"/>
     </g>
    </g>
    <g id="line2d_15">
     <path d="M 354.765937 86.523125 
L 361 86.523125 
" style="fill: none; stroke: #ac2694; stroke-width: 1.5; stroke-linecap: round"/>
    </g>
    <g id="text_18">
     <!-- 27 -->
     <g style="fill: #262626" transform="translate(385.565937 90.373125) scale(0.11 -0.11)">
      <defs>
       <path id="ArialMT-37" d="M 303 3981 
L 303 4522 
L 3269 4522 
L 3269 4084 
Q 2831 3619 2401 2847 
Q 1972 2075 1738 1259 
Q 1569 684 1522 0 
L 944 0 
Q 953 541 1156 1306 
Q 1359 2072 1739 2783 
Q 2119 3494 2547 3981 
L 303 3981 
z
" transform="scale(0.015625)"/>
      </defs>
      <use xlink:href="#ArialMT-32"/>
      <use xlink:href="#ArialMT-37" x="55.615234"/>
     </g>
    </g>
    <g id="line2d_16">
     <path d="M 354.765937 102.082969 
L 361 102.082969 
" style="fill: none; stroke: #c23c81; stroke-width: 1.5; stroke-linecap: round"/>
    </g>
    <g id="text_19">
     <!-- 28 -->
     <g style="fill: #262626" transform="translate(385.565937 105.932969) scale(0.11 -0.11)">
      <use xlink:href="#ArialMT-32"/>
      <use xlink:href="#ArialMT-38" x="55.615234"/>
     </g>
    </g>
    <g id="line2d_17">
     <path d="M 354.765937 117.642813 
L 361 117.642813 
" style="fill: none; stroke: #d45270; stroke-width: 1.5; stroke-linecap: round"/>
    </g>
    <g id="text_20">
     <!-- 29 -->
     <g style="fill: #262626" transform="translate(385.565937 121.492812) scale(0.11 -0.11)">
      <use xlink:href="#ArialMT-32"/>
      <use xlink:href="#ArialMT-39" x="55.615234"/>
     </g>
    </g>
    <g id="line2d_18">
     <path d="M 354.765937 133.202656 
L 361 133.202656 
" style="fill: none; stroke: #e4695e; stroke-width: 1.5; stroke-linecap: round"/>
    </g>
    <g id="text_21">
     <!-- 30 -->
     <g style="fill: #262626" transform="translate(385.565937 137.052656) scale(0.11 -0.11)">
      <use xlink:href="#ArialMT-33"/>
      <use xlink:href="#ArialMT-30" x="55.615234"/>
     </g>
    </g>
    <g id="line2d_19">
     <path d="M 354.765937 148.7625 
L 361 148.7625 
" style="fill: none; stroke: #f1814d; stroke-width: 1.5; stroke-linecap: round"/>
    </g>
    <g id="text_22">
     <!-- 31 -->
     <g style="fill: #262626" transform="translate(385.565937 152.6125) scale(0.11 -0.11)">
      <use xlink:href="#ArialMT-33"/>
      <use xlink:href="#ArialMT-31" x="55.615234"/>
     </g>
    </g>
    <g id="line2d_20">
     <path d="M 354.765937 164.322344 
L 361 164.322344 
" style="fill: none; stroke: #fa9b3d; stroke-width: 1.5; stroke-linecap: round"/>
    </g>
    <g id="text_23">
     <!-- 32 -->
     <g style="fill: #262626" transform="translate(385.565937 168.172344) scale(0.11 -0.11)">
      <use xlink:href="#ArialMT-33"/>
      <use xlink:href="#ArialMT-32" x="55.615234"/>
     </g>
    </g>
    <g id="line2d_21">
     <path d="M 354.765937 179.882188 
L 361 179.882188 
" style="fill: none; stroke: #feb82c; stroke-width: 1.5; stroke-linecap: round"/>
    </g>
    <g id="text_24">
     <!-- 33 -->
     <g style="fill: #262626" transform="translate(385.565937 183.732188) scale(0.11 -0.11)">
      <use xlink:href="#ArialMT-33"/>
      <use xlink:href="#ArialMT-33" x="55.615234"/>
     </g>
    </g>
    <g id="line2d_22">
     <path d="M 354.765937 195.442031 
L 361 195.442031 
" style="fill: none; stroke: #fad824; stroke-width: 1.5; stroke-linecap: round"/>
    </g>
    <g id="text_25">
     <!-- 34 -->
     <g style="fill: #262626" transform="translate(385.565937 199.292031) scale(0.11 -0.11)">
      <use xlink:href="#ArialMT-33"/>
      <use xlink:href="#ArialMT-34" x="55.615234"/>
     </g>
    </g>
   </g>
  </g>
 </g>
 <defs>
  <clipPath id="pe34cc90777">
   <rect x="45" y="25.92" width="279" height="166.32"/>
  </clipPath>
 </defs>
</svg>
