<?xml version="1.0" encoding="utf-8" standalone="no"?>
<!DOCTYPE svg PUBLIC "-//W3C//DTD SVG 1.1//EN"
  "http://www.w3.org/Graphics/SVG/1.1/DTD/svg11.dtd">
<svg xmlns:xlink="http://www.w3.org/1999/xlink" width="360pt" height="216pt" viewBox="0 0 360 216" xmlns="http://www.w3.org/2000/svg" version="1.1">
 <metadata>
  <rdf:RDF xmlns:dc="http://purl.org/dc/elements/1.1/" xmlns:cc="http://creativecommons.org/ns#" xmlns:rdf="http://www.w3.org/1999/02/22-rdf-syntax-ns#">
   <cc:Work>
    <dc:type rdf:resource="http://purl.org/dc/dcmitype/StillImage"/>
    <dc:date>2023-10-03T21:30:01.183706</dc:date>
    <dc:format>image/svg+xml</dc:format>
    <dc:creator>
     <cc:Agent>
      <dc:title>Matplotlib v3.6.2, https://matplotlib.org/</dc:title>
     </cc:Agent>
    </dc:creator>
   </cc:Work>
  </rdf:RDF>
 </metadata>
 <defs>
  <style type="text/css">*{stroke-linejoin: round; stroke-linecap: butt}</style>
 </defs>
 <g id="figure_1">
  <g id="patch_1">
   <path d="M 0 216 
L 360 216 
L 360 0 
L 0 0 
z
" style="fill: #ffffff"/>
  </g>
  <g id="axes_1">
   <g id="patch_2">
    <path d="M 45 192.24 
L 324 192.24 
L 324 25.92 
L 45 25.92 
z
" style="fill: #ffffff"/>
   </g>
   <g id="matplotlib.axis_1">
    <g id="xtick_1">
     <g id="text_1">
      <!-- -12 -->
      <g style="fill: #262626" transform="translate(48.165115 210.329375) scale(0.12 -0.12)">
       <defs>
        <path id="ArialMT-2d" d="M 203 1375 
L 203 1941 
L 1931 1941 
L 1931 1375 
L 203 1375 
z
" transform="scale(0.015625)"/>
        <path id="ArialMT-31" d="M 2384 0 
L 1822 0 
L 1822 3584 
Q 1619 3391 1289 3197 
Q 959 3003 697 2906 
L 697 3450 
Q 1169 3672 1522 3987 
Q 1875 4303 2022 4600 
L 2384 4600 
L 2384 0 
z
" transform="scale(0.015625)"/>
        <path id="ArialMT-32" d="M 3222 541 
L 3222 0 
L 194 0 
Q 188 203 259 391 
Q 375 700 629 1000 
Q 884 1300 1366 1694 
Q 2113 2306 2375 2664 
Q 2638 3022 2638 3341 
Q 2638 3675 2398 3904 
Q 2159 4134 1775 4134 
Q 1369 4134 1125 3890 
Q 881 3647 878 3216 
L 300 3275 
Q 359 3922 746 4261 
Q 1134 4600 1788 4600 
Q 2447 4600 2831 4234 
Q 3216 3869 3216 3328 
Q 3216 3053 3103 2787 
Q 2991 2522 2730 2228 
Q 2469 1934 1863 1422 
Q 1356 997 1212 845 
Q 1069 694 975 541 
L 3222 541 
z
" transform="scale(0.015625)"/>
       </defs>
       <use xlink:href="#ArialMT-2d"/>
       <use xlink:href="#ArialMT-31" x="33.300781"/>
       <use xlink:href="#ArialMT-32" x="88.916016"/>
      </g>
     </g>
    </g>
    <g id="xtick_2">
     <g id="text_2">
      <!-- -11 -->
      <g style="fill: #262626" transform="translate(83.731493 210.329375) scale(0.12 -0.12)">
       <use xlink:href="#ArialMT-2d"/>
       <use xlink:href="#ArialMT-31" x="33.300781"/>
       <use xlink:href="#ArialMT-31" x="81.541016"/>
      </g>
     </g>
    </g>
    <g id="xtick_3">
     <g id="text_3">
      <!-- -10 -->
      <g style="fill: #262626" transform="translate(118.412871 210.329375) scale(0.12 -0.12)">
       <defs>
        <path id="ArialMT-30" d="M 266 2259 
Q 266 3072 433 3567 
Q 600 4063 929 4331 
Q 1259 4600 1759 4600 
Q 2128 4600 2406 4451 
Q 2684 4303 2865 4023 
Q 3047 3744 3150 3342 
Q 3253 2941 3253 2259 
Q 3253 1453 3087 958 
Q 2922 463 2592 192 
Q 2263 -78 1759 -78 
Q 1097 -78 719 397 
Q 266 969 266 2259 
z
M 844 2259 
Q 844 1131 1108 757 
Q 1372 384 1759 384 
Q 2147 384 2411 759 
Q 2675 1134 2675 2259 
Q 2675 3391 2411 3762 
Q 2147 4134 1753 4134 
Q 1366 4134 1134 3806 
Q 844 3388 844 2259 
z
" transform="scale(0.015625)"/>
       </defs>
       <use xlink:href="#ArialMT-2d"/>
       <use xlink:href="#ArialMT-31" x="33.300781"/>
       <use xlink:href="#ArialMT-30" x="88.916016"/>
      </g>
     </g>
    </g>
    <g id="xtick_4">
     <g id="text_4">
      <!-- -9 -->
      <g style="fill: #262626" transform="translate(156.873312 210.329375) scale(0.12 -0.12)">
       <defs>
        <path id="ArialMT-39" d="M 350 1059 
L 891 1109 
Q 959 728 1153 556 
Q 1347 384 1650 384 
Q 1909 384 2104 503 
Q 2300 622 2425 820 
Q 2550 1019 2634 1356 
Q 2719 1694 2719 2044 
Q 2719 2081 2716 2156 
Q 2547 1888 2255 1720 
Q 1963 1553 1622 1553 
Q 1053 1553 659 1965 
Q 266 2378 266 3053 
Q 266 3750 677 4175 
Q 1088 4600 1706 4600 
Q 2153 4600 2523 4359 
Q 2894 4119 3086 3673 
Q 3278 3228 3278 2384 
Q 3278 1506 3087 986 
Q 2897 466 2520 194 
Q 2144 -78 1638 -78 
Q 1100 -78 759 220 
Q 419 519 350 1059 
z
M 2653 3081 
Q 2653 3566 2395 3850 
Q 2138 4134 1775 4134 
Q 1400 4134 1122 3828 
Q 844 3522 844 3034 
Q 844 2597 1108 2323 
Q 1372 2050 1759 2050 
Q 2150 2050 2401 2323 
Q 2653 2597 2653 3081 
z
" transform="scale(0.015625)"/>
       </defs>
       <use xlink:href="#ArialMT-2d"/>
       <use xlink:href="#ArialMT-39" x="33.300781"/>
      </g>
     </g>
    </g>
    <g id="xtick_5">
     <g id="text_5">
      <!-- -8 -->
      <g style="fill: #262626" transform="translate(191.99719 210.329375) scale(0.12 -0.12)">
       <defs>
        <path id="ArialMT-38" d="M 1131 2484 
Q 781 2613 612 2850 
Q 444 3088 444 3419 
Q 444 3919 803 4259 
Q 1163 4600 1759 4600 
Q 2359 4600 2725 4251 
Q 3091 3903 3091 3403 
Q 3091 3084 2923 2848 
Q 2756 2613 2416 2484 
Q 2838 2347 3058 2040 
Q 3278 1734 3278 1309 
Q 3278 722 2862 322 
Q 2447 -78 1769 -78 
Q 1091 -78 675 323 
Q 259 725 259 1325 
Q 259 1772 486 2073 
Q 713 2375 1131 2484 
z
M 1019 3438 
Q 1019 3113 1228 2906 
Q 1438 2700 1772 2700 
Q 2097 2700 2305 2904 
Q 2513 3109 2513 3406 
Q 2513 3716 2298 3927 
Q 2084 4138 1766 4138 
Q 1444 4138 1231 3931 
Q 1019 3725 1019 3438 
z
M 838 1322 
Q 838 1081 952 856 
Q 1066 631 1291 507 
Q 1516 384 1775 384 
Q 2178 384 2440 643 
Q 2703 903 2703 1303 
Q 2703 1709 2433 1975 
Q 2163 2241 1756 2241 
Q 1359 2241 1098 1978 
Q 838 1716 838 1322 
z
" transform="scale(0.015625)"/>
       </defs>
       <use xlink:href="#ArialMT-2d"/>
       <use xlink:href="#ArialMT-38" x="33.300781"/>
      </g>
     </g>
    </g>
    <g id="xtick_6">
     <g id="text_6">
      <!-- -7 -->
      <g style="fill: #262626" transform="translate(227.121068 210.329375) scale(0.12 -0.12)">
       <defs>
        <path id="ArialMT-37" d="M 303 3981 
L 303 4522 
L 3269 4522 
L 3269 4084 
Q 2831 3619 2401 2847 
Q 1972 2075 1738 1259 
Q 1569 684 1522 0 
L 944 0 
Q 953 541 1156 1306 
Q 1359 2072 1739 2783 
Q 2119 3494 2547 3981 
L 303 3981 
z
" transform="scale(0.015625)"/>
       </defs>
       <use xlink:href="#ArialMT-2d"/>
       <use xlink:href="#ArialMT-37" x="33.300781"/>
      </g>
     </g>
    </g>
    <g id="xtick_7">
     <g id="text_7">
      <!-- -6 -->
      <g style="fill: #262626" transform="translate(262.244946 210.329375) scale(0.12 -0.12)">
       <defs>
        <path id="ArialMT-36" d="M 3184 3459 
L 2625 3416 
Q 2550 3747 2413 3897 
Q 2184 4138 1850 4138 
Q 1581 4138 1378 3988 
Q 1113 3794 959 3422 
Q 806 3050 800 2363 
Q 1003 2672 1297 2822 
Q 1591 2972 1913 2972 
Q 2475 2972 2870 2558 
Q 3266 2144 3266 1488 
Q 3266 1056 3080 686 
Q 2894 316 2569 119 
Q 2244 -78 1831 -78 
Q 1128 -78 684 439 
Q 241 956 241 2144 
Q 241 3472 731 4075 
Q 1159 4600 1884 4600 
Q 2425 4600 2770 4297 
Q 3116 3994 3184 3459 
z
M 888 1484 
Q 888 1194 1011 928 
Q 1134 663 1356 523 
Q 1578 384 1822 384 
Q 2178 384 2434 671 
Q 2691 959 2691 1453 
Q 2691 1928 2437 2201 
Q 2184 2475 1800 2475 
Q 1419 2475 1153 2201 
Q 888 1928 888 1484 
z
" transform="scale(0.015625)"/>
       </defs>
       <use xlink:href="#ArialMT-2d"/>
       <use xlink:href="#ArialMT-36" x="33.300781"/>
      </g>
     </g>
    </g>
    <g id="xtick_8">
     <g id="text_8">
      <!-- -5 -->
      <g style="fill: #262626" transform="translate(297.368824 210.329375) scale(0.12 -0.12)">
       <defs>
        <path id="ArialMT-35" d="M 266 1200 
L 856 1250 
Q 922 819 1161 601 
Q 1400 384 1738 384 
Q 2144 384 2425 690 
Q 2706 997 2706 1503 
Q 2706 1984 2436 2262 
Q 2166 2541 1728 2541 
Q 1456 2541 1237 2417 
Q 1019 2294 894 2097 
L 366 2166 
L 809 4519 
L 3088 4519 
L 3088 3981 
L 1259 3981 
L 1013 2750 
Q 1425 3038 1878 3038 
Q 2478 3038 2890 2622 
Q 3303 2206 3303 1553 
Q 3303 931 2941 478 
Q 2500 -78 1738 -78 
Q 1113 -78 717 272 
Q 322 622 266 1200 
z
" transform="scale(0.015625)"/>
       </defs>
       <use xlink:href="#ArialMT-2d"/>
       <use xlink:href="#ArialMT-35" x="33.300781"/>
      </g>
     </g>
    </g>
    <g id="text_9">
     <!-- score -->
     <g style="fill: #262626" transform="translate(169.829062 225.30375) scale(0.12 -0.12)">
      <defs>
       <path id="ArialMT-73" d="M 197 991 
L 753 1078 
Q 800 744 1014 566 
Q 1228 388 1613 388 
Q 2000 388 2187 545 
Q 2375 703 2375 916 
Q 2375 1106 2209 1216 
Q 2094 1291 1634 1406 
Q 1016 1563 777 1677 
Q 538 1791 414 1992 
Q 291 2194 291 2438 
Q 291 2659 392 2848 
Q 494 3038 669 3163 
Q 800 3259 1026 3326 
Q 1253 3394 1513 3394 
Q 1903 3394 2198 3281 
Q 2494 3169 2634 2976 
Q 2775 2784 2828 2463 
L 2278 2388 
Q 2241 2644 2061 2787 
Q 1881 2931 1553 2931 
Q 1166 2931 1000 2803 
Q 834 2675 834 2503 
Q 834 2394 903 2306 
Q 972 2216 1119 2156 
Q 1203 2125 1616 2013 
Q 2213 1853 2448 1751 
Q 2684 1650 2818 1456 
Q 2953 1263 2953 975 
Q 2953 694 2789 445 
Q 2625 197 2315 61 
Q 2006 -75 1616 -75 
Q 969 -75 630 194 
Q 291 463 197 991 
z
" transform="scale(0.015625)"/>
       <path id="ArialMT-63" d="M 2588 1216 
L 3141 1144 
Q 3050 572 2676 248 
Q 2303 -75 1759 -75 
Q 1078 -75 664 370 
Q 250 816 250 1647 
Q 250 2184 428 2587 
Q 606 2991 970 3192 
Q 1334 3394 1763 3394 
Q 2303 3394 2647 3120 
Q 2991 2847 3088 2344 
L 2541 2259 
Q 2463 2594 2264 2762 
Q 2066 2931 1784 2931 
Q 1359 2931 1093 2626 
Q 828 2322 828 1663 
Q 828 994 1084 691 
Q 1341 388 1753 388 
Q 2084 388 2306 591 
Q 2528 794 2588 1216 
z
" transform="scale(0.015625)"/>
       <path id="ArialMT-6f" d="M 213 1659 
Q 213 2581 725 3025 
Q 1153 3394 1769 3394 
Q 2453 3394 2887 2945 
Q 3322 2497 3322 1706 
Q 3322 1066 3130 698 
Q 2938 331 2570 128 
Q 2203 -75 1769 -75 
Q 1072 -75 642 372 
Q 213 819 213 1659 
z
M 791 1659 
Q 791 1022 1069 705 
Q 1347 388 1769 388 
Q 2188 388 2466 706 
Q 2744 1025 2744 1678 
Q 2744 2294 2464 2611 
Q 2184 2928 1769 2928 
Q 1347 2928 1069 2612 
Q 791 2297 791 1659 
z
" transform="scale(0.015625)"/>
       <path id="ArialMT-72" d="M 416 0 
L 416 3319 
L 922 3319 
L 922 2816 
Q 1116 3169 1280 3281 
Q 1444 3394 1641 3394 
Q 1925 3394 2219 3213 
L 2025 2691 
Q 1819 2813 1613 2813 
Q 1428 2813 1281 2702 
Q 1134 2591 1072 2394 
Q 978 2094 978 1738 
L 978 0 
L 416 0 
z
" transform="scale(0.015625)"/>
       <path id="ArialMT-65" d="M 2694 1069 
L 3275 997 
Q 3138 488 2766 206 
Q 2394 -75 1816 -75 
Q 1088 -75 661 373 
Q 234 822 234 1631 
Q 234 2469 665 2931 
Q 1097 3394 1784 3394 
Q 2450 3394 2872 2941 
Q 3294 2488 3294 1666 
Q 3294 1616 3291 1516 
L 816 1516 
Q 847 969 1125 678 
Q 1403 388 1819 388 
Q 2128 388 2347 550 
Q 2566 713 2694 1069 
z
M 847 1978 
L 2700 1978 
Q 2663 2397 2488 2606 
Q 2219 2931 1791 2931 
Q 1403 2931 1139 2672 
Q 875 2413 847 1978 
z
" transform="scale(0.015625)"/>
      </defs>
      <use xlink:href="#ArialMT-73"/>
      <use xlink:href="#ArialMT-63" x="50"/>
      <use xlink:href="#ArialMT-6f" x="100"/>
      <use xlink:href="#ArialMT-72" x="155.615234"/>
      <use xlink:href="#ArialMT-65" x="188.916016"/>
     </g>
    </g>
   </g>
   <g id="matplotlib.axis_2">
    <g id="ytick_1">
     <g id="text_10">
      <!-- 0.0 -->
      <g style="fill: #262626" transform="translate(20.21 196.176797) scale(0.11 -0.11)">
       <defs>
        <path id="ArialMT-2e" d="M 581 0 
L 581 641 
L 1222 641 
L 1222 0 
L 581 0 
z
" transform="scale(0.015625)"/>
       </defs>
       <use xlink:href="#ArialMT-30"/>
       <use xlink:href="#ArialMT-2e" x="55.615234"/>
       <use xlink:href="#ArialMT-30" x="83.398438"/>
      </g>
     </g>
    </g>
    <g id="ytick_2">
     <g id="text_11">
      <!-- 0.2 -->
      <g style="fill: #262626" transform="translate(20.21 161.727571) scale(0.11 -0.11)">
       <use xlink:href="#ArialMT-30"/>
       <use xlink:href="#ArialMT-2e" x="55.615234"/>
       <use xlink:href="#ArialMT-32" x="83.398438"/>
      </g>
     </g>
    </g>
    <g id="ytick_3">
     <g id="text_12">
      <!-- 0.4 -->
      <g style="fill: #262626" transform="translate(20.21 127.278346) scale(0.11 -0.11)">
       <defs>
        <path id="ArialMT-34" d="M 2069 0 
L 2069 1097 
L 81 1097 
L 81 1613 
L 2172 4581 
L 2631 4581 
L 2631 1613 
L 3250 1613 
L 3250 1097 
L 2631 1097 
L 2631 0 
L 2069 0 
z
M 2069 1613 
L 2069 3678 
L 634 1613 
L 2069 1613 
z
" transform="scale(0.015625)"/>
       </defs>
       <use xlink:href="#ArialMT-30"/>
       <use xlink:href="#ArialMT-2e" x="55.615234"/>
       <use xlink:href="#ArialMT-34" x="83.398438"/>
      </g>
     </g>
    </g>
    <g id="ytick_4">
     <g id="text_13">
      <!-- 0.6 -->
      <g style="fill: #262626" transform="translate(20.21 92.82912) scale(0.11 -0.11)">
       <use xlink:href="#ArialMT-30"/>
       <use xlink:href="#ArialMT-2e" x="55.615234"/>
       <use xlink:href="#ArialMT-36" x="83.398438"/>
      </g>
     </g>
    </g>
    <g id="ytick_5">
     <g id="text_14">
      <!-- 0.8 -->
      <g style="fill: #262626" transform="translate(20.21 58.379895) scale(0.11 -0.11)">
       <use xlink:href="#ArialMT-30"/>
       <use xlink:href="#ArialMT-2e" x="55.615234"/>
       <use xlink:href="#ArialMT-38" x="83.398438"/>
      </g>
     </g>
    </g>
    <g id="text_15">
     <!-- Density -->
     <g style="fill: #262626" transform="translate(13.684375 129.08625) rotate(-90) scale(0.12 -0.12)">
      <defs>
       <path id="ArialMT-44" d="M 494 0 
L 494 4581 
L 2072 4581 
Q 2606 4581 2888 4516 
Q 3281 4425 3559 4188 
Q 3922 3881 4101 3404 
Q 4281 2928 4281 2316 
Q 4281 1794 4159 1391 
Q 4038 988 3847 723 
Q 3656 459 3429 307 
Q 3203 156 2883 78 
Q 2563 0 2147 0 
L 494 0 
z
M 1100 541 
L 2078 541 
Q 2531 541 2789 625 
Q 3047 709 3200 863 
Q 3416 1078 3536 1442 
Q 3656 1806 3656 2325 
Q 3656 3044 3420 3430 
Q 3184 3816 2847 3947 
Q 2603 4041 2063 4041 
L 1100 4041 
L 1100 541 
z
" transform="scale(0.015625)"/>
       <path id="ArialMT-6e" d="M 422 0 
L 422 3319 
L 928 3319 
L 928 2847 
Q 1294 3394 1984 3394 
Q 2284 3394 2536 3286 
Q 2788 3178 2913 3003 
Q 3038 2828 3088 2588 
Q 3119 2431 3119 2041 
L 3119 0 
L 2556 0 
L 2556 2019 
Q 2556 2363 2490 2533 
Q 2425 2703 2258 2804 
Q 2091 2906 1866 2906 
Q 1506 2906 1245 2678 
Q 984 2450 984 1813 
L 984 0 
L 422 0 
z
" transform="scale(0.015625)"/>
       <path id="ArialMT-69" d="M 425 3934 
L 425 4581 
L 988 4581 
L 988 3934 
L 425 3934 
z
M 425 0 
L 425 3319 
L 988 3319 
L 988 0 
L 425 0 
z
" transform="scale(0.015625)"/>
       <path id="ArialMT-74" d="M 1650 503 
L 1731 6 
Q 1494 -44 1306 -44 
Q 1000 -44 831 53 
Q 663 150 594 308 
Q 525 466 525 972 
L 525 2881 
L 113 2881 
L 113 3319 
L 525 3319 
L 525 4141 
L 1084 4478 
L 1084 3319 
L 1650 3319 
L 1650 2881 
L 1084 2881 
L 1084 941 
Q 1084 700 1114 631 
Q 1144 563 1211 522 
Q 1278 481 1403 481 
Q 1497 481 1650 503 
z
" transform="scale(0.015625)"/>
       <path id="ArialMT-79" d="M 397 -1278 
L 334 -750 
Q 519 -800 656 -800 
Q 844 -800 956 -737 
Q 1069 -675 1141 -563 
Q 1194 -478 1313 -144 
Q 1328 -97 1363 -6 
L 103 3319 
L 709 3319 
L 1400 1397 
Q 1534 1031 1641 628 
Q 1738 1016 1872 1384 
L 2581 3319 
L 3144 3319 
L 1881 -56 
Q 1678 -603 1566 -809 
Q 1416 -1088 1222 -1217 
Q 1028 -1347 759 -1347 
Q 597 -1347 397 -1278 
z
" transform="scale(0.015625)"/>
      </defs>
      <use xlink:href="#ArialMT-44"/>
      <use xlink:href="#ArialMT-65" x="72.216797"/>
      <use xlink:href="#ArialMT-6e" x="127.832031"/>
      <use xlink:href="#ArialMT-73" x="183.447266"/>
      <use xlink:href="#ArialMT-69" x="233.447266"/>
      <use xlink:href="#ArialMT-74" x="255.664062"/>
      <use xlink:href="#ArialMT-79" x="283.447266"/>
     </g>
    </g>
   </g>
   <g id="line2d_1">
    <path d="M 108.529177 192.037938 
L 111.451974 191.709097 
L 113.790211 191.182549 
L 115.543889 190.551479 
L 117.297567 189.653956 
L 119.051245 188.440571 
L 120.804924 186.883646 
L 122.558602 184.990944 
L 124.896839 182.042695 
L 131.326992 173.495101 
L 136.588026 167.207569 
L 137.757145 165.390726 
L 138.926264 163.16563 
L 140.095382 160.400647 
L 141.264501 156.979118 
L 142.43362 152.814956 
L 143.602738 147.867535 
L 144.771857 142.154031 
L 146.525535 132.347239 
L 152.371129 97.697584 
L 153.540248 92.482548 
L 154.709366 88.406584 
L 155.293926 86.836092 
L 155.878485 85.587279 
L 156.463044 84.659995 
L 157.047604 84.047871 
L 157.632163 83.738447 
L 158.216722 83.71345 
L 158.801282 83.949232 
L 159.385841 84.417347 
L 160.55496 85.917134 
L 161.724079 87.918459 
L 164.062316 92.163591 
L 165.231435 93.823765 
L 165.815994 94.434383 
L 166.400553 94.870646 
L 166.985113 95.117881 
L 167.569672 95.166733 
L 168.154232 95.013187 
L 168.738791 94.658464 
L 169.32335 94.108773 
L 170.492469 92.472064 
L 171.661588 90.236779 
L 173.415266 86.168471 
L 176.338063 79.257681 
L 177.507181 77.036422 
L 178.6763 75.368128 
L 179.260859 74.77757 
L 179.845419 74.363871 
L 180.429978 74.13497 
L 181.014537 74.096632 
L 181.599097 74.252634 
L 182.183656 74.604952 
L 182.768215 75.153973 
L 183.352775 75.898695 
L 184.521894 77.965474 
L 185.691012 80.776541 
L 186.860131 84.291249 
L 188.02925 88.459729 
L 189.782928 95.808794 
L 191.536606 104.262952 
L 193.874843 116.760222 
L 199.720437 149.028976 
L 201.474115 157.586301 
L 203.227793 165.164495 
L 204.981471 171.641927 
L 206.735149 176.989659 
L 207.904268 179.949031 
L 209.073387 182.456795 
L 210.242505 184.550707 
L 211.411624 186.273571 
L 212.580743 187.670505 
L 213.749861 188.786648 
L 214.91898 189.665356 
L 216.672658 190.625247 
L 218.426336 191.259346 
L 220.180014 191.663896 
L 222.518252 191.971293 
L 224.856489 192.12234 
L 224.856489 192.12234 
" clip-path="url(#pde685870f1)" style="fill: none; stroke: #5801a4; stroke-width: 1.5; stroke-linecap: round"/>
   </g>
   <g id="line2d_2">
    <path d="M 102.500539 192.21195 
L 106.399307 192.063346 
L 108.998486 191.74708 
L 110.947869 191.277074 
L 112.897253 190.506185 
L 114.196843 189.782414 
L 115.496432 188.869539 
L 116.796021 187.761067 
L 118.745405 185.751217 
L 120.694789 183.408227 
L 125.893146 176.94813 
L 127.192735 175.69811 
L 128.492324 174.766812 
L 129.791914 174.232783 
L 130.441708 174.13401 
L 131.091503 174.153982 
L 131.741298 174.29464 
L 133.040887 174.931514 
L 134.340476 176.000106 
L 135.640065 177.404003 
L 139.538833 181.978922 
L 140.838422 182.919202 
L 141.488217 183.149743 
L 142.138012 183.182948 
L 142.787806 182.992549 
L 143.437601 182.554704 
L 144.087396 181.848832 
L 144.73719 180.85852 
L 145.386985 179.572457 
L 146.036779 177.985363 
L 147.336369 173.921821 
L 148.635958 168.772076 
L 150.585342 159.534663 
L 154.48411 139.928597 
L 156.433494 131.498778 
L 158.382877 124.205505 
L 162.93144 107.917668 
L 165.530618 97.417824 
L 170.728975 75.142392 
L 173.977948 60.174048 
L 176.577127 48.059589 
L 177.876716 42.690948 
L 179.176306 38.304643 
L 179.8261 36.599161 
L 180.475895 35.272679 
L 181.125689 34.356682 
L 181.775484 33.874315 
L 182.425279 33.839999 
L 183.075073 34.25956 
L 183.724868 35.130814 
L 184.374663 36.444514 
L 185.024457 38.185556 
L 185.674252 40.33433 
L 186.973841 45.762187 
L 188.27343 52.53001 
L 189.57302 60.438935 
L 191.522403 74.037591 
L 194.121582 94.459723 
L 198.670144 131.427379 
L 200.619528 145.340361 
L 201.919118 153.358862 
L 203.218707 160.224517 
L 204.518296 165.920476 
L 205.817885 170.521992 
L 207.117475 174.175124 
L 208.417064 177.065942 
L 209.716653 179.387643 
L 211.016242 181.312564 
L 212.965626 183.734683 
L 214.91501 185.811555 
L 216.864394 187.613942 
L 218.813778 189.114953 
L 220.763162 190.277093 
L 222.712546 191.100994 
L 224.66193 191.632269 
L 226.611313 191.942909 
L 229.210492 192.140654 
L 231.80967 192.211876 
L 231.80967 192.211876 
" clip-path="url(#pde685870f1)" style="fill: none; stroke: #7701a8; stroke-width: 1.5; stroke-linecap: round"/>
   </g>
   <g id="line2d_3">
    <path d="M 107.033579 192.230679 
L 111.396627 192.112901 
L 113.578152 191.89291 
L 115.759676 191.449214 
L 117.9412 190.704178 
L 120.122725 189.63035 
L 122.304249 188.252564 
L 125.212948 186.055798 
L 128.848822 183.274088 
L 130.303172 182.460748 
L 131.757521 181.997887 
L 133.211871 181.955262 
L 134.66622 182.3219 
L 136.12057 183.004892 
L 140.483619 185.440695 
L 141.937968 185.885723 
L 142.665143 185.967089 
L 143.392318 185.93566 
L 144.119493 185.778432 
L 144.846667 185.483418 
L 145.573842 185.039878 
L 146.301017 184.438634 
L 147.028192 183.672503 
L 148.482541 181.630593 
L 149.936891 178.923729 
L 151.39124 175.643264 
L 153.572765 170.050834 
L 157.935814 158.220527 
L 159.390163 153.691186 
L 160.844513 148.373822 
L 162.298862 142.171171 
L 167.389086 118.877156 
L 169.57061 110.944545 
L 171.752134 103.24653 
L 173.206484 97.196157 
L 174.660834 89.940794 
L 176.115183 81.532662 
L 180.478232 55.169765 
L 181.932581 48.472346 
L 182.659756 45.837178 
L 183.386931 43.718454 
L 184.114106 42.12326 
L 184.841281 41.041567 
L 185.568455 40.449091 
L 186.29563 40.311292 
L 187.022805 40.588187 
L 187.74998 41.239435 
L 188.477154 42.22902 
L 189.204329 43.528797 
L 189.931504 45.120331 
L 191.385854 49.150438 
L 192.840203 54.31433 
L 194.294553 60.598227 
L 195.748902 67.868799 
L 198.657601 84.135089 
L 201.566301 100.216101 
L 203.747825 110.945142 
L 206.656524 123.717207 
L 209.565223 136.776923 
L 212.473922 151.307656 
L 214.655447 162.048815 
L 216.109796 168.405353 
L 217.564146 173.819682 
L 219.018495 178.232248 
L 220.472845 181.721182 
L 221.927194 184.430598 
L 223.381544 186.510123 
L 224.835894 188.08614 
L 226.290243 189.259465 
L 227.744593 190.112382 
L 229.198942 190.712804 
L 230.653292 191.114719 
L 232.834816 191.436298 
L 235.743515 191.542905 
L 240.106564 191.659367 
L 249.559836 192.214064 
L 251.741361 192.233176 
L 251.741361 192.233176 
" clip-path="url(#pde685870f1)" style="fill: none; stroke: #920fa3; stroke-width: 1.5; stroke-linecap: round"/>
   </g>
   <g id="line2d_4">
    <path d="M 77.009672 192.238007 
L 85.165902 192.132564 
L 91.283074 192.074602 
L 97.400246 192.098846 
L 102.497889 191.829446 
L 106.576004 191.654951 
L 114.732234 191.60842 
L 116.771291 191.274814 
L 119.829877 190.443456 
L 122.888463 189.594625 
L 125.947049 189.007734 
L 136.142336 187.386795 
L 139.200922 186.948269 
L 141.23998 186.402834 
L 143.279037 185.545842 
L 144.298566 184.955847 
L 145.318094 184.229624 
L 146.337623 183.349537 
L 147.357152 182.30627 
L 149.396209 179.753887 
L 158.571967 166.604806 
L 159.591496 164.728421 
L 160.611025 162.448912 
L 161.630553 159.696489 
L 162.650082 156.447356 
L 164.689139 148.59767 
L 167.747725 134.831681 
L 170.806311 121.126057 
L 174.884426 104.123047 
L 177.943012 92.108516 
L 179.98207 85.513765 
L 181.001598 82.825533 
L 182.021127 80.506237 
L 184.060184 76.638801 
L 186.099242 73.307737 
L 188.138299 70.426082 
L 189.157828 69.299766 
L 190.177356 68.513023 
L 191.196885 68.171491 
L 192.216414 68.366068 
L 193.235943 69.153481 
L 194.255471 70.540539 
L 195.275 72.478088 
L 196.294529 74.868433 
L 198.333586 80.498038 
L 207.509344 107.611093 
L 209.548402 114.501351 
L 213.626516 129.627295 
L 215.665574 136.908322 
L 217.704631 143.526309 
L 220.763217 152.590063 
L 224.841332 164.100037 
L 226.880389 169.079649 
L 227.899918 171.205269 
L 228.919447 173.068971 
L 230.958504 176.104946 
L 232.997561 178.533447 
L 237.075676 182.904858 
L 239.114733 184.876295 
L 241.153791 186.386229 
L 242.173319 186.923773 
L 244.212377 187.640402 
L 249.31002 188.965162 
L 253.388135 190.237672 
L 255.427192 190.661954 
L 258.485778 191.020622 
L 272.75918 192.133692 
L 278.876352 192.235686 
L 279.895881 192.237916 
L 279.895881 192.237916 
" clip-path="url(#pde685870f1)" style="fill: none; stroke: #ac2694; stroke-width: 1.5; stroke-linecap: round"/>
   </g>
   <g id="line2d_5">
    <path d="M 77.581058 192.239423 
L 92.829901 192.132786 
L 98.694841 191.905837 
L 105.732769 191.613967 
L 111.597709 191.644558 
L 115.116673 191.637313 
L 118.635637 191.403335 
L 123.327588 190.820451 
L 126.846552 190.217276 
L 133.88448 188.716411 
L 137.403444 188.243923 
L 139.74942 187.631832 
L 140.922408 187.160874 
L 142.095396 186.564473 
L 143.268384 185.83138 
L 144.441372 184.946412 
L 145.61436 183.893918 
L 146.787348 182.667069 
L 149.133324 179.769123 
L 152.652287 175.201666 
L 154.998263 172.671701 
L 157.344239 170.322307 
L 158.517227 168.93906 
L 159.690215 167.25797 
L 160.863203 165.207738 
L 162.036191 162.778377 
L 164.382167 157.014544 
L 170.247107 140.995259 
L 173.766071 130.847786 
L 177.285035 120.16612 
L 178.458023 116.987104 
L 179.63101 114.222679 
L 180.803998 111.912592 
L 181.976986 110.003144 
L 184.322962 106.847987 
L 186.668938 103.650253 
L 191.36089 96.733574 
L 192.533878 95.570753 
L 193.706866 94.904894 
L 194.879854 94.794138 
L 196.052842 95.227311 
L 197.22583 96.129005 
L 198.398818 97.375531 
L 203.09077 102.982823 
L 205.436746 105.04328 
L 207.782722 106.959426 
L 208.955709 108.107089 
L 210.128697 109.467905 
L 211.301685 111.053313 
L 213.647661 114.794329 
L 215.993637 119.039005 
L 220.685589 128.055898 
L 223.031565 132.868089 
L 226.550529 140.717114 
L 230.069493 148.558124 
L 235.934433 160.926023 
L 238.280408 165.581553 
L 240.626384 169.67743 
L 242.97236 173.150796 
L 245.318336 176.10692 
L 247.664312 178.503885 
L 248.8373 179.454345 
L 250.010288 180.237747 
L 252.356264 181.384643 
L 258.221204 183.590131 
L 260.56718 184.907461 
L 265.259132 187.748807 
L 267.605107 188.81577 
L 269.951083 189.501708 
L 272.297059 189.853173 
L 279.334987 190.548425 
L 285.199927 191.412723 
L 289.891879 191.777719 
L 296.929806 192.135176 
L 308.659686 192.237088 
L 311.005662 192.239424 
L 311.005662 192.239424 
" clip-path="url(#pde685870f1)" style="fill: none; stroke: #c23c81; stroke-width: 1.5; stroke-linecap: round"/>
   </g>
   <g id="line2d_6">
    <path d="M 74.554766 192.239795 
L 88.831957 192.138853 
L 104.298914 191.830056 
L 110.247743 191.621092 
L 116.196573 191.43929 
L 119.765871 191.091156 
L 125.7147 190.216284 
L 131.66353 189.377329 
L 138.802125 188.735594 
L 141.181657 188.235075 
L 143.561189 187.390665 
L 144.750955 186.793996 
L 147.130487 185.224865 
L 150.699784 182.285229 
L 153.079316 180.37639 
L 157.83838 176.833466 
L 159.028146 175.77585 
L 160.217912 174.568644 
L 161.407677 173.194641 
L 163.787209 169.942741 
L 166.166741 166.107119 
L 169.736039 159.645774 
L 173.305337 152.589845 
L 176.874634 145.337557 
L 179.254166 141.177191 
L 181.633698 137.837213 
L 186.392762 131.726819 
L 189.962059 126.343649 
L 192.341591 122.902678 
L 193.531357 121.451444 
L 194.721123 120.249357 
L 195.910889 119.315921 
L 197.100655 118.646296 
L 198.290421 118.215181 
L 199.480187 117.979609 
L 201.859718 117.860488 
L 210.18808 117.939996 
L 213.757377 118.650495 
L 217.326675 119.451314 
L 219.706207 120.251687 
L 220.895973 120.838277 
L 222.085739 121.611495 
L 223.275505 122.609806 
L 224.465271 123.842863 
L 226.844802 126.856976 
L 249.450355 157.943281 
L 251.829886 160.429094 
L 258.968482 166.81265 
L 264.917311 172.857713 
L 267.296843 174.8325 
L 269.676375 176.436861 
L 280.384268 182.880743 
L 283.953566 184.707216 
L 287.522864 186.273986 
L 291.092161 187.488189 
L 294.661459 188.700228 
L 301.800055 191.454251 
L 304.179586 191.931805 
L 306.559118 192.148855 
L 311.318182 192.236975 
L 311.318182 192.236975 
" clip-path="url(#pde685870f1)" style="fill: none; stroke: #d45270; stroke-width: 1.5; stroke-linecap: round"/>
   </g>
   <g id="line2d_7">
    <path d="M 69.106954 192.23988 
L 88.53852 192.130762 
L 107.970087 191.869788 
L 118.900343 191.516928 
L 137.117436 189.823084 
L 140.760855 189.25808 
L 143.189801 188.665824 
L 145.618746 187.822428 
L 149.262165 186.188867 
L 156.549003 182.70112 
L 158.977948 181.264467 
L 161.406894 179.462002 
L 163.83584 177.242285 
L 166.264786 174.687471 
L 169.908204 170.481481 
L 172.33715 167.42242 
L 179.623988 157.735975 
L 182.052933 155.133319 
L 186.910825 150.134614 
L 195.412135 140.945279 
L 197.841081 138.886123 
L 200.270027 137.142635 
L 208.771337 131.80167 
L 211.200283 130.428593 
L 214.843702 128.639435 
L 217.272647 127.590605 
L 219.701593 126.771841 
L 220.916066 126.496057 
L 222.130539 126.350858 
L 223.345012 126.368824 
L 224.559485 126.56536 
L 225.773958 126.927943 
L 228.202903 127.989667 
L 234.275268 131.09407 
L 239.133159 133.891745 
L 241.562105 135.381087 
L 243.991051 137.126562 
L 250.063416 142.18564 
L 252.492361 143.718629 
L 254.921307 145.202996 
L 257.350253 147.090171 
L 259.779199 149.3993 
L 268.280509 157.764828 
L 270.709455 159.819915 
L 276.781819 164.494426 
L 285.283129 170.618446 
L 290.141021 174.792739 
L 293.78444 177.656565 
L 294.998913 178.815376 
L 296.213386 180.205138 
L 297.427858 181.843798 
L 301.071277 187.394893 
L 302.28575 188.967648 
L 303.500223 190.202346 
L 304.714696 191.07686 
L 305.929169 191.634224 
L 307.143642 191.953256 
L 309.572587 192.192336 
L 310.78706 192.223338 
L 310.78706 192.223338 
" clip-path="url(#pde685870f1)" style="fill: none; stroke: #e4695e; stroke-width: 1.5; stroke-linecap: round"/>
   </g>
   <g id="line2d_8">
    <path d="M 57.681818 192.239946 
L 98.238719 192.127239 
L 108.377944 191.987682 
L 121.051975 191.635584 
L 138.795619 190.47781 
L 142.597828 189.995611 
L 145.132635 189.457517 
L 148.934844 188.316039 
L 157.806666 185.485836 
L 160.341472 184.399606 
L 162.876279 182.98791 
L 165.411085 181.232106 
L 171.748101 176.450299 
L 174.282907 174.253825 
L 179.35252 169.443625 
L 183.154729 166.417519 
L 186.956938 163.234688 
L 195.82876 155.282451 
L 199.63097 152.411359 
L 204.700582 148.863351 
L 207.235389 146.755591 
L 209.770195 144.596374 
L 212.305001 142.730556 
L 217.374614 139.485634 
L 221.176823 137.311432 
L 223.711629 136.060553 
L 226.246436 135.141045 
L 230.048645 134.250258 
L 232.583451 133.742579 
L 235.118258 133.484369 
L 242.722676 133.575698 
L 245.257483 133.918205 
L 249.059692 134.671174 
L 255.396708 135.565506 
L 256.664111 136.01308 
L 264.26853 139.37795 
L 270.605545 141.850674 
L 273.140352 143.102054 
L 279.477367 146.654485 
L 282.012174 147.99789 
L 283.279577 148.846509 
L 284.54698 149.867017 
L 287.081786 152.316999 
L 293.418802 158.895504 
L 294.686205 160.831255 
L 295.953608 163.483056 
L 297.221011 167.017073 
L 298.488415 171.372917 
L 301.023221 180.944632 
L 302.290624 185.035858 
L 303.558027 188.119087 
L 304.82543 190.142163 
L 306.092833 191.295341 
L 307.360237 191.865504 
L 308.62764 192.109776 
L 309.895043 192.200394 
L 309.895043 192.200394 
" clip-path="url(#pde685870f1)" style="fill: none; stroke: #f1814d; stroke-width: 1.5; stroke-linecap: round"/>
   </g>
   <g id="line2d_9">
    <path d="M 58.575292 192.239962 
L 103.878714 192.134155 
L 121.496711 191.789282 
L 141.631565 190.732054 
L 145.40685 190.234991 
L 150.440564 189.166597 
L 156.732706 187.740021 
L 160.507991 186.639444 
L 163.024848 185.645066 
L 166.800133 183.720388 
L 173.092275 180.303166 
L 175.609132 178.567363 
L 179.384417 175.957239 
L 185.676559 172.215892 
L 190.710272 168.700459 
L 195.743986 165.153308 
L 202.036128 161.122354 
L 204.552985 159.464928 
L 207.069841 157.526717 
L 209.586698 155.502486 
L 212.103555 153.719905 
L 217.137268 150.253049 
L 222.170982 146.810669 
L 225.946267 144.488154 
L 229.721552 142.567089 
L 237.272123 138.8454 
L 241.047408 137.012582 
L 243.564265 136.095742 
L 252.373263 133.721538 
L 254.89012 132.859894 
L 257.406977 132.300026 
L 261.182262 131.697062 
L 266.215975 130.490552 
L 272.508117 129.399339 
L 275.024974 129.275378 
L 277.541831 129.411022 
L 282.575544 129.968861 
L 283.833973 130.272523 
L 285.092401 130.747084 
L 286.35083 131.399355 
L 288.867686 133.051199 
L 291.384543 134.826093 
L 292.642972 135.869477 
L 293.9014 137.376575 
L 295.159828 139.876153 
L 296.418257 143.995242 
L 297.676685 150.156939 
L 298.935114 158.197454 
L 301.45197 175.769233 
L 302.710399 182.687929 
L 303.968827 187.407997 
L 305.227255 190.125541 
L 306.485684 191.444604 
L 307.744112 191.984015 
L 309.002541 192.16977 
L 309.002541 192.16977 
" clip-path="url(#pde685870f1)" style="fill: none; stroke: #fa9b3d; stroke-width: 1.5; stroke-linecap: round"/>
   </g>
   <g id="line2d_10">
    <path d="M 59.353742 192.23997 
L 106.87673 192.126344 
L 125.635804 191.758641 
L 140.643063 191.186696 
L 144.394878 190.851971 
L 148.146692 190.265064 
L 159.402137 188.270295 
L 161.903347 187.625718 
L 164.404557 186.739854 
L 173.158791 183.201519 
L 176.910606 181.159082 
L 179.411816 179.88401 
L 184.414235 177.661733 
L 188.16605 175.550837 
L 198.17089 169.849169 
L 204.423914 166.581406 
L 206.925124 164.91172 
L 210.676939 162.18079 
L 219.431173 156.665771 
L 226.934803 151.680855 
L 233.187828 147.815878 
L 241.942062 141.869095 
L 245.693877 139.676372 
L 249.445692 137.380312 
L 251.946902 135.703523 
L 258.199926 131.192858 
L 260.701136 129.496132 
L 264.452951 126.803062 
L 271.956581 121.922769 
L 274.45779 120.128014 
L 276.959 118.644127 
L 284.46263 115.033171 
L 285.713235 114.667297 
L 286.96384 114.455021 
L 289.46505 114.382129 
L 291.966259 114.497716 
L 293.216864 114.860342 
L 294.467469 116.084325 
L 295.718074 119.172553 
L 296.968679 125.313816 
L 298.219284 135.193589 
L 301.971099 174.377262 
L 303.221704 183.192243 
L 304.472309 188.370289 
L 305.722914 190.854365 
L 306.973519 191.827226 
L 308.224124 192.13818 
L 308.224124 192.13818 
" clip-path="url(#pde685870f1)" style="fill: none; stroke: #feb82c; stroke-width: 1.5; stroke-linecap: round"/>
   </g>
   <g id="line2d_11">
    <path d="M 60.014718 192.239975 
L 108.529235 192.133319 
L 123.456778 191.917068 
L 140.872246 191.393912 
L 144.604131 191.133542 
L 150.823941 190.331681 
L 157.043751 189.498725 
L 162.019599 188.573736 
L 164.507523 187.874283 
L 173.215256 185.082497 
L 180.679028 181.975917 
L 184.410914 180.658235 
L 188.1428 178.923524 
L 200.582419 173.102567 
L 204.314305 171.463003 
L 206.802229 170.040351 
L 210.534115 167.593599 
L 220.485811 161.878722 
L 222.973735 160.209212 
L 226.70562 157.649587 
L 231.681468 154.63225 
L 236.657316 150.800079 
L 240.389202 147.792038 
L 242.877126 145.869103 
L 246.609012 143.244397 
L 250.340898 140.077531 
L 252.828821 137.826374 
L 262.780517 127.926345 
L 266.512403 123.861057 
L 269.000327 121.163516 
L 271.488251 118.113009 
L 275.220137 113.179039 
L 283.92787 103.128577 
L 285.171832 101.968172 
L 287.659756 100.120298 
L 290.14768 98.396582 
L 292.635604 96.243616 
L 293.879566 95.648704 
L 295.123528 96.627709 
L 296.36749 100.896064 
L 297.611452 110.309367 
L 298.855414 125.475425 
L 301.343338 162.92295 
L 302.5873 177.210921 
L 303.831262 185.897683 
L 305.075224 190.062231 
L 306.319185 191.63661 
L 307.563147 192.105913 
L 307.563147 192.105913 
" clip-path="url(#pde685870f1)" style="fill: none; stroke: #fad824; stroke-width: 1.5; stroke-linecap: round"/>
   </g>
   <g id="patch_3">
    <path d="M 45 192.24 
L 45 25.92 
" style="fill: none; stroke: #262626; stroke-width: 1.25; stroke-linejoin: miter; stroke-linecap: square"/>
   </g>
   <g id="patch_4">
    <path d="M 324 192.24 
L 324 25.92 
" style="fill: none; stroke: #262626; stroke-width: 1.25; stroke-linejoin: miter; stroke-linecap: square"/>
   </g>
   <g id="patch_5">
    <path d="M 45 192.24 
L 324 192.24 
" style="fill: none; stroke: #262626; stroke-width: 1.25; stroke-linejoin: miter; stroke-linecap: square"/>
   </g>
   <g id="patch_6">
    <path d="M 45 25.92 
L 324 25.92 
" style="fill: none; stroke: #262626; stroke-width: 1.25; stroke-linejoin: miter; stroke-linecap: square"/>
   </g>
   <g id="legend_1">
    <g id="patch_7">
     <path d="M 352.565937 205.878281 
L 400 205.878281 
Q 402.2 205.878281 402.2 203.678281 
L 402.2 33.62 
Q 402.2 31.42 400 31.42 
L 352.565937 31.42 
Q 350.365937 31.42 350.365937 33.62 
L 350.365937 203.678281 
Q 350.365937 205.878281 352.565937 205.878281 
z
" style="fill: #ffffff; opacity: 0.8; stroke: #cccccc; stroke-linejoin: miter"/>
    </g>
    <g id="line2d_12">
     <path d="M 354.765937 39.843594 
L 361 39.843594 
" style="fill: none; stroke: #5801a4; stroke-width: 1.5; stroke-linecap: round"/>
    </g>
    <g id="text_16">
     <!-- 24 -->
     <g style="fill: #262626" transform="translate(385.565937 43.693594) scale(0.11 -0.11)">
      <use xlink:href="#ArialMT-32"/>
      <use xlink:href="#ArialMT-34" x="55.615234"/>
     </g>
    </g>
    <g id="line2d_13">
     <path d="M 354.765937 55.403437 
L 361 55.403437 
" style="fill: none; stroke: #7701a8; stroke-width: 1.5; stroke-linecap: round"/>
    </g>
    <g id="text_17">
     <!-- 25 -->
     <g style="fill: #262626" transform="translate(385.565937 59.253437) scale(0.11 -0.11)">
      <use xlink:href="#ArialMT-32"/>
      <use xlink:href="#ArialMT-35" x="55.615234"/>
     </g>
    </g>
    <g id="line2d_14">
     <path d="M 354.765937 70.963281 
L 361 70.963281 
" style="fill: none; stroke: #920fa3; stroke-width: 1.5; stroke-linecap: round"/>
    </g>
    <g id="text_18">
     <!-- 26 -->
     <g style="fill: #262626" transform="translate(385.565937 74.813281) scale(0.11 -0.11)">
      <use xlink:href="#ArialMT-32"/>
      <use xlink:href="#ArialMT-36" x="55.615234"/>
     </g>
    </g>
    <g id="line2d_15">
     <path d="M 354.765937 86.523125 
L 361 86.523125 
" style="fill: none; stroke: #ac2694; stroke-width: 1.5; stroke-linecap: round"/>
    </g>
    <g id="text_19">
     <!-- 27 -->
     <g style="fill: #262626" transform="translate(385.565937 90.373125) scale(0.11 -0.11)">
      <use xlink:href="#ArialMT-32"/>
      <use xlink:href="#ArialMT-37" x="55.615234"/>
     </g>
    </g>
    <g id="line2d_16">
     <path d="M 354.765937 102.082969 
L 361 102.082969 
" style="fill: none; stroke: #c23c81; stroke-width: 1.5; stroke-linecap: round"/>
    </g>
    <g id="text_20">
     <!-- 28 -->
     <g style="fill: #262626" transform="translate(385.565937 105.932969) scale(0.11 -0.11)">
      <use xlink:href="#ArialMT-32"/>
      <use xlink:href="#ArialMT-38" x="55.615234"/>
     </g>
    </g>
    <g id="line2d_17">
     <path d="M 354.765937 117.642813 
L 361 117.642813 
" style="fill: none; stroke: #d45270; stroke-width: 1.5; stroke-linecap: round"/>
    </g>
    <g id="text_21">
     <!-- 29 -->
     <g style="fill: #262626" transform="translate(385.565937 121.492812) scale(0.11 -0.11)">
      <use xlink:href="#ArialMT-32"/>
      <use xlink:href="#ArialMT-39" x="55.615234"/>
     </g>
    </g>
    <g id="line2d_18">
     <path d="M 354.765937 133.202656 
L 361 133.202656 
" style="fill: none; stroke: #e4695e; stroke-width: 1.5; stroke-linecap: round"/>
    </g>
    <g id="text_22">
     <!-- 30 -->
     <g style="fill: #262626" transform="translate(385.565937 137.052656) scale(0.11 -0.11)">
      <defs>
       <path id="ArialMT-33" d="M 269 1209 
L 831 1284 
Q 928 806 1161 595 
Q 1394 384 1728 384 
Q 2125 384 2398 659 
Q 2672 934 2672 1341 
Q 2672 1728 2419 1979 
Q 2166 2231 1775 2231 
Q 1616 2231 1378 2169 
L 1441 2663 
Q 1497 2656 1531 2656 
Q 1891 2656 2178 2843 
Q 2466 3031 2466 3422 
Q 2466 3731 2256 3934 
Q 2047 4138 1716 4138 
Q 1388 4138 1169 3931 
Q 950 3725 888 3313 
L 325 3413 
Q 428 3978 793 4289 
Q 1159 4600 1703 4600 
Q 2078 4600 2393 4439 
Q 2709 4278 2876 4000 
Q 3044 3722 3044 3409 
Q 3044 3113 2884 2869 
Q 2725 2625 2413 2481 
Q 2819 2388 3044 2092 
Q 3269 1797 3269 1353 
Q 3269 753 2831 336 
Q 2394 -81 1725 -81 
Q 1122 -81 723 278 
Q 325 638 269 1209 
z
" transform="scale(0.015625)"/>
      </defs>
      <use xlink:href="#ArialMT-33"/>
      <use xlink:href="#ArialMT-30" x="55.615234"/>
     </g>
    </g>
    <g id="line2d_19">
     <path d="M 354.765937 148.7625 
L 361 148.7625 
" style="fill: none; stroke: #f1814d; stroke-width: 1.5; stroke-linecap: round"/>
    </g>
    <g id="text_23">
     <!-- 31 -->
     <g style="fill: #262626" transform="translate(385.565937 152.6125) scale(0.11 -0.11)">
      <use xlink:href="#ArialMT-33"/>
      <use xlink:href="#ArialMT-31" x="55.615234"/>
     </g>
    </g>
    <g id="line2d_20">
     <path d="M 354.765937 164.322344 
L 361 164.322344 
" style="fill: none; stroke: #fa9b3d; stroke-width: 1.5; stroke-linecap: round"/>
    </g>
    <g id="text_24">
     <!-- 32 -->
     <g style="fill: #262626" transform="translate(385.565937 168.172344) scale(0.11 -0.11)">
      <use xlink:href="#ArialMT-33"/>
      <use xlink:href="#ArialMT-32" x="55.615234"/>
     </g>
    </g>
    <g id="line2d_21">
     <path d="M 354.765937 179.882188 
L 361 179.882188 
" style="fill: none; stroke: #feb82c; stroke-width: 1.5; stroke-linecap: round"/>
    </g>
    <g id="text_25">
     <!-- 33 -->
     <g style="fill: #262626" transform="translate(385.565937 183.732188) scale(0.11 -0.11)">
      <use xlink:href="#ArialMT-33"/>
      <use xlink:href="#ArialMT-33" x="55.615234"/>
     </g>
    </g>
    <g id="line2d_22">
     <path d="M 354.765937 195.442031 
L 361 195.442031 
" style="fill: none; stroke: #fad824; stroke-width: 1.5; stroke-linecap: round"/>
    </g>
    <g id="text_26">
     <!-- 34 -->
     <g style="fill: #262626" transform="translate(385.565937 199.292031) scale(0.11 -0.11)">
      <use xlink:href="#ArialMT-33"/>
      <use xlink:href="#ArialMT-34" x="55.615234"/>
     </g>
    </g>
   </g>
  </g>
 </g>
 <defs>
  <clipPath id="pde685870f1">
   <rect x="45" y="25.92" width="279" height="166.32"/>
  </clipPath>
 </defs>
</svg>
