<?xml version="1.0" encoding="utf-8" standalone="no"?>
<!DOCTYPE svg PUBLIC "-//W3C//DTD SVG 1.1//EN"
  "http://www.w3.org/Graphics/SVG/1.1/DTD/svg11.dtd">
<svg xmlns:xlink="http://www.w3.org/1999/xlink" width="360pt" height="216pt" viewBox="0 0 360 216" xmlns="http://www.w3.org/2000/svg" version="1.1">
 <metadata>
  <rdf:RDF xmlns:dc="http://purl.org/dc/elements/1.1/" xmlns:cc="http://creativecommons.org/ns#" xmlns:rdf="http://www.w3.org/1999/02/22-rdf-syntax-ns#">
   <cc:Work>
    <dc:type rdf:resource="http://purl.org/dc/dcmitype/StillImage"/>
    <dc:date>2023-10-03T21:29:54.656245</dc:date>
    <dc:format>image/svg+xml</dc:format>
    <dc:creator>
     <cc:Agent>
      <dc:title>Matplotlib v3.6.2, https://matplotlib.org/</dc:title>
     </cc:Agent>
    </dc:creator>
   </cc:Work>
  </rdf:RDF>
 </metadata>
 <defs>
  <style type="text/css">*{stroke-linejoin: round; stroke-linecap: butt}</style>
 </defs>
 <g id="figure_1">
  <g id="patch_1">
   <path d="M 0 216 
L 360 216 
L 360 0 
L 0 0 
z
" style="fill: #ffffff"/>
  </g>
  <g id="axes_1">
   <g id="patch_2">
    <path d="M 45 192.24 
L 324 192.24 
L 324 25.92 
L 45 25.92 
z
" style="fill: #ffffff"/>
   </g>
   <g id="matplotlib.axis_1">
    <g id="xtick_1">
     <g id="text_1">
      <!-- −13 -->
      <g style="fill: #262626" transform="translate(57.740425 209.613594) scale(0.11 -0.11)">
       <defs>
        <path id="ArialMT-2212" d="M 3381 1997 
L 356 1997 
L 356 2522 
L 3381 2522 
L 3381 1997 
z
" transform="scale(0.015625)"/>
        <path id="ArialMT-31" d="M 2384 0 
L 1822 0 
L 1822 3584 
Q 1619 3391 1289 3197 
Q 959 3003 697 2906 
L 697 3450 
Q 1169 3672 1522 3987 
Q 1875 4303 2022 4600 
L 2384 4600 
L 2384 0 
z
" transform="scale(0.015625)"/>
        <path id="ArialMT-33" d="M 269 1209 
L 831 1284 
Q 928 806 1161 595 
Q 1394 384 1728 384 
Q 2125 384 2398 659 
Q 2672 934 2672 1341 
Q 2672 1728 2419 1979 
Q 2166 2231 1775 2231 
Q 1616 2231 1378 2169 
L 1441 2663 
Q 1497 2656 1531 2656 
Q 1891 2656 2178 2843 
Q 2466 3031 2466 3422 
Q 2466 3731 2256 3934 
Q 2047 4138 1716 4138 
Q 1388 4138 1169 3931 
Q 950 3725 888 3313 
L 325 3413 
Q 428 3978 793 4289 
Q 1159 4600 1703 4600 
Q 2078 4600 2393 4439 
Q 2709 4278 2876 4000 
Q 3044 3722 3044 3409 
Q 3044 3113 2884 2869 
Q 2725 2625 2413 2481 
Q 2819 2388 3044 2092 
Q 3269 1797 3269 1353 
Q 3269 753 2831 336 
Q 2394 -81 1725 -81 
Q 1122 -81 723 278 
Q 325 638 269 1209 
z
" transform="scale(0.015625)"/>
       </defs>
       <use xlink:href="#ArialMT-2212"/>
       <use xlink:href="#ArialMT-31" x="58.398438"/>
       <use xlink:href="#ArialMT-33" x="114.013672"/>
      </g>
     </g>
    </g>
    <g id="xtick_2">
     <g id="text_2">
      <!-- −12 -->
      <g style="fill: #262626" transform="translate(101.549673 209.613594) scale(0.11 -0.11)">
       <defs>
        <path id="ArialMT-32" d="M 3222 541 
L 3222 0 
L 194 0 
Q 188 203 259 391 
Q 375 700 629 1000 
Q 884 1300 1366 1694 
Q 2113 2306 2375 2664 
Q 2638 3022 2638 3341 
Q 2638 3675 2398 3904 
Q 2159 4134 1775 4134 
Q 1369 4134 1125 3890 
Q 881 3647 878 3216 
L 300 3275 
Q 359 3922 746 4261 
Q 1134 4600 1788 4600 
Q 2447 4600 2831 4234 
Q 3216 3869 3216 3328 
Q 3216 3053 3103 2787 
Q 2991 2522 2730 2228 
Q 2469 1934 1863 1422 
Q 1356 997 1212 845 
Q 1069 694 975 541 
L 3222 541 
z
" transform="scale(0.015625)"/>
       </defs>
       <use xlink:href="#ArialMT-2212"/>
       <use xlink:href="#ArialMT-31" x="58.398438"/>
       <use xlink:href="#ArialMT-32" x="114.013672"/>
      </g>
     </g>
    </g>
    <g id="xtick_3">
     <g id="text_3">
      <!-- −11 -->
      <g style="fill: #262626" transform="translate(145.764545 209.613594) scale(0.11 -0.11)">
       <use xlink:href="#ArialMT-2212"/>
       <use xlink:href="#ArialMT-31" x="58.398438"/>
       <use xlink:href="#ArialMT-31" x="106.638672"/>
      </g>
     </g>
    </g>
    <g id="xtick_4">
     <g id="text_4">
      <!-- −10 -->
      <g style="fill: #262626" transform="translate(189.168167 209.613594) scale(0.11 -0.11)">
       <defs>
        <path id="ArialMT-30" d="M 266 2259 
Q 266 3072 433 3567 
Q 600 4063 929 4331 
Q 1259 4600 1759 4600 
Q 2128 4600 2406 4451 
Q 2684 4303 2865 4023 
Q 3047 3744 3150 3342 
Q 3253 2941 3253 2259 
Q 3253 1453 3087 958 
Q 2922 463 2592 192 
Q 2263 -78 1759 -78 
Q 1097 -78 719 397 
Q 266 969 266 2259 
z
M 844 2259 
Q 844 1131 1108 757 
Q 1372 384 1759 384 
Q 2147 384 2411 759 
Q 2675 1134 2675 2259 
Q 2675 3391 2411 3762 
Q 2147 4134 1753 4134 
Q 1366 4134 1134 3806 
Q 844 3388 844 2259 
z
" transform="scale(0.015625)"/>
       </defs>
       <use xlink:href="#ArialMT-2212"/>
       <use xlink:href="#ArialMT-31" x="58.398438"/>
       <use xlink:href="#ArialMT-30" x="114.013672"/>
      </g>
     </g>
    </g>
    <g id="xtick_5">
     <g id="text_5">
      <!-- −9 -->
      <g style="fill: #262626" transform="translate(236.03593 209.613594) scale(0.11 -0.11)">
       <defs>
        <path id="ArialMT-39" d="M 350 1059 
L 891 1109 
Q 959 728 1153 556 
Q 1347 384 1650 384 
Q 1909 384 2104 503 
Q 2300 622 2425 820 
Q 2550 1019 2634 1356 
Q 2719 1694 2719 2044 
Q 2719 2081 2716 2156 
Q 2547 1888 2255 1720 
Q 1963 1553 1622 1553 
Q 1053 1553 659 1965 
Q 266 2378 266 3053 
Q 266 3750 677 4175 
Q 1088 4600 1706 4600 
Q 2153 4600 2523 4359 
Q 2894 4119 3086 3673 
Q 3278 3228 3278 2384 
Q 3278 1506 3087 986 
Q 2897 466 2520 194 
Q 2144 -78 1638 -78 
Q 1100 -78 759 220 
Q 419 519 350 1059 
z
M 2653 3081 
Q 2653 3566 2395 3850 
Q 2138 4134 1775 4134 
Q 1400 4134 1122 3828 
Q 844 3522 844 3034 
Q 844 2597 1108 2323 
Q 1372 2050 1759 2050 
Q 2150 2050 2401 2323 
Q 2653 2597 2653 3081 
z
" transform="scale(0.015625)"/>
       </defs>
       <use xlink:href="#ArialMT-2212"/>
       <use xlink:href="#ArialMT-39" x="58.398438"/>
      </g>
     </g>
    </g>
    <g id="xtick_6">
     <g id="text_6">
      <!-- −8 -->
      <g style="fill: #262626" transform="translate(279.845178 209.613594) scale(0.11 -0.11)">
       <defs>
        <path id="ArialMT-38" d="M 1131 2484 
Q 781 2613 612 2850 
Q 444 3088 444 3419 
Q 444 3919 803 4259 
Q 1163 4600 1759 4600 
Q 2359 4600 2725 4251 
Q 3091 3903 3091 3403 
Q 3091 3084 2923 2848 
Q 2756 2613 2416 2484 
Q 2838 2347 3058 2040 
Q 3278 1734 3278 1309 
Q 3278 722 2862 322 
Q 2447 -78 1769 -78 
Q 1091 -78 675 323 
Q 259 725 259 1325 
Q 259 1772 486 2073 
Q 713 2375 1131 2484 
z
M 1019 3438 
Q 1019 3113 1228 2906 
Q 1438 2700 1772 2700 
Q 2097 2700 2305 2904 
Q 2513 3109 2513 3406 
Q 2513 3716 2298 3927 
Q 2084 4138 1766 4138 
Q 1444 4138 1231 3931 
Q 1019 3725 1019 3438 
z
M 838 1322 
Q 838 1081 952 856 
Q 1066 631 1291 507 
Q 1516 384 1775 384 
Q 2178 384 2440 643 
Q 2703 903 2703 1303 
Q 2703 1709 2433 1975 
Q 2163 2241 1756 2241 
Q 1359 2241 1098 1978 
Q 838 1716 838 1322 
z
" transform="scale(0.015625)"/>
       </defs>
       <use xlink:href="#ArialMT-2212"/>
       <use xlink:href="#ArialMT-38" x="58.398438"/>
      </g>
     </g>
    </g>
    <g id="text_7">
     <!-- score -->
     <g style="fill: #262626" transform="translate(169.829062 224.389219) scale(0.12 -0.12)">
      <defs>
       <path id="ArialMT-73" d="M 197 991 
L 753 1078 
Q 800 744 1014 566 
Q 1228 388 1613 388 
Q 2000 388 2187 545 
Q 2375 703 2375 916 
Q 2375 1106 2209 1216 
Q 2094 1291 1634 1406 
Q 1016 1563 777 1677 
Q 538 1791 414 1992 
Q 291 2194 291 2438 
Q 291 2659 392 2848 
Q 494 3038 669 3163 
Q 800 3259 1026 3326 
Q 1253 3394 1513 3394 
Q 1903 3394 2198 3281 
Q 2494 3169 2634 2976 
Q 2775 2784 2828 2463 
L 2278 2388 
Q 2241 2644 2061 2787 
Q 1881 2931 1553 2931 
Q 1166 2931 1000 2803 
Q 834 2675 834 2503 
Q 834 2394 903 2306 
Q 972 2216 1119 2156 
Q 1203 2125 1616 2013 
Q 2213 1853 2448 1751 
Q 2684 1650 2818 1456 
Q 2953 1263 2953 975 
Q 2953 694 2789 445 
Q 2625 197 2315 61 
Q 2006 -75 1616 -75 
Q 969 -75 630 194 
Q 291 463 197 991 
z
" transform="scale(0.015625)"/>
       <path id="ArialMT-63" d="M 2588 1216 
L 3141 1144 
Q 3050 572 2676 248 
Q 2303 -75 1759 -75 
Q 1078 -75 664 370 
Q 250 816 250 1647 
Q 250 2184 428 2587 
Q 606 2991 970 3192 
Q 1334 3394 1763 3394 
Q 2303 3394 2647 3120 
Q 2991 2847 3088 2344 
L 2541 2259 
Q 2463 2594 2264 2762 
Q 2066 2931 1784 2931 
Q 1359 2931 1093 2626 
Q 828 2322 828 1663 
Q 828 994 1084 691 
Q 1341 388 1753 388 
Q 2084 388 2306 591 
Q 2528 794 2588 1216 
z
" transform="scale(0.015625)"/>
       <path id="ArialMT-6f" d="M 213 1659 
Q 213 2581 725 3025 
Q 1153 3394 1769 3394 
Q 2453 3394 2887 2945 
Q 3322 2497 3322 1706 
Q 3322 1066 3130 698 
Q 2938 331 2570 128 
Q 2203 -75 1769 -75 
Q 1072 -75 642 372 
Q 213 819 213 1659 
z
M 791 1659 
Q 791 1022 1069 705 
Q 1347 388 1769 388 
Q 2188 388 2466 706 
Q 2744 1025 2744 1678 
Q 2744 2294 2464 2611 
Q 2184 2928 1769 2928 
Q 1347 2928 1069 2612 
Q 791 2297 791 1659 
z
" transform="scale(0.015625)"/>
       <path id="ArialMT-72" d="M 416 0 
L 416 3319 
L 922 3319 
L 922 2816 
Q 1116 3169 1280 3281 
Q 1444 3394 1641 3394 
Q 1925 3394 2219 3213 
L 2025 2691 
Q 1819 2813 1613 2813 
Q 1428 2813 1281 2702 
Q 1134 2591 1072 2394 
Q 978 2094 978 1738 
L 978 0 
L 416 0 
z
" transform="scale(0.015625)"/>
       <path id="ArialMT-65" d="M 2694 1069 
L 3275 997 
Q 3138 488 2766 206 
Q 2394 -75 1816 -75 
Q 1088 -75 661 373 
Q 234 822 234 1631 
Q 234 2469 665 2931 
Q 1097 3394 1784 3394 
Q 2450 3394 2872 2941 
Q 3294 2488 3294 1666 
Q 3294 1616 3291 1516 
L 816 1516 
Q 847 969 1125 678 
Q 1403 388 1819 388 
Q 2128 388 2347 550 
Q 2566 713 2694 1069 
z
M 847 1978 
L 2700 1978 
Q 2663 2397 2488 2606 
Q 2219 2931 1791 2931 
Q 1403 2931 1139 2672 
Q 875 2413 847 1978 
z
" transform="scale(0.015625)"/>
      </defs>
      <use xlink:href="#ArialMT-73"/>
      <use xlink:href="#ArialMT-63" x="50"/>
      <use xlink:href="#ArialMT-6f" x="100"/>
      <use xlink:href="#ArialMT-72" x="155.615234"/>
      <use xlink:href="#ArialMT-65" x="188.916016"/>
     </g>
    </g>
   </g>
   <g id="matplotlib.axis_2">
    <g id="ytick_1">
     <g id="text_8">
      <!-- 0.0 -->
      <g style="fill: #262626" transform="translate(20.21 196.176797) scale(0.11 -0.11)">
       <defs>
        <path id="ArialMT-2e" d="M 581 0 
L 581 641 
L 1222 641 
L 1222 0 
L 581 0 
z
" transform="scale(0.015625)"/>
       </defs>
       <use xlink:href="#ArialMT-30"/>
       <use xlink:href="#ArialMT-2e" x="55.615234"/>
       <use xlink:href="#ArialMT-30" x="83.398438"/>
      </g>
     </g>
    </g>
    <g id="ytick_2">
     <g id="text_9">
      <!-- 0.5 -->
      <g style="fill: #262626" transform="translate(20.21 152.430595) scale(0.11 -0.11)">
       <defs>
        <path id="ArialMT-35" d="M 266 1200 
L 856 1250 
Q 922 819 1161 601 
Q 1400 384 1738 384 
Q 2144 384 2425 690 
Q 2706 997 2706 1503 
Q 2706 1984 2436 2262 
Q 2166 2541 1728 2541 
Q 1456 2541 1237 2417 
Q 1019 2294 894 2097 
L 366 2166 
L 809 4519 
L 3088 4519 
L 3088 3981 
L 1259 3981 
L 1013 2750 
Q 1425 3038 1878 3038 
Q 2478 3038 2890 2622 
Q 3303 2206 3303 1553 
Q 3303 931 2941 478 
Q 2500 -78 1738 -78 
Q 1113 -78 717 272 
Q 322 622 266 1200 
z
" transform="scale(0.015625)"/>
       </defs>
       <use xlink:href="#ArialMT-30"/>
       <use xlink:href="#ArialMT-2e" x="55.615234"/>
       <use xlink:href="#ArialMT-35" x="83.398438"/>
      </g>
     </g>
    </g>
    <g id="ytick_3">
     <g id="text_10">
      <!-- 1.0 -->
      <g style="fill: #262626" transform="translate(20.21 108.684394) scale(0.11 -0.11)">
       <use xlink:href="#ArialMT-31"/>
       <use xlink:href="#ArialMT-2e" x="55.615234"/>
       <use xlink:href="#ArialMT-30" x="83.398438"/>
      </g>
     </g>
    </g>
    <g id="ytick_4">
     <g id="text_11">
      <!-- 1.5 -->
      <g style="fill: #262626" transform="translate(20.21 64.938192) scale(0.11 -0.11)">
       <use xlink:href="#ArialMT-31"/>
       <use xlink:href="#ArialMT-2e" x="55.615234"/>
       <use xlink:href="#ArialMT-35" x="83.398438"/>
      </g>
     </g>
    </g>
    <g id="text_12">
     <!-- Density -->
     <g style="fill: #262626" transform="translate(13.684375 129.08625) rotate(-90) scale(0.12 -0.12)">
      <defs>
       <path id="ArialMT-44" d="M 494 0 
L 494 4581 
L 2072 4581 
Q 2606 4581 2888 4516 
Q 3281 4425 3559 4188 
Q 3922 3881 4101 3404 
Q 4281 2928 4281 2316 
Q 4281 1794 4159 1391 
Q 4038 988 3847 723 
Q 3656 459 3429 307 
Q 3203 156 2883 78 
Q 2563 0 2147 0 
L 494 0 
z
M 1100 541 
L 2078 541 
Q 2531 541 2789 625 
Q 3047 709 3200 863 
Q 3416 1078 3536 1442 
Q 3656 1806 3656 2325 
Q 3656 3044 3420 3430 
Q 3184 3816 2847 3947 
Q 2603 4041 2063 4041 
L 1100 4041 
L 1100 541 
z
" transform="scale(0.015625)"/>
       <path id="ArialMT-6e" d="M 422 0 
L 422 3319 
L 928 3319 
L 928 2847 
Q 1294 3394 1984 3394 
Q 2284 3394 2536 3286 
Q 2788 3178 2913 3003 
Q 3038 2828 3088 2588 
Q 3119 2431 3119 2041 
L 3119 0 
L 2556 0 
L 2556 2019 
Q 2556 2363 2490 2533 
Q 2425 2703 2258 2804 
Q 2091 2906 1866 2906 
Q 1506 2906 1245 2678 
Q 984 2450 984 1813 
L 984 0 
L 422 0 
z
" transform="scale(0.015625)"/>
       <path id="ArialMT-69" d="M 425 3934 
L 425 4581 
L 988 4581 
L 988 3934 
L 425 3934 
z
M 425 0 
L 425 3319 
L 988 3319 
L 988 0 
L 425 0 
z
" transform="scale(0.015625)"/>
       <path id="ArialMT-74" d="M 1650 503 
L 1731 6 
Q 1494 -44 1306 -44 
Q 1000 -44 831 53 
Q 663 150 594 308 
Q 525 466 525 972 
L 525 2881 
L 113 2881 
L 113 3319 
L 525 3319 
L 525 4141 
L 1084 4478 
L 1084 3319 
L 1650 3319 
L 1650 2881 
L 1084 2881 
L 1084 941 
Q 1084 700 1114 631 
Q 1144 563 1211 522 
Q 1278 481 1403 481 
Q 1497 481 1650 503 
z
" transform="scale(0.015625)"/>
       <path id="ArialMT-79" d="M 397 -1278 
L 334 -750 
Q 519 -800 656 -800 
Q 844 -800 956 -737 
Q 1069 -675 1141 -563 
Q 1194 -478 1313 -144 
Q 1328 -97 1363 -6 
L 103 3319 
L 709 3319 
L 1400 1397 
Q 1534 1031 1641 628 
Q 1738 1016 1872 1384 
L 2581 3319 
L 3144 3319 
L 1881 -56 
Q 1678 -603 1566 -809 
Q 1416 -1088 1222 -1217 
Q 1028 -1347 759 -1347 
Q 597 -1347 397 -1278 
z
" transform="scale(0.015625)"/>
      </defs>
      <use xlink:href="#ArialMT-44"/>
      <use xlink:href="#ArialMT-65" x="72.216797"/>
      <use xlink:href="#ArialMT-6e" x="127.832031"/>
      <use xlink:href="#ArialMT-73" x="183.447266"/>
      <use xlink:href="#ArialMT-69" x="233.447266"/>
      <use xlink:href="#ArialMT-74" x="255.664062"/>
      <use xlink:href="#ArialMT-79" x="283.447266"/>
     </g>
    </g>
   </g>
   <g id="line2d_1">
    <path d="M 216.401832 192.004757 
L 217.744197 191.704311 
L 218.750971 191.29942 
L 219.757744 190.663376 
L 220.764518 189.716633 
L 221.771292 188.382854 
L 222.778065 186.60663 
L 223.784839 184.373526 
L 225.127204 180.767555 
L 227.476342 173.544035 
L 232.174619 158.81292 
L 233.181393 154.36536 
L 234.188166 148.710202 
L 235.19494 141.672362 
L 236.537305 130.321927 
L 240.228808 96.749908 
L 241.235582 89.591215 
L 242.242356 83.657682 
L 243.58472 77.043164 
L 245.598268 67.267798 
L 246.940632 59.441947 
L 250.296545 38.681947 
L 250.967727 35.967497 
L 251.638909 34.290792 
L 251.974501 33.90245 
L 252.310092 33.839999 
L 252.645683 34.118049 
L 252.981274 34.747019 
L 253.316865 35.732935 
L 253.988048 38.777152 
L 254.65923 43.208838 
L 255.666004 52.198499 
L 256.672778 63.427779 
L 258.686325 89.223986 
L 260.364281 110.038388 
L 261.706646 124.142484 
L 262.713419 132.830687 
L 263.720193 139.959911 
L 264.726967 145.786581 
L 266.069331 152.14415 
L 268.082879 160.294789 
L 272.781156 178.269012 
L 274.12352 182.491522 
L 275.130294 185.110352 
L 276.137068 187.222465 
L 277.143841 188.846178 
L 278.150615 190.035856 
L 279.157389 190.866628 
L 280.164162 191.419586 
L 281.506527 191.853829 
L 283.184483 192.104936 
L 283.184483 192.104936 
" clip-path="url(#pbe4dce2380)" style="fill: none; stroke: #5801a4; stroke-width: 1.5; stroke-linecap: round"/>
   </g>
   <g id="line2d_2">
    <path d="M 136.158252 192.188828 
L 140.559255 191.968894 
L 143.199857 191.626914 
L 145.840459 191.032619 
L 148.481061 190.169343 
L 153.762265 188.217858 
L 155.522666 187.801997 
L 157.283068 187.635053 
L 159.043469 187.746667 
L 160.80387 188.116941 
L 163.444472 189.010417 
L 167.845475 190.659126 
L 170.486077 191.383526 
L 173.126679 191.835502 
L 175.767281 192.071901 
L 180.168285 192.195064 
L 185.449488 192.108402 
L 188.970291 191.866838 
L 192.491094 191.378502 
L 196.011896 190.601255 
L 199.532699 189.537241 
L 202.173301 188.477345 
L 203.933702 187.551794 
L 205.694103 186.356588 
L 207.454505 184.802951 
L 209.214906 182.81758 
L 210.975307 180.362582 
L 212.735709 177.447851 
L 214.49611 174.132164 
L 217.136712 168.628238 
L 223.298117 155.383186 
L 226.818919 148.50375 
L 231.219922 140.043908 
L 233.860524 134.408016 
L 237.381327 126.131959 
L 240.021929 119.93951 
L 241.78233 116.178505 
L 243.542732 112.898074 
L 245.303133 110.192951 
L 247.063534 108.107415 
L 247.943735 107.30424 
L 248.823935 106.665305 
L 249.704136 106.196191 
L 250.584337 105.905086 
L 251.464537 105.803075 
L 252.344738 105.904039 
L 253.224939 106.224152 
L 254.105139 106.781006 
L 254.98534 107.592417 
L 255.865541 108.675005 
L 256.745741 110.042646 
L 257.625942 111.704935 
L 258.506143 113.665775 
L 260.266544 118.463856 
L 262.026945 124.321505 
L 263.787347 131.005751 
L 271.709152 162.538951 
L 273.469554 168.25243 
L 275.229955 173.195057 
L 276.990356 177.348188 
L 278.750758 180.732471 
L 280.511159 183.400323 
L 282.27156 185.432699 
L 284.031962 186.934576 
L 285.792363 188.025312 
L 287.552764 188.824216 
L 290.193366 189.695755 
L 293.714169 190.575158 
L 298.115172 191.424129 
L 301.635975 191.867081 
L 305.156777 192.102546 
L 310.437981 192.219922 
L 311.318182 192.226153 
L 311.318182 192.226153 
" clip-path="url(#pbe4dce2380)" style="fill: none; stroke: #7701a8; stroke-width: 1.5; stroke-linecap: round"/>
   </g>
   <g id="line2d_3">
    <path d="M 123.688079 192.236435 
L 132.995837 192.10391 
L 141.372819 191.908066 
L 147.88825 191.834815 
L 151.611353 191.471764 
L 156.265232 190.98126 
L 159.057559 191.006385 
L 161.849887 191.296863 
L 166.503766 191.840361 
L 169.296093 191.940658 
L 172.088421 191.826524 
L 174.880748 191.516788 
L 178.603851 190.829929 
L 183.25773 189.680633 
L 190.703937 187.640305 
L 195.357816 186.0274 
L 199.080919 184.584281 
L 200.942471 183.692217 
L 202.804022 182.528702 
L 204.665574 180.982105 
L 206.527126 179.012611 
L 208.388677 176.674373 
L 211.181005 172.735746 
L 214.904108 167.073898 
L 216.76566 163.949708 
L 218.627211 160.426424 
L 220.488763 156.364621 
L 222.350314 151.708579 
L 224.211866 146.506831 
L 227.934969 135.149775 
L 230.727297 126.952695 
L 232.588848 122.356662 
L 233.519624 120.461118 
L 234.4504 118.881836 
L 235.381176 117.640825 
L 236.311952 116.746682 
L 237.242727 116.194104 
L 238.173503 115.96477 
L 239.104279 116.029513 
L 240.035055 116.351468 
L 240.965831 116.889757 
L 242.827382 118.452939 
L 244.688934 120.432039 
L 248.412037 124.880749 
L 252.13514 129.237486 
L 256.789019 134.423777 
L 258.650571 136.90775 
L 260.512123 139.925202 
L 262.373674 143.528406 
L 265.166002 149.743915 
L 268.889105 158.266616 
L 270.750657 162.163867 
L 272.612208 165.680353 
L 274.47376 168.782966 
L 276.335311 171.469006 
L 278.196863 173.768907 
L 280.058415 175.757078 
L 283.781518 179.24811 
L 293.089276 187.607377 
L 294.950828 188.964375 
L 296.812379 190.076674 
L 298.673931 190.917632 
L 300.535483 191.497736 
L 302.397034 191.859853 
L 305.189362 192.123915 
L 308.912465 192.223317 
L 308.912465 192.223317 
" clip-path="url(#pbe4dce2380)" style="fill: none; stroke: #920fa3; stroke-width: 1.5; stroke-linecap: round"/>
   </g>
   <g id="line2d_4">
    <path d="M 79.247171 192.238924 
L 91.853002 192.125313 
L 102.166865 192.022891 
L 121.648605 192.235059 
L 129.670498 192.117225 
L 144.568299 191.671224 
L 150.298223 191.526124 
L 157.174131 191.286383 
L 166.342009 191.319332 
L 169.779963 190.96628 
L 174.363902 190.274442 
L 177.801856 189.577984 
L 180.093826 188.94339 
L 182.385795 188.139304 
L 185.823749 186.676791 
L 193.845642 183.030197 
L 200.721551 180.209282 
L 201.867535 179.517948 
L 203.01352 178.685719 
L 204.159505 177.698532 
L 206.451474 175.274178 
L 208.743444 172.397599 
L 214.473367 164.602068 
L 216.765337 161.288839 
L 219.057306 157.624701 
L 222.49526 151.448446 
L 225.933214 145.228785 
L 228.225184 141.590046 
L 230.517153 138.56826 
L 232.809123 136.188719 
L 235.101092 134.387059 
L 237.393062 133.064748 
L 239.685031 132.126733 
L 241.977001 131.50394 
L 244.26897 131.189747 
L 245.414955 131.171139 
L 246.560939 131.265328 
L 247.706924 131.486867 
L 248.852909 131.844297 
L 249.998894 132.336853 
L 252.290863 133.677644 
L 254.582832 135.377169 
L 256.874802 137.394873 
L 259.166771 139.874689 
L 261.458741 142.96475 
L 264.896695 148.406587 
L 267.188664 151.966 
L 269.480634 155.028254 
L 271.772603 157.458478 
L 274.064573 159.400772 
L 276.356542 161.263656 
L 277.502527 162.326533 
L 278.648511 163.547969 
L 279.794496 164.955268 
L 282.086466 168.310134 
L 285.52442 174.178252 
L 288.962374 180.105352 
L 291.254343 183.710755 
L 293.546313 186.794249 
L 294.692298 188.074642 
L 295.838282 189.157284 
L 296.984267 190.038142 
L 298.130252 190.725635 
L 299.276236 191.239103 
L 300.422221 191.60538 
L 302.714191 192.016048 
L 306.152145 192.206666 
L 307.298129 192.22393 
L 307.298129 192.22393 
" clip-path="url(#pbe4dce2380)" style="fill: none; stroke: #ac2694; stroke-width: 1.5; stroke-linecap: round"/>
   </g>
   <g id="line2d_5">
    <path d="M 77.074691 192.239627 
L 129.67829 192.135321 
L 162.841429 190.937632 
L 171.989881 189.772835 
L 177.707664 188.824315 
L 182.28189 187.892146 
L 184.569003 187.241206 
L 186.856116 186.359775 
L 189.143229 185.225303 
L 200.578794 178.730974 
L 202.865907 176.982719 
L 205.15302 174.713489 
L 207.440133 171.975371 
L 214.301472 163.365065 
L 220.019255 156.447074 
L 225.737037 149.220165 
L 228.02415 146.888589 
L 230.311263 145.00231 
L 232.598376 143.433709 
L 234.885489 142.102475 
L 238.316159 140.445753 
L 242.890385 138.252244 
L 246.321054 136.555184 
L 247.464611 136.110548 
L 248.608167 135.792517 
L 249.751724 135.633211 
L 250.89528 135.646641 
L 252.038837 135.823074 
L 254.32595 136.532432 
L 256.613063 137.524471 
L 257.756619 138.15352 
L 258.900176 138.94862 
L 260.043732 139.975211 
L 261.187289 141.26613 
L 263.474402 144.485673 
L 265.761515 147.848997 
L 266.905072 149.315201 
L 268.048628 150.574659 
L 270.335741 152.570784 
L 274.909967 155.981217 
L 277.19708 158.122722 
L 279.484193 160.76222 
L 284.058419 166.723163 
L 286.345532 169.984133 
L 287.489089 171.856639 
L 289.776202 176.286945 
L 294.350428 186.029372 
L 295.493984 187.913069 
L 296.637541 189.396346 
L 297.781097 190.482442 
L 298.924654 191.220998 
L 300.06821 191.686968 
L 301.211767 191.959543 
L 303.49888 192.181487 
L 304.642436 192.215983 
L 304.642436 192.215983 
" clip-path="url(#pbe4dce2380)" style="fill: none; stroke: #c23c81; stroke-width: 1.5; stroke-linecap: round"/>
   </g>
   <g id="line2d_6">
    <path d="M 60.611859 192.239406 
L 132.322747 192.072002 
L 154.200646 191.398044 
L 162.708717 190.872646 
L 167.570472 190.46999 
L 171.216789 190.169247 
L 174.863105 189.617497 
L 178.509422 188.845605 
L 183.371177 187.550725 
L 187.017493 186.402999 
L 189.448371 185.446458 
L 195.525565 182.623042 
L 197.956442 181.333744 
L 200.38732 179.795221 
L 202.818197 178.105823 
L 205.249075 176.123135 
L 207.679953 173.615602 
L 211.326269 169.505789 
L 213.757146 167.250646 
L 217.403463 164.283886 
L 219.83434 161.834144 
L 225.911534 154.773184 
L 228.342412 152.539587 
L 230.77329 150.846161 
L 233.204167 149.565714 
L 235.635045 148.301036 
L 236.850484 147.531987 
L 239.281361 145.610905 
L 242.927677 142.525041 
L 245.358555 140.866785 
L 249.004871 138.692872 
L 250.22031 138.126322 
L 251.435749 137.744382 
L 252.651188 137.578607 
L 255.082065 137.697707 
L 257.512943 137.789361 
L 259.943821 137.792507 
L 261.159259 138.034461 
L 262.374698 138.56643 
L 263.590137 139.378274 
L 267.236453 142.298699 
L 269.667331 143.777709 
L 272.098208 145.254427 
L 273.313647 146.164005 
L 275.744525 148.415112 
L 278.175402 151.186545 
L 284.252596 158.775178 
L 285.468035 160.494628 
L 286.683474 162.561096 
L 287.898913 165.145092 
L 289.114352 168.352078 
L 290.32979 172.150292 
L 292.760668 180.508202 
L 293.976107 184.278215 
L 295.191546 187.31156 
L 296.406984 189.478372 
L 297.622423 190.847694 
L 298.837862 191.611467 
L 300.053301 191.986894 
L 302.484178 192.211194 
L 302.484178 192.211194 
" clip-path="url(#pbe4dce2380)" style="fill: none; stroke: #d45270; stroke-width: 1.5; stroke-linecap: round"/>
   </g>
   <g id="line2d_7">
    <path d="M 62.032843 192.239686 
L 131.700334 192.11159 
L 153.321279 191.519319 
L 162.930588 190.970512 
L 170.13757 190.152949 
L 173.741061 189.621659 
L 180.948043 188.323722 
L 189.356188 186.202855 
L 191.758515 185.184015 
L 196.56317 182.622737 
L 202.568988 179.125013 
L 204.971315 177.616383 
L 207.373642 175.688471 
L 212.178297 171.440521 
L 219.385279 165.835405 
L 230.195751 155.695079 
L 232.598079 153.994242 
L 235.000406 152.510283 
L 236.20157 151.624552 
L 237.402733 150.550999 
L 239.80506 147.925142 
L 242.207388 145.318819 
L 244.609715 143.175848 
L 249.414369 139.195715 
L 250.615533 138.369197 
L 251.816697 137.705521 
L 253.01786 137.209631 
L 255.420188 136.585968 
L 259.023679 136.017838 
L 260.224842 135.992063 
L 261.426006 136.148317 
L 262.627169 136.510845 
L 265.029497 137.679054 
L 267.431824 138.919921 
L 272.236478 141.163355 
L 274.638806 142.650985 
L 275.839969 143.631402 
L 277.041133 144.809836 
L 285.449278 154.198285 
L 286.650442 156.139582 
L 287.851606 158.791419 
L 289.052769 162.366084 
L 290.253933 166.93849 
L 293.857424 182.971153 
L 295.058587 186.945758 
L 296.259751 189.59609 
L 297.460915 191.095778 
L 298.662078 191.813732 
L 299.863242 192.103991 
L 301.064406 192.202974 
L 301.064406 192.202974 
" clip-path="url(#pbe4dce2380)" style="fill: none; stroke: #e4695e; stroke-width: 1.5; stroke-linecap: round"/>
   </g>
   <g id="line2d_8">
    <path d="M 63.060215 192.239806 
L 133.319674 192.100212 
L 151.182248 191.628054 
L 160.708954 191.192243 
L 173.808175 189.924599 
L 182.144043 188.398 
L 190.479911 186.313394 
L 192.861588 185.398902 
L 196.434103 183.811032 
L 198.815779 182.546345 
L 202.388294 180.54735 
L 204.769971 179.253943 
L 207.151647 177.687879 
L 210.724162 174.957995 
L 214.296677 172.26118 
L 219.06003 168.991785 
L 223.823383 165.069631 
L 226.20506 162.860166 
L 229.777575 159.271066 
L 233.35009 156.298693 
L 235.731766 154.183828 
L 238.113443 151.67884 
L 241.685958 147.775405 
L 245.258472 144.358682 
L 248.830987 140.312894 
L 250.021826 139.189037 
L 251.212664 138.309615 
L 252.403502 137.670455 
L 253.59434 137.234282 
L 261.930208 135.228311 
L 263.121047 135.250112 
L 265.502723 135.748425 
L 269.075238 136.657901 
L 271.456915 137.296942 
L 273.838591 138.251679 
L 275.02943 138.957329 
L 276.220268 139.864978 
L 278.601944 142.132503 
L 280.983621 144.441157 
L 284.556136 147.666997 
L 285.746974 148.942096 
L 286.937812 150.566869 
L 288.128651 152.913465 
L 289.319489 156.514952 
L 290.510327 161.788828 
L 294.082842 182.539471 
L 295.27368 187.334795 
L 296.464519 190.163964 
L 297.655357 191.512213 
L 298.846195 192.030264 
L 300.037034 192.190587 
L 300.037034 192.190587 
" clip-path="url(#pbe4dce2380)" style="fill: none; stroke: #f1814d; stroke-width: 1.5; stroke-linecap: round"/>
   </g>
   <g id="line2d_9">
    <path d="M 57.890858 192.239935 
L 130.695796 192.138141 
L 150.110446 191.651088 
L 161.031186 191.192457 
L 171.951927 190.216345 
L 179.232421 189.052033 
L 187.72633 187.115616 
L 190.153161 186.437765 
L 197.433655 183.719478 
L 202.287317 181.418178 
L 204.714149 180.21038 
L 208.354395 177.951094 
L 210.781227 176.350059 
L 214.421474 173.744555 
L 218.06172 171.437857 
L 224.128799 166.652998 
L 226.55563 164.51987 
L 230.195877 160.937688 
L 235.049539 156.718061 
L 237.47637 154.307459 
L 239.903202 151.518705 
L 242.330033 148.778033 
L 252.037358 139.817784 
L 254.464189 138.215057 
L 258.104436 136.06349 
L 259.317852 135.494628 
L 260.531267 135.156415 
L 262.958098 135.001714 
L 265.38493 134.885768 
L 269.025177 134.506587 
L 270.238592 134.640104 
L 271.452008 134.998782 
L 273.878839 136.138559 
L 276.30567 137.514881 
L 279.945917 140.00749 
L 283.586164 142.076159 
L 284.79958 143.073485 
L 286.012995 144.330225 
L 287.226411 145.917171 
L 288.439826 148.26964 
L 289.653242 152.282079 
L 290.866658 158.77075 
L 294.506905 184.171017 
L 295.72032 188.87235 
L 296.933736 191.126033 
L 298.147151 191.95124 
L 299.360567 192.181808 
L 299.360567 192.181808 
" clip-path="url(#pbe4dce2380)" style="fill: none; stroke: #fa9b3d; stroke-width: 1.5; stroke-linecap: round"/>
   </g>
   <g id="line2d_10">
    <path d="M 58.393937 192.239953 
L 129.687151 192.139317 
L 149.020904 191.667817 
L 163.521218 190.946424 
L 176.813173 189.503182 
L 180.438252 188.908681 
L 185.27169 187.790851 
L 190.105129 186.422942 
L 198.563645 183.4687 
L 204.605443 180.698172 
L 211.8556 176.494665 
L 216.689039 173.274753 
L 219.105758 171.63611 
L 226.355915 165.911901 
L 240.85623 152.295342 
L 243.272949 149.839269 
L 245.689668 147.40249 
L 248.106387 144.771447 
L 249.314747 143.644264 
L 251.731466 141.810644 
L 256.564904 138.422707 
L 258.981623 136.922355 
L 260.189983 136.366679 
L 262.606702 135.577393 
L 268.6485 133.948475 
L 269.856859 133.777277 
L 271.065219 133.775418 
L 273.481938 134.122568 
L 275.898657 134.730946 
L 277.107016 135.264204 
L 280.732095 137.276479 
L 283.148814 138.328745 
L 284.357174 138.988247 
L 285.565533 139.813386 
L 286.773893 140.823611 
L 287.982252 142.320052 
L 289.190612 145.234848 
L 290.398972 150.945626 
L 291.607331 160.059461 
L 292.815691 171.085164 
L 294.02405 180.988625 
L 295.23241 187.546381 
L 296.440769 190.737324 
L 297.649129 191.87626 
L 298.857488 192.174108 
L 298.857488 192.174108 
" clip-path="url(#pbe4dce2380)" style="fill: none; stroke: #feb82c; stroke-width: 1.5; stroke-linecap: round"/>
   </g>
   <g id="line2d_11">
    <path d="M 57.681818 192.239977 
L 126.659999 192.131063 
L 138.761434 191.925431 
L 161.754161 190.979441 
L 170.225166 190.229497 
L 177.486027 189.22471 
L 182.326601 188.320645 
L 185.957032 187.503591 
L 190.797606 186.194381 
L 195.63818 184.541541 
L 198.058467 183.751573 
L 202.899041 181.474791 
L 205.319328 180.320404 
L 212.58019 176.378679 
L 215.000477 174.762089 
L 218.630907 172.577335 
L 224.681625 168.125815 
L 227.101912 166.130647 
L 231.942486 161.882405 
L 235.572916 158.649746 
L 240.413491 154.242286 
L 244.043921 150.72923 
L 246.464208 148.259949 
L 248.884495 145.795199 
L 251.304782 143.793557 
L 254.935213 141.181404 
L 260.985931 137.17272 
L 263.406218 136.20968 
L 265.826505 135.393044 
L 269.456935 133.736526 
L 270.667079 133.400512 
L 271.877222 133.259355 
L 274.297509 133.351407 
L 276.717796 133.634112 
L 283.978658 135.310994 
L 285.188801 135.788988 
L 286.398945 136.426855 
L 287.609088 137.384673 
L 288.819232 139.433229 
L 290.029375 144.181376 
L 291.239519 153.10351 
L 293.659806 177.58199 
L 294.869949 186.103818 
L 296.080093 190.326452 
L 297.290236 191.803683 
L 298.50038 192.16816 
L 298.50038 192.16816 
" clip-path="url(#pbe4dce2380)" style="fill: none; stroke: #fad824; stroke-width: 1.5; stroke-linecap: round"/>
   </g>
   <g id="patch_3">
    <path d="M 45 192.24 
L 45 25.92 
" style="fill: none; stroke: #262626; stroke-width: 1.25; stroke-linejoin: miter; stroke-linecap: square"/>
   </g>
   <g id="patch_4">
    <path d="M 324 192.24 
L 324 25.92 
" style="fill: none; stroke: #262626; stroke-width: 1.25; stroke-linejoin: miter; stroke-linecap: square"/>
   </g>
   <g id="patch_5">
    <path d="M 45 192.24 
L 324 192.24 
" style="fill: none; stroke: #262626; stroke-width: 1.25; stroke-linejoin: miter; stroke-linecap: square"/>
   </g>
   <g id="patch_6">
    <path d="M 45 25.92 
L 324 25.92 
" style="fill: none; stroke: #262626; stroke-width: 1.25; stroke-linejoin: miter; stroke-linecap: square"/>
   </g>
   <g id="legend_1">
    <g id="patch_7">
     <path d="M 352.565937 205.878281 
L 400 205.878281 
Q 402.2 205.878281 402.2 203.678281 
L 402.2 33.62 
Q 402.2 31.42 400 31.42 
L 352.565937 31.42 
Q 350.365937 31.42 350.365937 33.62 
L 350.365937 203.678281 
Q 350.365937 205.878281 352.565937 205.878281 
z
" style="fill: #ffffff; opacity: 0.8; stroke: #cccccc; stroke-linejoin: miter"/>
    </g>
    <g id="line2d_12">
     <path d="M 354.765937 39.843594 
L 361 39.843594 
" style="fill: none; stroke: #5801a4; stroke-width: 1.5; stroke-linecap: round"/>
    </g>
    <g id="text_13">
     <!-- 24 -->
     <g style="fill: #262626" transform="translate(385.565937 43.693594) scale(0.11 -0.11)">
      <defs>
       <path id="ArialMT-34" d="M 2069 0 
L 2069 1097 
L 81 1097 
L 81 1613 
L 2172 4581 
L 2631 4581 
L 2631 1613 
L 3250 1613 
L 3250 1097 
L 2631 1097 
L 2631 0 
L 2069 0 
z
M 2069 1613 
L 2069 3678 
L 634 1613 
L 2069 1613 
z
" transform="scale(0.015625)"/>
      </defs>
      <use xlink:href="#ArialMT-32"/>
      <use xlink:href="#ArialMT-34" x="55.615234"/>
     </g>
    </g>
    <g id="line2d_13">
     <path d="M 354.765937 55.403437 
L 361 55.403437 
" style="fill: none; stroke: #7701a8; stroke-width: 1.5; stroke-linecap: round"/>
    </g>
    <g id="text_14">
     <!-- 25 -->
     <g style="fill: #262626" transform="translate(385.565937 59.253437) scale(0.11 -0.11)">
      <use xlink:href="#ArialMT-32"/>
      <use xlink:href="#ArialMT-35" x="55.615234"/>
     </g>
    </g>
    <g id="line2d_14">
     <path d="M 354.765937 70.963281 
L 361 70.963281 
" style="fill: none; stroke: #920fa3; stroke-width: 1.5; stroke-linecap: round"/>
    </g>
    <g id="text_15">
     <!-- 26 -->
     <g style="fill: #262626" transform="translate(385.565937 74.813281) scale(0.11 -0.11)">
      <defs>
       <path id="ArialMT-36" d="M 3184 3459 
L 2625 3416 
Q 2550 3747 2413 3897 
Q 2184 4138 1850 4138 
Q 1581 4138 1378 3988 
Q 1113 3794 959 3422 
Q 806 3050 800 2363 
Q 1003 2672 1297 2822 
Q 1591 2972 1913 2972 
Q 2475 2972 2870 2558 
Q 3266 2144 3266 1488 
Q 3266 1056 3080 686 
Q 2894 316 2569 119 
Q 2244 -78 1831 -78 
Q 1128 -78 684 439 
Q 241 956 241 2144 
Q 241 3472 731 4075 
Q 1159 4600 1884 4600 
Q 2425 4600 2770 4297 
Q 3116 3994 3184 3459 
z
M 888 1484 
Q 888 1194 1011 928 
Q 1134 663 1356 523 
Q 1578 384 1822 384 
Q 2178 384 2434 671 
Q 2691 959 2691 1453 
Q 2691 1928 2437 2201 
Q 2184 2475 1800 2475 
Q 1419 2475 1153 2201 
Q 888 1928 888 1484 
z
" transform="scale(0.015625)"/>
      </defs>
      <use xlink:href="#ArialMT-32"/>
      <use xlink:href="#ArialMT-36" x="55.615234"/>
     </g>
    </g>
    <g id="line2d_15">
     <path d="M 354.765937 86.523125 
L 361 86.523125 
" style="fill: none; stroke: #ac2694; stroke-width: 1.5; stroke-linecap: round"/>
    </g>
    <g id="text_16">
     <!-- 27 -->
     <g style="fill: #262626" transform="translate(385.565937 90.373125) scale(0.11 -0.11)">
      <defs>
       <path id="ArialMT-37" d="M 303 3981 
L 303 4522 
L 3269 4522 
L 3269 4084 
Q 2831 3619 2401 2847 
Q 1972 2075 1738 1259 
Q 1569 684 1522 0 
L 944 0 
Q 953 541 1156 1306 
Q 1359 2072 1739 2783 
Q 2119 3494 2547 3981 
L 303 3981 
z
" transform="scale(0.015625)"/>
      </defs>
      <use xlink:href="#ArialMT-32"/>
      <use xlink:href="#ArialMT-37" x="55.615234"/>
     </g>
    </g>
    <g id="line2d_16">
     <path d="M 354.765937 102.082969 
L 361 102.082969 
" style="fill: none; stroke: #c23c81; stroke-width: 1.5; stroke-linecap: round"/>
    </g>
    <g id="text_17">
     <!-- 28 -->
     <g style="fill: #262626" transform="translate(385.565937 105.932969) scale(0.11 -0.11)">
      <use xlink:href="#ArialMT-32"/>
      <use xlink:href="#ArialMT-38" x="55.615234"/>
     </g>
    </g>
    <g id="line2d_17">
     <path d="M 354.765937 117.642813 
L 361 117.642813 
" style="fill: none; stroke: #d45270; stroke-width: 1.5; stroke-linecap: round"/>
    </g>
    <g id="text_18">
     <!-- 29 -->
     <g style="fill: #262626" transform="translate(385.565937 121.492812) scale(0.11 -0.11)">
      <use xlink:href="#ArialMT-32"/>
      <use xlink:href="#ArialMT-39" x="55.615234"/>
     </g>
    </g>
    <g id="line2d_18">
     <path d="M 354.765937 133.202656 
L 361 133.202656 
" style="fill: none; stroke: #e4695e; stroke-width: 1.5; stroke-linecap: round"/>
    </g>
    <g id="text_19">
     <!-- 30 -->
     <g style="fill: #262626" transform="translate(385.565937 137.052656) scale(0.11 -0.11)">
      <use xlink:href="#ArialMT-33"/>
      <use xlink:href="#ArialMT-30" x="55.615234"/>
     </g>
    </g>
    <g id="line2d_19">
     <path d="M 354.765937 148.7625 
L 361 148.7625 
" style="fill: none; stroke: #f1814d; stroke-width: 1.5; stroke-linecap: round"/>
    </g>
    <g id="text_20">
     <!-- 31 -->
     <g style="fill: #262626" transform="translate(385.565937 152.6125) scale(0.11 -0.11)">
      <use xlink:href="#ArialMT-33"/>
      <use xlink:href="#ArialMT-31" x="55.615234"/>
     </g>
    </g>
    <g id="line2d_20">
     <path d="M 354.765937 164.322344 
L 361 164.322344 
" style="fill: none; stroke: #fa9b3d; stroke-width: 1.5; stroke-linecap: round"/>
    </g>
    <g id="text_21">
     <!-- 32 -->
     <g style="fill: #262626" transform="translate(385.565937 168.172344) scale(0.11 -0.11)">
      <use xlink:href="#ArialMT-33"/>
      <use xlink:href="#ArialMT-32" x="55.615234"/>
     </g>
    </g>
    <g id="line2d_21">
     <path d="M 354.765937 179.882188 
L 361 179.882188 
" style="fill: none; stroke: #feb82c; stroke-width: 1.5; stroke-linecap: round"/>
    </g>
    <g id="text_22">
     <!-- 33 -->
     <g style="fill: #262626" transform="translate(385.565937 183.732188) scale(0.11 -0.11)">
      <use xlink:href="#ArialMT-33"/>
      <use xlink:href="#ArialMT-33" x="55.615234"/>
     </g>
    </g>
    <g id="line2d_22">
     <path d="M 354.765937 195.442031 
L 361 195.442031 
" style="fill: none; stroke: #fad824; stroke-width: 1.5; stroke-linecap: round"/>
    </g>
    <g id="text_23">
     <!-- 34 -->
     <g style="fill: #262626" transform="translate(385.565937 199.292031) scale(0.11 -0.11)">
      <use xlink:href="#ArialMT-33"/>
      <use xlink:href="#ArialMT-34" x="55.615234"/>
     </g>
    </g>
   </g>
  </g>
 </g>
 <defs>
  <clipPath id="pbe4dce2380">
   <rect x="45" y="25.92" width="279" height="166.32"/>
  </clipPath>
 </defs>
</svg>
