<?xml version="1.0" encoding="utf-8" standalone="no"?>
<!DOCTYPE svg PUBLIC "-//W3C//DTD SVG 1.1//EN"
  "http://www.w3.org/Graphics/SVG/1.1/DTD/svg11.dtd">
<svg xmlns:xlink="http://www.w3.org/1999/xlink" width="648pt" height="216pt" viewBox="0 0 648 216" xmlns="http://www.w3.org/2000/svg" version="1.1">
 <metadata>
  <rdf:RDF xmlns:dc="http://purl.org/dc/elements/1.1/" xmlns:cc="http://creativecommons.org/ns#" xmlns:rdf="http://www.w3.org/1999/02/22-rdf-syntax-ns#">
   <cc:Work>
    <dc:type rdf:resource="http://purl.org/dc/dcmitype/StillImage"/>
    <dc:date>2023-10-02T14:24:32.760700</dc:date>
    <dc:format>image/svg+xml</dc:format>
    <dc:creator>
     <cc:Agent>
      <dc:title>Matplotlib v3.6.2, https://matplotlib.org/</dc:title>
     </cc:Agent>
    </dc:creator>
   </cc:Work>
  </rdf:RDF>
 </metadata>
 <defs>
  <style type="text/css">*{stroke-linejoin: round; stroke-linecap: butt}</style>
 </defs>
 <g id="figure_1">
  <g id="patch_1">
   <path d="M 0 216 
L 648 216 
L 648 0 
L 0 0 
z
" style="fill: #ffffff"/>
  </g>
  <g id="axes_1">
   <g id="patch_2">
    <path d="M 12.96 158.58 
L 203.717589 158.58 
L 203.717589 21.6 
L 12.96 21.6 
L 12.96 158.58 
z
" style="fill: none"/>
   </g>
   <g id="matplotlib.axis_1">
    <g id="xtick_1">
     <g id="text_1">
      <!-- −15 -->
      <g style="fill: #262626" transform="translate(14.862403 179.890391) scale(0.165 -0.165)">
       <defs>
        <path id="ArialMT-2212" d="M 3381 1997 
L 356 1997 
L 356 2522 
L 3381 2522 
L 3381 1997 
z
" transform="scale(0.015625)"/>
        <path id="ArialMT-31" d="M 2384 0 
L 1822 0 
L 1822 3584 
Q 1619 3391 1289 3197 
Q 959 3003 697 2906 
L 697 3450 
Q 1169 3672 1522 3987 
Q 1875 4303 2022 4600 
L 2384 4600 
L 2384 0 
z
" transform="scale(0.015625)"/>
        <path id="ArialMT-35" d="M 266 1200 
L 856 1250 
Q 922 819 1161 601 
Q 1400 384 1738 384 
Q 2144 384 2425 690 
Q 2706 997 2706 1503 
Q 2706 1984 2436 2262 
Q 2166 2541 1728 2541 
Q 1456 2541 1237 2417 
Q 1019 2294 894 2097 
L 366 2166 
L 809 4519 
L 3088 4519 
L 3088 3981 
L 1259 3981 
L 1013 2750 
Q 1425 3038 1878 3038 
Q 2478 3038 2890 2622 
Q 3303 2206 3303 1553 
Q 3303 931 2941 478 
Q 2500 -78 1738 -78 
Q 1113 -78 717 272 
Q 322 622 266 1200 
z
" transform="scale(0.015625)"/>
       </defs>
       <use xlink:href="#ArialMT-2212"/>
       <use xlink:href="#ArialMT-31" x="58.398438"/>
       <use xlink:href="#ArialMT-35" x="114.013672"/>
      </g>
     </g>
    </g>
    <g id="xtick_2">
     <g id="text_2">
      <!-- −10 -->
      <g style="fill: #262626" transform="translate(94.344732 179.890391) scale(0.165 -0.165)">
       <defs>
        <path id="ArialMT-30" d="M 266 2259 
Q 266 3072 433 3567 
Q 600 4063 929 4331 
Q 1259 4600 1759 4600 
Q 2128 4600 2406 4451 
Q 2684 4303 2865 4023 
Q 3047 3744 3150 3342 
Q 3253 2941 3253 2259 
Q 3253 1453 3087 958 
Q 2922 463 2592 192 
Q 2263 -78 1759 -78 
Q 1097 -78 719 397 
Q 266 969 266 2259 
z
M 844 2259 
Q 844 1131 1108 757 
Q 1372 384 1759 384 
Q 2147 384 2411 759 
Q 2675 1134 2675 2259 
Q 2675 3391 2411 3762 
Q 2147 4134 1753 4134 
Q 1366 4134 1134 3806 
Q 844 3388 844 2259 
z
" transform="scale(0.015625)"/>
       </defs>
       <use xlink:href="#ArialMT-2212"/>
       <use xlink:href="#ArialMT-31" x="58.398438"/>
       <use xlink:href="#ArialMT-30" x="114.013672"/>
      </g>
     </g>
    </g>
    <g id="xtick_3">
     <g id="text_3">
      <!-- −5 -->
      <g style="fill: #262626" transform="translate(178.414835 179.890391) scale(0.165 -0.165)">
       <use xlink:href="#ArialMT-2212"/>
       <use xlink:href="#ArialMT-35" x="58.398438"/>
      </g>
     </g>
    </g>
   </g>
   <g id="matplotlib.axis_2"/>
   <g id="PolyCollection_1">
    <defs>
     <path id="mab7e303d4e" d="M 3.765732 -57.420011 
L 3.765732 -57.42 
L 4.227489 -57.42 
L 4.689247 -57.42 
L 5.151005 -57.42 
L 5.612763 -57.42 
L 6.074521 -57.42 
L 6.536279 -57.42 
L 6.998037 -57.42 
L 7.459795 -57.42 
L 7.921553 -57.42 
L 8.383311 -57.42 
L 8.845069 -57.42 
L 9.306827 -57.42 
L 9.768585 -57.42 
L 10.230343 -57.42 
L 10.692101 -57.42 
L 11.153859 -57.42 
L 11.615617 -57.42 
L 12.077375 -57.42 
L 12.539133 -57.42 
L 13.00089 -57.42 
L 13.462648 -57.42 
L 13.924406 -57.42 
L 14.386164 -57.42 
L 14.847922 -57.42 
L 15.30968 -57.42 
L 15.771438 -57.42 
L 16.233196 -57.42 
L 16.694954 -57.42 
L 17.156712 -57.42 
L 17.61847 -57.42 
L 18.080228 -57.42 
L 18.541986 -57.42 
L 19.003744 -57.42 
L 19.465502 -57.42 
L 19.92726 -57.42 
L 20.389018 -57.42 
L 20.850776 -57.42 
L 21.312534 -57.42 
L 21.774291 -57.42 
L 22.236049 -57.42 
L 22.697807 -57.42 
L 23.159565 -57.42 
L 23.621323 -57.42 
L 24.083081 -57.42 
L 24.544839 -57.42 
L 25.006597 -57.42 
L 25.468355 -57.42 
L 25.930113 -57.42 
L 26.391871 -57.42 
L 26.853629 -57.42 
L 27.315387 -57.42 
L 27.777145 -57.42 
L 28.238903 -57.42 
L 28.700661 -57.42 
L 29.162419 -57.42 
L 29.624177 -57.42 
L 30.085935 -57.42 
L 30.547692 -57.42 
L 31.00945 -57.42 
L 31.471208 -57.42 
L 31.932966 -57.42 
L 32.394724 -57.42 
L 32.856482 -57.42 
L 33.31824 -57.42 
L 33.779998 -57.42 
L 34.241756 -57.42 
L 34.703514 -57.42 
L 35.165272 -57.42 
L 35.62703 -57.42 
L 36.088788 -57.42 
L 36.550546 -57.42 
L 37.012304 -57.42 
L 37.474062 -57.42 
L 37.93582 -57.42 
L 38.397578 -57.42 
L 38.859336 -57.42 
L 39.321093 -57.42 
L 39.782851 -57.42 
L 40.244609 -57.42 
L 40.706367 -57.42 
L 41.168125 -57.42 
L 41.629883 -57.42 
L 42.091641 -57.42 
L 42.553399 -57.42 
L 43.015157 -57.42 
L 43.476915 -57.42 
L 43.938673 -57.42 
L 44.400431 -57.42 
L 44.862189 -57.42 
L 45.323947 -57.42 
L 45.785705 -57.42 
L 46.247463 -57.42 
L 46.709221 -57.42 
L 47.170979 -57.42 
L 47.632737 -57.42 
L 48.094494 -57.42 
L 48.556252 -57.42 
L 49.01801 -57.42 
L 49.479768 -57.42 
L 49.941526 -57.42 
L 50.403284 -57.42 
L 50.865042 -57.42 
L 51.3268 -57.42 
L 51.788558 -57.42 
L 52.250316 -57.42 
L 52.712074 -57.42 
L 53.173832 -57.42 
L 53.63559 -57.42 
L 54.097348 -57.42 
L 54.559106 -57.42 
L 55.020864 -57.42 
L 55.482622 -57.42 
L 55.94438 -57.42 
L 56.406138 -57.42 
L 56.867895 -57.42 
L 57.329653 -57.42 
L 57.791411 -57.42 
L 58.253169 -57.42 
L 58.714927 -57.42 
L 59.176685 -57.42 
L 59.638443 -57.42 
L 60.100201 -57.42 
L 60.561959 -57.42 
L 61.023717 -57.42 
L 61.485475 -57.42 
L 61.947233 -57.42 
L 62.408991 -57.42 
L 62.870749 -57.42 
L 63.332507 -57.42 
L 63.794265 -57.42 
L 64.256023 -57.42 
L 64.717781 -57.42 
L 65.179539 -57.42 
L 65.641296 -57.42 
L 66.103054 -57.42 
L 66.564812 -57.42 
L 67.02657 -57.42 
L 67.488328 -57.42 
L 67.950086 -57.42 
L 68.411844 -57.42 
L 68.873602 -57.42 
L 69.33536 -57.42 
L 69.797118 -57.42 
L 70.258876 -57.42 
L 70.720634 -57.42 
L 71.182392 -57.42 
L 71.64415 -57.42 
L 72.105908 -57.42 
L 72.567666 -57.42 
L 73.029424 -57.42 
L 73.491182 -57.42 
L 73.95294 -57.42 
L 74.414697 -57.42 
L 74.876455 -57.42 
L 75.338213 -57.42 
L 75.799971 -57.42 
L 76.261729 -57.42 
L 76.723487 -57.42 
L 77.185245 -57.42 
L 77.647003 -57.42 
L 78.108761 -57.42 
L 78.570519 -57.42 
L 79.032277 -57.42 
L 79.494035 -57.42 
L 79.955793 -57.42 
L 80.417551 -57.42 
L 80.879309 -57.42 
L 81.341067 -57.42 
L 81.802825 -57.42 
L 82.264583 -57.42 
L 82.726341 -57.42 
L 83.188098 -57.42 
L 83.649856 -57.42 
L 84.111614 -57.42 
L 84.573372 -57.42 
L 85.03513 -57.42 
L 85.496888 -57.42 
L 85.958646 -57.42 
L 86.420404 -57.42 
L 86.882162 -57.42 
L 87.34392 -57.42 
L 87.805678 -57.42 
L 88.267436 -57.42 
L 88.729194 -57.42 
L 89.190952 -57.42 
L 89.65271 -57.42 
L 90.114468 -57.42 
L 90.576226 -57.42 
L 91.037984 -57.42 
L 91.499742 -57.42 
L 91.961499 -57.42 
L 92.423257 -57.42 
L 92.885015 -57.42 
L 93.346773 -57.42 
L 93.808531 -57.42 
L 94.270289 -57.42 
L 94.732047 -57.42 
L 95.193805 -57.42 
L 95.655563 -57.42 
L 95.655563 -57.619396 
L 95.655563 -57.619396 
L 95.193805 -57.911414 
L 94.732047 -58.542816 
L 94.270289 -59.800686 
L 93.808531 -62.109371 
L 93.346773 -66.012751 
L 92.885015 -72.091185 
L 92.423257 -80.807099 
L 91.961499 -92.311121 
L 91.499742 -106.280137 
L 91.037984 -121.87166 
L 90.576226 -137.845372 
L 90.114468 -152.830609 
L 89.65271 -165.646207 
L 89.190952 -175.551141 
L 88.729194 -182.339377 
L 88.267436 -186.267916 
L 87.805678 -187.877143 
L 87.34392 -187.791151 
L 86.882162 -186.56772 
L 86.420404 -184.625538 
L 85.958646 -182.238164 
L 85.496888 -179.565978 
L 85.03513 -176.698363 
L 84.573372 -173.688984 
L 84.111614 -170.578058 
L 83.649856 -167.402482 
L 83.188098 -164.197582 
L 82.726341 -160.994577 
L 82.264583 -157.817195 
L 81.802825 -154.679604 
L 81.341067 -151.586524 
L 80.879309 -148.535224 
L 80.417551 -145.51862 
L 79.955793 -142.528682 
L 79.494035 -139.559615 
L 79.032277 -136.61026 
L 78.570519 -133.685076 
L 78.108761 -130.793158 
L 77.647003 -127.945409 
L 77.185245 -125.150922 
L 76.723487 -122.414242 
L 76.261729 -119.734887 
L 75.799971 -117.109392 
L 75.338213 -114.534722 
L 74.876455 -112.011104 
L 74.414697 -109.542698 
L 73.95294 -107.13586 
L 73.491182 -104.796208 
L 73.029424 -102.526305 
L 72.567666 -100.325199 
L 72.105908 -98.189745 
L 71.64415 -96.116624 
L 71.182392 -94.103879 
L 70.720634 -92.151466 
L 70.258876 -90.261093 
L 69.797118 -88.435875 
L 69.33536 -86.680046 
L 68.873602 -84.998578 
L 68.411844 -83.396378 
L 67.950086 -81.876949 
L 67.488328 -80.440826 
L 67.02657 -79.084472 
L 66.564812 -77.800352 
L 66.103054 -76.578503 
L 65.641296 -75.409193 
L 65.179539 -74.285635 
L 64.717781 -73.205582 
L 64.256023 -72.171139 
L 63.794265 -71.187026 
L 63.332507 -70.25816 
L 62.870749 -69.387578 
L 62.408991 -68.575371 
L 61.947233 -67.818717 
L 61.485475 -67.112741 
L 61.023717 -66.451768 
L 60.561959 -65.830557 
L 60.100201 -65.245173 
L 59.638443 -64.693287 
L 59.176685 -64.173886 
L 58.714927 -63.686601 
L 58.253169 -63.231033 
L 57.791411 -62.806372 
L 57.329653 -62.411392 
L 56.867895 -62.044672 
L 56.406138 -61.70478 
L 55.94438 -61.39028 
L 55.482622 -61.099586 
L 55.020864 -60.830824 
L 54.559106 -60.581833 
L 54.097348 -60.350323 
L 53.63559 -60.134139 
L 53.173832 -59.931508 
L 52.712074 -59.74122 
L 52.250316 -59.562691 
L 51.788558 -59.395897 
L 51.3268 -59.241138 
L 50.865042 -59.098685 
L 50.403284 -58.968399 
L 49.941526 -58.849496 
L 49.479768 -58.740572 
L 49.01801 -58.639908 
L 48.556252 -58.545921 
L 48.094494 -58.457561 
L 47.632737 -58.374482 
L 47.170979 -58.296933 
L 46.709221 -58.225421 
L 46.247463 -58.160316 
L 45.785705 -58.101546 
L 45.323947 -58.04852 
L 44.862189 -58.000267 
L 44.400431 -57.955712 
L 43.938673 -57.913943 
L 43.476915 -57.87437 
L 43.015157 -57.836734 
L 42.553399 -57.801035 
L 42.091641 -57.767445 
L 41.629883 -57.736244 
L 41.168125 -57.707754 
L 40.706367 -57.682237 
L 40.244609 -57.659761 
L 39.782851 -57.640085 
L 39.321093 -57.622657 
L 38.859336 -57.60675 
L 38.397578 -57.59169 
L 37.93582 -57.577076 
L 37.474062 -57.562877 
L 37.012304 -57.549371 
L 36.550546 -57.536968 
L 36.088788 -57.525999 
L 35.62703 -57.51657 
L 35.165272 -57.508529 
L 34.703514 -57.50154 
L 34.241756 -57.495206 
L 33.779998 -57.489201 
L 33.31824 -57.483342 
L 32.856482 -57.477598 
L 32.394724 -57.472046 
L 31.932966 -57.466794 
L 31.471208 -57.461916 
L 31.00945 -57.457428 
L 30.547692 -57.453299 
L 30.085935 -57.449501 
L 29.624177 -57.446042 
L 29.162419 -57.44298 
L 28.700661 -57.440393 
L 28.238903 -57.438335 
L 27.777145 -57.436792 
L 27.315387 -57.43568 
L 26.853629 -57.434865 
L 26.391871 -57.434204 
L 25.930113 -57.433574 
L 25.468355 -57.432891 
L 25.006597 -57.432114 
L 24.544839 -57.431243 
L 24.083081 -57.430301 
L 23.621323 -57.429335 
L 23.159565 -57.428395 
L 22.697807 -57.427525 
L 22.236049 -57.426751 
L 21.774291 -57.426074 
L 21.312534 -57.425478 
L 20.850776 -57.424936 
L 20.389018 -57.424424 
L 19.92726 -57.423931 
L 19.465502 -57.423457 
L 19.003744 -57.423012 
L 18.541986 -57.422608 
L 18.080228 -57.422252 
L 17.61847 -57.421952 
L 17.156712 -57.421706 
L 16.694954 -57.421511 
L 16.233196 -57.421358 
L 15.771438 -57.421233 
L 15.30968 -57.42112 
L 14.847922 -57.421004 
L 14.386164 -57.420877 
L 13.924406 -57.420737 
L 13.462648 -57.420595 
L 13.00089 -57.420464 
L 12.539133 -57.420362 
L 12.077375 -57.420304 
L 11.615617 -57.420304 
L 11.153859 -57.420364 
L 10.692101 -57.42048 
L 10.230343 -57.420635 
L 9.768585 -57.420799 
L 9.306827 -57.420938 
L 8.845069 -57.421018 
L 8.383311 -57.42102 
L 7.921553 -57.420941 
L 7.459795 -57.420801 
L 6.998037 -57.420627 
L 6.536279 -57.420453 
L 6.074521 -57.420301 
L 5.612763 -57.420184 
L 5.151005 -57.420104 
L 4.689247 -57.420054 
L 4.227489 -57.420026 
L 3.765732 -57.420011 
z
" style="stroke: #9c179e"/>
    </defs>
    <g clip-path="url(#p99db71ba92)">
     <use xlink:href="#mab7e303d4e" x="0" y="216" style="fill: #9c179e; fill-opacity: 0.25; stroke: #9c179e"/>
    </g>
   </g>
   <g id="PolyCollection_2">
    <defs>
     <path id="me6107a7f4b" d="M 18.302193 -57.420008 
L 18.302193 -57.42 
L 18.86086 -57.42 
L 19.419528 -57.42 
L 19.978196 -57.42 
L 20.536864 -57.42 
L 21.095532 -57.42 
L 21.6542 -57.42 
L 22.212867 -57.42 
L 22.771535 -57.42 
L 23.330203 -57.42 
L 23.888871 -57.42 
L 24.447539 -57.42 
L 25.006206 -57.42 
L 25.564874 -57.42 
L 26.123542 -57.42 
L 26.68221 -57.42 
L 27.240878 -57.42 
L 27.799545 -57.42 
L 28.358213 -57.42 
L 28.916881 -57.42 
L 29.475549 -57.42 
L 30.034217 -57.42 
L 30.592885 -57.42 
L 31.151552 -57.42 
L 31.71022 -57.42 
L 32.268888 -57.42 
L 32.827556 -57.42 
L 33.386224 -57.42 
L 33.944891 -57.42 
L 34.503559 -57.42 
L 35.062227 -57.42 
L 35.620895 -57.42 
L 36.179563 -57.42 
L 36.738231 -57.42 
L 37.296898 -57.42 
L 37.855566 -57.42 
L 38.414234 -57.42 
L 38.972902 -57.42 
L 39.53157 -57.42 
L 40.090237 -57.42 
L 40.648905 -57.42 
L 41.207573 -57.42 
L 41.766241 -57.42 
L 42.324909 -57.42 
L 42.883576 -57.42 
L 43.442244 -57.42 
L 44.000912 -57.42 
L 44.55958 -57.42 
L 45.118248 -57.42 
L 45.676916 -57.42 
L 46.235583 -57.42 
L 46.794251 -57.42 
L 47.352919 -57.42 
L 47.911587 -57.42 
L 48.470255 -57.42 
L 49.028922 -57.42 
L 49.58759 -57.42 
L 50.146258 -57.42 
L 50.704926 -57.42 
L 51.263594 -57.42 
L 51.822262 -57.42 
L 52.380929 -57.42 
L 52.939597 -57.42 
L 53.498265 -57.42 
L 54.056933 -57.42 
L 54.615601 -57.42 
L 55.174268 -57.42 
L 55.732936 -57.42 
L 56.291604 -57.42 
L 56.850272 -57.42 
L 57.40894 -57.42 
L 57.967608 -57.42 
L 58.526275 -57.42 
L 59.084943 -57.42 
L 59.643611 -57.42 
L 60.202279 -57.42 
L 60.760947 -57.42 
L 61.319614 -57.42 
L 61.878282 -57.42 
L 62.43695 -57.42 
L 62.995618 -57.42 
L 63.554286 -57.42 
L 64.112953 -57.42 
L 64.671621 -57.42 
L 65.230289 -57.42 
L 65.788957 -57.42 
L 66.347625 -57.42 
L 66.906293 -57.42 
L 67.46496 -57.42 
L 68.023628 -57.42 
L 68.582296 -57.42 
L 69.140964 -57.42 
L 69.699632 -57.42 
L 70.258299 -57.42 
L 70.816967 -57.42 
L 71.375635 -57.42 
L 71.934303 -57.42 
L 72.492971 -57.42 
L 73.051639 -57.42 
L 73.610306 -57.42 
L 74.168974 -57.42 
L 74.727642 -57.42 
L 75.28631 -57.42 
L 75.844978 -57.42 
L 76.403645 -57.42 
L 76.962313 -57.42 
L 77.520981 -57.42 
L 78.079649 -57.42 
L 78.638317 -57.42 
L 79.196984 -57.42 
L 79.755652 -57.42 
L 80.31432 -57.42 
L 80.872988 -57.42 
L 81.431656 -57.42 
L 81.990324 -57.42 
L 82.548991 -57.42 
L 83.107659 -57.42 
L 83.666327 -57.42 
L 84.224995 -57.42 
L 84.783663 -57.42 
L 85.34233 -57.42 
L 85.900998 -57.42 
L 86.459666 -57.42 
L 87.018334 -57.42 
L 87.577002 -57.42 
L 88.13567 -57.42 
L 88.694337 -57.42 
L 89.253005 -57.42 
L 89.811673 -57.42 
L 90.370341 -57.42 
L 90.929009 -57.42 
L 91.487676 -57.42 
L 92.046344 -57.42 
L 92.605012 -57.42 
L 93.16368 -57.42 
L 93.722348 -57.42 
L 94.281016 -57.42 
L 94.839683 -57.42 
L 95.398351 -57.42 
L 95.957019 -57.42 
L 96.515687 -57.42 
L 97.074355 -57.42 
L 97.633022 -57.42 
L 98.19169 -57.42 
L 98.750358 -57.42 
L 99.309026 -57.42 
L 99.867694 -57.42 
L 100.426361 -57.42 
L 100.985029 -57.42 
L 101.543697 -57.42 
L 102.102365 -57.42 
L 102.661033 -57.42 
L 103.219701 -57.42 
L 103.778368 -57.42 
L 104.337036 -57.42 
L 104.895704 -57.42 
L 105.454372 -57.42 
L 106.01304 -57.42 
L 106.571707 -57.42 
L 107.130375 -57.42 
L 107.689043 -57.42 
L 108.247711 -57.42 
L 108.806379 -57.42 
L 109.365047 -57.42 
L 109.923714 -57.42 
L 110.482382 -57.42 
L 111.04105 -57.42 
L 111.599718 -57.42 
L 112.158386 -57.42 
L 112.717053 -57.42 
L 113.275721 -57.42 
L 113.834389 -57.42 
L 114.393057 -57.42 
L 114.951725 -57.42 
L 115.510393 -57.42 
L 116.06906 -57.42 
L 116.627728 -57.42 
L 117.186396 -57.42 
L 117.745064 -57.42 
L 118.303732 -57.42 
L 118.862399 -57.42 
L 119.421067 -57.42 
L 119.979735 -57.42 
L 120.538403 -57.42 
L 121.097071 -57.42 
L 121.655738 -57.42 
L 122.214406 -57.42 
L 122.773074 -57.42 
L 123.331742 -57.42 
L 123.89041 -57.42 
L 124.449078 -57.42 
L 125.007745 -57.42 
L 125.566413 -57.42 
L 126.125081 -57.42 
L 126.683749 -57.42 
L 127.242417 -57.42 
L 127.801084 -57.42 
L 128.359752 -57.42 
L 128.91842 -57.42 
L 129.477088 -57.42 
L 129.477088 -57.480781 
L 129.477088 -57.480781 
L 128.91842 -57.534996 
L 128.359752 -57.629723 
L 127.801084 -57.788803 
L 127.242417 -58.045579 
L 126.683749 -58.443969 
L 126.125081 -59.03811 
L 125.566413 -59.889879 
L 125.007745 -61.063773 
L 124.449078 -62.61918 
L 123.89041 -64.600737 
L 123.331742 -67.028276 
L 122.773074 -69.88841 
L 122.214406 -73.129933 
L 121.655738 -76.664686 
L 121.097071 -80.374527 
L 120.538403 -84.123591 
L 119.979735 -87.773757 
L 119.421067 -91.200417 
L 118.862399 -94.305585 
L 118.303732 -97.026101 
L 117.745064 -99.335914 
L 117.186396 -101.242812 
L 116.627728 -102.781056 
L 116.06906 -104.001926 
L 115.510393 -104.964197 
L 114.951725 -105.726085 
L 114.393057 -106.339509 
L 113.834389 -106.846877 
L 113.275721 -107.280074 
L 112.717053 -107.661101 
L 112.158386 -108.003701 
L 111.599718 -108.315426 
L 111.04105 -108.599698 
L 110.482382 -108.857576 
L 109.923714 -109.089086 
L 109.365047 -109.294059 
L 108.806379 -109.47253 
L 108.247711 -109.624809 
L 107.689043 -109.751338 
L 107.130375 -109.852494 
L 106.571707 -109.928411 
L 106.01304 -109.978902 
L 105.454372 -110.003496 
L 104.895704 -110.00154 
L 104.337036 -109.972349 
L 103.778368 -109.915335 
L 103.219701 -109.830074 
L 102.661033 -109.716313 
L 102.102365 -109.573901 
L 101.543697 -109.402693 
L 100.985029 -109.202452 
L 100.426361 -108.972787 
L 99.867694 -108.713131 
L 99.309026 -108.422768 
L 98.750358 -108.100871 
L 98.19169 -107.746543 
L 97.633022 -107.358821 
L 97.074355 -106.936676 
L 96.515687 -106.479013 
L 95.957019 -105.984714 
L 95.398351 -105.452746 
L 94.839683 -104.882337 
L 94.281016 -104.273181 
L 93.722348 -103.625624 
L 93.16368 -102.94076 
L 92.605012 -102.220401 
L 92.046344 -101.466912 
L 91.487676 -100.682939 
L 90.929009 -99.871112 
L 90.370341 -99.033784 
L 89.811673 -98.172901 
L 89.253005 -97.290007 
L 88.694337 -96.3864 
L 88.13567 -95.463362 
L 87.577002 -94.522411 
L 87.018334 -93.565471 
L 86.459666 -92.594931 
L 85.900998 -91.613533 
L 85.34233 -90.624159 
L 84.783663 -89.629526 
L 84.224995 -88.631914 
L 83.666327 -87.632966 
L 83.107659 -86.633637 
L 82.548991 -85.634299 
L 81.990324 -84.634982 
L 81.431656 -83.635692 
L 80.872988 -82.636734 
L 80.31432 -81.638966 
L 79.755652 -80.64394 
L 79.196984 -79.653904 
L 78.638317 -78.671681 
L 78.079649 -77.700458 
L 77.520981 -76.743534 
L 76.962313 -75.804078 
L 76.403645 -74.884922 
L 75.844978 -73.988433 
L 75.28631 -73.116448 
L 74.727642 -72.270293 
L 74.168974 -71.450846 
L 73.610306 -70.658658 
L 73.051639 -69.894075 
L 72.492971 -69.157361 
L 71.934303 -68.448785 
L 71.375635 -67.768655 
L 70.816967 -67.117314 
L 70.258299 -66.495091 
L 69.699632 -65.902227 
L 69.140964 -65.338817 
L 68.582296 -64.804748 
L 68.023628 -64.299678 
L 67.46496 -63.823025 
L 66.906293 -63.373982 
L 66.347625 -62.951539 
L 65.788957 -62.55452 
L 65.230289 -62.181636 
L 64.671621 -61.831544 
L 64.112953 -61.502921 
L 63.554286 -61.194531 
L 62.995618 -60.905289 
L 62.43695 -60.634293 
L 61.878282 -60.380833 
L 61.319614 -60.144354 
L 60.760947 -59.924402 
L 60.202279 -59.720553 
L 59.643611 -59.532331 
L 59.084943 -59.359154 
L 58.526275 -59.200292 
L 57.967608 -59.054855 
L 57.40894 -58.921815 
L 56.850272 -58.800045 
L 56.291604 -58.688379 
L 55.732936 -58.585683 
L 55.174268 -58.490918 
L 54.615601 -58.403194 
L 54.056933 -58.321803 
L 53.498265 -58.246224 
L 52.939597 -58.176102 
L 52.380929 -58.111206 
L 51.822262 -58.05137 
L 51.263594 -57.996435 
L 50.704926 -57.9462 
L 50.146258 -57.900394 
L 49.58759 -57.858672 
L 49.028922 -57.820635 
L 48.470255 -57.785864 
L 47.911587 -57.753968 
L 47.352919 -57.724613 
L 46.794251 -57.697549 
L 46.235583 -57.672607 
L 45.676916 -57.649685 
L 45.118248 -57.62872 
L 44.55958 -57.609655 
L 44.000912 -57.592415 
L 43.442244 -57.576889 
L 42.883576 -57.562928 
L 42.324909 -57.550354 
L 41.766241 -57.538968 
L 41.207573 -57.528571 
L 40.648905 -57.518974 
L 40.090237 -57.510016 
L 39.53157 -57.501563 
L 38.972902 -57.493523 
L 38.414234 -57.485839 
L 37.855566 -57.478494 
L 37.296898 -57.471504 
L 36.738231 -57.464908 
L 36.179563 -57.458759 
L 35.620895 -57.453111 
L 35.062227 -57.448012 
L 34.503559 -57.44349 
L 33.944891 -57.439553 
L 33.386224 -57.436186 
L 32.827556 -57.433354 
L 32.268888 -57.431003 
L 31.71022 -57.429071 
L 31.151552 -57.427493 
L 30.592885 -57.426204 
L 30.034217 -57.425148 
L 29.475549 -57.424278 
L 28.916881 -57.423556 
L 28.358213 -57.422952 
L 27.799545 -57.422446 
L 27.240878 -57.422019 
L 26.68221 -57.421658 
L 26.123542 -57.421353 
L 25.564874 -57.421094 
L 25.006206 -57.420874 
L 24.447539 -57.420687 
L 23.888871 -57.42053 
L 23.330203 -57.4204 
L 22.771535 -57.420294 
L 22.212867 -57.42021 
L 21.6542 -57.420146 
L 21.095532 -57.420098 
L 20.536864 -57.420063 
L 19.978196 -57.420039 
L 19.419528 -57.420024 
L 18.86086 -57.420014 
L 18.302193 -57.420008 
z
" style="stroke: #ed7953"/>
    </defs>
    <g clip-path="url(#p99db71ba92)">
     <use xlink:href="#me6107a7f4b" x="0" y="216" style="fill: #ed7953; fill-opacity: 0.25; stroke: #ed7953"/>
    </g>
   </g>
   <g id="line2d_1">
    <path d="M 82.780571 158.58 
L 82.780571 21.6 
" clip-path="url(#p99db71ba92)" style="fill: none; stroke: #800080; stroke-width: 1.5; stroke-linecap: round"/>
   </g>
   <g id="line2d_2">
    <path d="M 100.479157 158.58 
L 100.479157 21.6 
" clip-path="url(#p99db71ba92)" style="fill: none; stroke: #ffa500; stroke-width: 1.5; stroke-linecap: round"/>
   </g>
   <g id="patch_3">
    <path d="M 12.96 158.58 
L 12.96 21.6 
" style="fill: none; stroke: #262626; stroke-width: 1.25; stroke-linejoin: miter; stroke-linecap: square"/>
   </g>
   <g id="patch_4">
    <path d="M 12.96 158.58 
L 203.717589 158.58 
" style="fill: none; stroke: #262626; stroke-width: 1.25; stroke-linejoin: miter; stroke-linecap: square"/>
   </g>
  </g>
  <g id="axes_2">
   <g id="patch_5">
    <path d="M 227.845713 158.58 
L 418.603302 158.58 
L 418.603302 21.6 
L 227.845713 21.6 
L 227.845713 158.58 
z
" style="fill: none"/>
   </g>
   <g id="matplotlib.axis_3">
    <g id="xtick_4">
     <g id="text_4">
      <!-- −15 -->
      <g style="fill: #262626" transform="translate(229.748116 179.890391) scale(0.165 -0.165)">
       <use xlink:href="#ArialMT-2212"/>
       <use xlink:href="#ArialMT-31" x="58.398438"/>
       <use xlink:href="#ArialMT-35" x="114.013672"/>
      </g>
     </g>
    </g>
    <g id="xtick_5">
     <g id="text_5">
      <!-- −10 -->
      <g style="fill: #262626" transform="translate(309.230445 179.890391) scale(0.165 -0.165)">
       <use xlink:href="#ArialMT-2212"/>
       <use xlink:href="#ArialMT-31" x="58.398438"/>
       <use xlink:href="#ArialMT-30" x="114.013672"/>
      </g>
     </g>
    </g>
    <g id="xtick_6">
     <g id="text_6">
      <!-- −5 -->
      <g style="fill: #262626" transform="translate(393.300547 179.890391) scale(0.165 -0.165)">
       <use xlink:href="#ArialMT-2212"/>
       <use xlink:href="#ArialMT-35" x="58.398438"/>
      </g>
     </g>
    </g>
   </g>
   <g id="matplotlib.axis_4"/>
   <g id="PolyCollection_3">
    <defs>
     <path id="me16f960b57" d="M 266.582593 -57.420005 
L 266.582593 -57.42 
L 266.95198 -57.42 
L 267.321367 -57.42 
L 267.690753 -57.42 
L 268.06014 -57.42 
L 268.429527 -57.42 
L 268.798914 -57.42 
L 269.1683 -57.42 
L 269.537687 -57.42 
L 269.907074 -57.42 
L 270.276461 -57.42 
L 270.645847 -57.42 
L 271.015234 -57.42 
L 271.384621 -57.42 
L 271.754008 -57.42 
L 272.123394 -57.42 
L 272.492781 -57.42 
L 272.862168 -57.42 
L 273.231555 -57.42 
L 273.600941 -57.42 
L 273.970328 -57.42 
L 274.339715 -57.42 
L 274.709102 -57.42 
L 275.078488 -57.42 
L 275.447875 -57.42 
L 275.817262 -57.42 
L 276.186649 -57.42 
L 276.556035 -57.42 
L 276.925422 -57.42 
L 277.294809 -57.42 
L 277.664196 -57.42 
L 278.033582 -57.42 
L 278.402969 -57.42 
L 278.772356 -57.42 
L 279.141742 -57.42 
L 279.511129 -57.42 
L 279.880516 -57.42 
L 280.249903 -57.42 
L 280.619289 -57.42 
L 280.988676 -57.42 
L 281.358063 -57.42 
L 281.72745 -57.42 
L 282.096836 -57.42 
L 282.466223 -57.42 
L 282.83561 -57.42 
L 283.204997 -57.42 
L 283.574383 -57.42 
L 283.94377 -57.42 
L 284.313157 -57.42 
L 284.682544 -57.42 
L 285.05193 -57.42 
L 285.421317 -57.42 
L 285.790704 -57.42 
L 286.160091 -57.42 
L 286.529477 -57.42 
L 286.898864 -57.42 
L 287.268251 -57.42 
L 287.637638 -57.42 
L 288.007024 -57.42 
L 288.376411 -57.42 
L 288.745798 -57.42 
L 289.115185 -57.42 
L 289.484571 -57.42 
L 289.853958 -57.42 
L 290.223345 -57.42 
L 290.592732 -57.42 
L 290.962118 -57.42 
L 291.331505 -57.42 
L 291.700892 -57.42 
L 292.070279 -57.42 
L 292.439665 -57.42 
L 292.809052 -57.42 
L 293.178439 -57.42 
L 293.547826 -57.42 
L 293.917212 -57.42 
L 294.286599 -57.42 
L 294.655986 -57.42 
L 295.025373 -57.42 
L 295.394759 -57.42 
L 295.764146 -57.42 
L 296.133533 -57.42 
L 296.50292 -57.42 
L 296.872306 -57.42 
L 297.241693 -57.42 
L 297.61108 -57.42 
L 297.980467 -57.42 
L 298.349853 -57.42 
L 298.71924 -57.42 
L 299.088627 -57.42 
L 299.458014 -57.42 
L 299.8274 -57.42 
L 300.196787 -57.42 
L 300.566174 -57.42 
L 300.935561 -57.42 
L 301.304947 -57.42 
L 301.674334 -57.42 
L 302.043721 -57.42 
L 302.413108 -57.42 
L 302.782494 -57.42 
L 303.151881 -57.42 
L 303.521268 -57.42 
L 303.890655 -57.42 
L 304.260041 -57.42 
L 304.629428 -57.42 
L 304.998815 -57.42 
L 305.368202 -57.42 
L 305.737588 -57.42 
L 306.106975 -57.42 
L 306.476362 -57.42 
L 306.845749 -57.42 
L 307.215135 -57.42 
L 307.584522 -57.42 
L 307.953909 -57.42 
L 308.323296 -57.42 
L 308.692682 -57.42 
L 309.062069 -57.42 
L 309.431456 -57.42 
L 309.800843 -57.42 
L 310.170229 -57.42 
L 310.539616 -57.42 
L 310.909003 -57.42 
L 311.27839 -57.42 
L 311.647776 -57.42 
L 312.017163 -57.42 
L 312.38655 -57.42 
L 312.755937 -57.42 
L 313.125323 -57.42 
L 313.49471 -57.42 
L 313.864097 -57.42 
L 314.233484 -57.42 
L 314.60287 -57.42 
L 314.972257 -57.42 
L 315.341644 -57.42 
L 315.711031 -57.42 
L 316.080417 -57.42 
L 316.449804 -57.42 
L 316.819191 -57.42 
L 317.188578 -57.42 
L 317.557964 -57.42 
L 317.927351 -57.42 
L 318.296738 -57.42 
L 318.666125 -57.42 
L 319.035511 -57.42 
L 319.404898 -57.42 
L 319.774285 -57.42 
L 320.143672 -57.42 
L 320.513058 -57.42 
L 320.882445 -57.42 
L 321.251832 -57.42 
L 321.621219 -57.42 
L 321.990605 -57.42 
L 322.359992 -57.42 
L 322.729379 -57.42 
L 323.098766 -57.42 
L 323.468152 -57.42 
L 323.837539 -57.42 
L 324.206926 -57.42 
L 324.576313 -57.42 
L 324.945699 -57.42 
L 325.315086 -57.42 
L 325.684473 -57.42 
L 326.05386 -57.42 
L 326.423246 -57.42 
L 326.792633 -57.42 
L 327.16202 -57.42 
L 327.531407 -57.42 
L 327.900793 -57.42 
L 328.27018 -57.42 
L 328.639567 -57.42 
L 329.008954 -57.42 
L 329.37834 -57.42 
L 329.747727 -57.42 
L 330.117114 -57.42 
L 330.486501 -57.42 
L 330.855887 -57.42 
L 331.225274 -57.42 
L 331.594661 -57.42 
L 331.964048 -57.42 
L 332.333434 -57.42 
L 332.702821 -57.42 
L 333.072208 -57.42 
L 333.441595 -57.42 
L 333.810981 -57.42 
L 334.180368 -57.42 
L 334.549755 -57.42 
L 334.919142 -57.42 
L 335.288528 -57.42 
L 335.657915 -57.42 
L 336.027302 -57.42 
L 336.396689 -57.42 
L 336.766075 -57.42 
L 337.135462 -57.42 
L 337.504849 -57.42 
L 337.874236 -57.42 
L 338.243622 -57.42 
L 338.613009 -57.42 
L 338.982396 -57.42 
L 339.351783 -57.42 
L 339.721169 -57.42 
L 340.090556 -57.42 
L 340.090556 -57.626659 
L 340.090556 -57.626659 
L 339.721169 -57.897127 
L 339.351783 -58.452348 
L 338.982396 -59.514795 
L 338.613009 -61.40977 
L 338.243622 -64.559727 
L 337.874236 -69.43884 
L 337.504849 -76.479529 
L 337.135462 -85.941637 
L 336.766075 -97.778996 
L 336.396689 -111.554554 
L 336.027302 -126.450761 
L 335.657915 -141.392144 
L 335.288528 -155.252385 
L 334.919142 -167.080975 
L 334.549755 -176.274928 
L 334.180368 -182.645083 
L 333.810981 -186.370691 
L 333.441595 -187.877143 
L 333.072208 -187.690959 
L 332.702821 -186.319431 
L 332.333434 -184.17922 
L 331.964048 -181.573652 
L 331.594661 -178.703248 
L 331.225274 -175.690733 
L 330.855887 -172.606732 
L 330.486501 -169.489673 
L 330.117114 -166.359143 
L 329.747727 -163.224425 
L 329.37834 -160.090188 
L 329.008954 -156.960387 
L 328.639567 -153.840668 
L 328.27018 -150.739227 
L 327.900793 -147.666154 
L 327.531407 -144.631699 
L 327.16202 -141.644175 
L 326.792633 -138.708421 
L 326.423246 -135.825506 
L 326.05386 -132.99383 
L 325.684473 -130.211116 
L 325.315086 -127.476367 
L 324.945699 -124.790927 
L 324.576313 -122.158314 
L 324.206926 -119.583147 
L 323.837539 -117.069844 
L 323.468152 -114.621712 
L 323.098766 -112.240671 
L 322.729379 -109.927452 
L 322.359992 -107.681971 
L 321.990605 -105.503678 
L 321.621219 -103.391848 
L 321.251832 -101.345871 
L 320.882445 -99.365564 
L 320.513058 -97.451402 
L 320.143672 -95.604481 
L 319.774285 -93.826088 
L 319.404898 -92.116919 
L 319.035511 -90.476201 
L 318.666125 -88.9011 
L 318.296738 -87.386774 
L 317.927351 -85.927136 
L 317.557964 -84.516134 
L 317.188578 -83.149056 
L 316.819191 -81.823384 
L 316.449804 -80.538921 
L 316.080417 -79.297263 
L 315.711031 -78.100907 
L 315.341644 -76.952411 
L 314.972257 -75.853855 
L 314.60287 -74.80666 
L 314.233484 -73.81163 
L 313.864097 -72.869028 
L 313.49471 -71.978567 
L 313.125323 -71.139296 
L 312.755937 -70.349481 
L 312.38655 -69.606619 
L 312.017163 -68.907636 
L 311.647776 -68.249246 
L 311.27839 -67.628329 
L 310.909003 -67.042147 
L 310.539616 -66.488305 
L 310.170229 -65.964468 
L 309.800843 -65.468035 
L 309.431456 -64.995992 
L 309.062069 -64.545118 
L 308.692682 -64.112506 
L 308.323296 -63.696183 
L 307.953909 -63.29553 
L 307.584522 -62.91127 
L 307.215135 -62.54503 
L 306.845749 -62.198641 
L 306.476362 -61.873468 
L 306.106975 -61.569984 
L 305.737588 -61.287673 
L 305.368202 -61.025225 
L 304.998815 -60.780887 
L 304.629428 -60.552832 
L 304.260041 -60.339444 
L 303.890655 -60.139445 
L 303.521268 -59.951863 
L 303.151881 -59.775907 
L 302.782494 -59.610831 
L 302.413108 -59.455887 
L 302.043721 -59.31039 
L 301.674334 -59.173841 
L 301.304947 -59.045999 
L 300.935561 -58.926828 
L 300.566174 -58.816307 
L 300.196787 -58.714197 
L 299.8274 -58.619879 
L 299.458014 -58.53236 
L 299.088627 -58.450456 
L 298.71924 -58.373066 
L 298.349853 -58.299453 
L 297.980467 -58.229406 
L 297.61108 -58.163247 
L 297.241693 -58.101685 
L 296.872306 -58.045534 
L 296.50292 -57.995391 
L 296.133533 -57.951368 
L 295.764146 -57.912967 
L 295.394759 -57.879147 
L 295.025373 -57.848594 
L 294.655986 -57.820065 
L 294.286599 -57.792699 
L 293.917212 -57.76616 
L 293.547826 -57.740576 
L 293.178439 -57.716315 
L 292.809052 -57.693733 
L 292.439665 -57.672998 
L 292.070279 -57.654053 
L 291.700892 -57.636697 
L 291.331505 -57.620702 
L 290.962118 -57.605903 
L 290.592732 -57.592203 
L 290.223345 -57.57953 
L 289.853958 -57.567778 
L 289.484571 -57.556771 
L 289.115185 -57.546283 
L 288.745798 -57.53609 
L 288.376411 -57.526029 
L 288.007024 -57.516048 
L 287.637638 -57.506213 
L 287.268251 -57.496695 
L 286.898864 -57.487719 
L 286.529477 -57.479515 
L 286.160091 -57.47225 
L 285.790704 -57.465996 
L 285.421317 -57.460708 
L 285.05193 -57.456242 
L 284.682544 -57.452396 
L 284.313157 -57.448962 
L 283.94377 -57.445776 
L 283.574383 -57.442747 
L 283.204997 -57.439872 
L 282.83561 -57.437207 
L 282.466223 -57.434842 
L 282.096836 -57.432859 
L 281.72745 -57.431298 
L 281.358063 -57.430154 
L 280.988676 -57.429374 
L 280.619289 -57.428876 
L 280.249903 -57.428573 
L 279.880516 -57.428381 
L 279.511129 -57.428231 
L 279.141742 -57.428069 
L 278.772356 -57.427849 
L 278.402969 -57.42754 
L 278.033582 -57.427121 
L 277.664196 -57.426592 
L 277.294809 -57.425971 
L 276.925422 -57.425295 
L 276.556035 -57.424608 
L 276.186649 -57.423955 
L 275.817262 -57.423369 
L 275.447875 -57.422867 
L 275.078488 -57.422446 
L 274.709102 -57.422095 
L 274.339715 -57.421796 
L 273.970328 -57.421535 
L 273.600941 -57.421304 
L 273.231555 -57.421103 
L 272.862168 -57.420935 
L 272.492781 -57.420807 
L 272.123394 -57.420718 
L 271.754008 -57.420661 
L 271.384621 -57.420623 
L 271.015234 -57.420591 
L 270.645847 -57.420551 
L 270.276461 -57.420495 
L 269.907074 -57.420423 
L 269.537687 -57.420342 
L 269.1683 -57.420259 
L 268.798914 -57.420183 
L 268.429527 -57.420121 
L 268.06014 -57.420075 
L 267.690753 -57.420043 
L 267.321367 -57.420023 
L 266.95198 -57.420012 
L 266.582593 -57.420005 
z
" style="stroke: #9c179e"/>
    </defs>
    <g clip-path="url(#pe061d29e96)">
     <use xlink:href="#me16f960b57" x="0" y="216" style="fill: #9c179e; fill-opacity: 0.25; stroke: #9c179e"/>
    </g>
   </g>
   <g id="PolyCollection_4">
    <defs>
     <path id="mbdd4fcc604" d="M 268.293253 -57.420017 
L 268.293253 -57.42 
L 268.770908 -57.42 
L 269.248563 -57.42 
L 269.726217 -57.42 
L 270.203872 -57.42 
L 270.681527 -57.42 
L 271.159182 -57.42 
L 271.636836 -57.42 
L 272.114491 -57.42 
L 272.592146 -57.42 
L 273.0698 -57.42 
L 273.547455 -57.42 
L 274.02511 -57.42 
L 274.502765 -57.42 
L 274.980419 -57.42 
L 275.458074 -57.42 
L 275.935729 -57.42 
L 276.413384 -57.42 
L 276.891038 -57.42 
L 277.368693 -57.42 
L 277.846348 -57.42 
L 278.324003 -57.42 
L 278.801657 -57.42 
L 279.279312 -57.42 
L 279.756967 -57.42 
L 280.234621 -57.42 
L 280.712276 -57.42 
L 281.189931 -57.42 
L 281.667586 -57.42 
L 282.14524 -57.42 
L 282.622895 -57.42 
L 283.10055 -57.42 
L 283.578205 -57.42 
L 284.055859 -57.42 
L 284.533514 -57.42 
L 285.011169 -57.42 
L 285.488823 -57.42 
L 285.966478 -57.42 
L 286.444133 -57.42 
L 286.921788 -57.42 
L 287.399442 -57.42 
L 287.877097 -57.42 
L 288.354752 -57.42 
L 288.832407 -57.42 
L 289.310061 -57.42 
L 289.787716 -57.42 
L 290.265371 -57.42 
L 290.743025 -57.42 
L 291.22068 -57.42 
L 291.698335 -57.42 
L 292.17599 -57.42 
L 292.653644 -57.42 
L 293.131299 -57.42 
L 293.608954 -57.42 
L 294.086609 -57.42 
L 294.564263 -57.42 
L 295.041918 -57.42 
L 295.519573 -57.42 
L 295.997228 -57.42 
L 296.474882 -57.42 
L 296.952537 -57.42 
L 297.430192 -57.42 
L 297.907846 -57.42 
L 298.385501 -57.42 
L 298.863156 -57.42 
L 299.340811 -57.42 
L 299.818465 -57.42 
L 300.29612 -57.42 
L 300.773775 -57.42 
L 301.25143 -57.42 
L 301.729084 -57.42 
L 302.206739 -57.42 
L 302.684394 -57.42 
L 303.162048 -57.42 
L 303.639703 -57.42 
L 304.117358 -57.42 
L 304.595013 -57.42 
L 305.072667 -57.42 
L 305.550322 -57.42 
L 306.027977 -57.42 
L 306.505632 -57.42 
L 306.983286 -57.42 
L 307.460941 -57.42 
L 307.938596 -57.42 
L 308.416251 -57.42 
L 308.893905 -57.42 
L 309.37156 -57.42 
L 309.849215 -57.42 
L 310.326869 -57.42 
L 310.804524 -57.42 
L 311.282179 -57.42 
L 311.759834 -57.42 
L 312.237488 -57.42 
L 312.715143 -57.42 
L 313.192798 -57.42 
L 313.670453 -57.42 
L 314.148107 -57.42 
L 314.625762 -57.42 
L 315.103417 -57.42 
L 315.581071 -57.42 
L 316.058726 -57.42 
L 316.536381 -57.42 
L 317.014036 -57.42 
L 317.49169 -57.42 
L 317.969345 -57.42 
L 318.447 -57.42 
L 318.924655 -57.42 
L 319.402309 -57.42 
L 319.879964 -57.42 
L 320.357619 -57.42 
L 320.835273 -57.42 
L 321.312928 -57.42 
L 321.790583 -57.42 
L 322.268238 -57.42 
L 322.745892 -57.42 
L 323.223547 -57.42 
L 323.701202 -57.42 
L 324.178857 -57.42 
L 324.656511 -57.42 
L 325.134166 -57.42 
L 325.611821 -57.42 
L 326.089476 -57.42 
L 326.56713 -57.42 
L 327.044785 -57.42 
L 327.52244 -57.42 
L 328.000094 -57.42 
L 328.477749 -57.42 
L 328.955404 -57.42 
L 329.433059 -57.42 
L 329.910713 -57.42 
L 330.388368 -57.42 
L 330.866023 -57.42 
L 331.343678 -57.42 
L 331.821332 -57.42 
L 332.298987 -57.42 
L 332.776642 -57.42 
L 333.254296 -57.42 
L 333.731951 -57.42 
L 334.209606 -57.42 
L 334.687261 -57.42 
L 335.164915 -57.42 
L 335.64257 -57.42 
L 336.120225 -57.42 
L 336.59788 -57.42 
L 337.075534 -57.42 
L 337.553189 -57.42 
L 338.030844 -57.42 
L 338.508499 -57.42 
L 338.986153 -57.42 
L 339.463808 -57.42 
L 339.941463 -57.42 
L 340.419117 -57.42 
L 340.896772 -57.42 
L 341.374427 -57.42 
L 341.852082 -57.42 
L 342.329736 -57.42 
L 342.807391 -57.42 
L 343.285046 -57.42 
L 343.762701 -57.42 
L 344.240355 -57.42 
L 344.71801 -57.42 
L 345.195665 -57.42 
L 345.673319 -57.42 
L 346.150974 -57.42 
L 346.628629 -57.42 
L 347.106284 -57.42 
L 347.583938 -57.42 
L 348.061593 -57.42 
L 348.539248 -57.42 
L 349.016903 -57.42 
L 349.494557 -57.42 
L 349.972212 -57.42 
L 350.449867 -57.42 
L 350.927521 -57.42 
L 351.405176 -57.42 
L 351.882831 -57.42 
L 352.360486 -57.42 
L 352.83814 -57.42 
L 353.315795 -57.42 
L 353.79345 -57.42 
L 354.271105 -57.42 
L 354.748759 -57.42 
L 355.226414 -57.42 
L 355.704069 -57.42 
L 356.181724 -57.42 
L 356.659378 -57.42 
L 357.137033 -57.42 
L 357.614688 -57.42 
L 358.092342 -57.42 
L 358.569997 -57.42 
L 359.047652 -57.42 
L 359.525307 -57.42 
L 360.002961 -57.42 
L 360.480616 -57.42 
L 360.958271 -57.42 
L 361.435926 -57.42 
L 361.91358 -57.42 
L 362.391235 -57.42 
L 362.86889 -57.42 
L 363.346544 -57.42 
L 363.346544 -57.509223 
L 363.346544 -57.509223 
L 362.86889 -57.609797 
L 362.391235 -57.803319 
L 361.91358 -58.155406 
L 361.435926 -58.761101 
L 360.958271 -59.746396 
L 360.480616 -61.26208 
L 360.002961 -63.467105 
L 359.525307 -66.50114 
L 359.047652 -70.450099 
L 358.569997 -75.312704 
L 358.092342 -80.97865 
L 357.614688 -87.22777 
L 357.137033 -93.754284 
L 356.659378 -100.212342 
L 356.181724 -106.271683 
L 355.704069 -111.668627 
L 355.226414 -116.239447 
L 354.748759 -119.929409 
L 354.271105 -122.778846 
L 353.79345 -124.893932 
L 353.315795 -126.412514 
L 352.83814 -127.474055 
L 352.360486 -128.199108 
L 351.882831 -128.679533 
L 351.405176 -128.977657 
L 350.927521 -129.131126 
L 350.449867 -129.160213 
L 349.972212 -129.075117 
L 349.494557 -128.881762 
L 349.016903 -128.585487 
L 348.539248 -128.192648 
L 348.061593 -127.71058 
L 347.583938 -127.14665 
L 347.106284 -126.507118 
L 346.628629 -125.796417 
L 346.150974 -125.017105 
L 345.673319 -124.170379 
L 345.195665 -123.25683 
L 344.71801 -122.277057 
L 344.240355 -121.231923 
L 343.762701 -120.122517 
L 343.285046 -118.950031 
L 342.807391 -117.715833 
L 342.329736 -116.421845 
L 341.852082 -115.07117 
L 341.374427 -113.668698 
L 340.896772 -112.221419 
L 340.419117 -110.738247 
L 339.941463 -109.229374 
L 339.463808 -107.705305 
L 338.986153 -106.175847 
L 338.508499 -104.649297 
L 338.030844 -103.131963 
L 337.553189 -101.628088 
L 337.075534 -100.140087 
L 336.59788 -98.66904 
L 336.120225 -97.215294 
L 335.64257 -95.779083 
L 335.164915 -94.361045 
L 334.687261 -92.962556 
L 334.209606 -91.585821 
L 333.731951 -90.233714 
L 333.254296 -88.909425 
L 332.776642 -87.616012 
L 332.298987 -86.355976 
L 331.821332 -85.130967 
L 331.343678 -83.941666 
L 330.866023 -82.78785 
L 330.388368 -81.66861 
L 329.910713 -80.582663 
L 329.433059 -79.528676 
L 328.955404 -78.505514 
L 328.477749 -77.512364 
L 328.000094 -76.548698 
L 327.52244 -75.614138 
L 327.044785 -74.708303 
L 326.56713 -73.830741 
L 326.089476 -72.981001 
L 325.611821 -72.158798 
L 325.134166 -71.364197 
L 324.656511 -70.597693 
L 324.178857 -69.86012 
L 323.701202 -69.152396 
L 323.223547 -68.475194 
L 322.745892 -67.82867 
L 322.268238 -67.212364 
L 321.790583 -66.6253 
L 321.312928 -66.06625 
L 320.835273 -65.534024 
L 320.357619 -65.027681 
L 319.879964 -64.546594 
L 319.402309 -64.090359 
L 318.924655 -63.658644 
L 318.447 -63.251027 
L 317.969345 -62.866913 
L 317.49169 -62.505508 
L 317.014036 -62.165868 
L 316.536381 -61.846958 
L 316.058726 -61.54772 
L 315.581071 -61.267114 
L 315.103417 -61.004156 
L 314.625762 -60.75792 
L 314.148107 -60.527535 
L 313.670453 -60.312164 
L 313.192798 -60.110971 
L 312.715143 -59.923098 
L 312.237488 -59.747666 
L 311.759834 -59.583803 
L 311.282179 -59.430702 
L 310.804524 -59.287677 
L 310.326869 -59.154204 
L 309.849215 -59.029904 
L 309.37156 -58.914493 
L 308.893905 -58.807698 
L 308.416251 -58.709172 
L 307.938596 -58.61845 
L 307.460941 -58.534945 
L 306.983286 -58.457973 
L 306.505632 -58.38681 
L 306.027977 -58.32073 
L 305.550322 -58.259029 
L 305.072667 -58.201029 
L 304.595013 -58.146088 
L 304.117358 -58.093621 
L 303.639703 -58.043141 
L 303.162048 -57.994323 
L 302.684394 -57.947042 
L 302.206739 -57.90138 
L 301.729084 -57.857591 
L 301.25143 -57.816021 
L 300.773775 -57.777017 
L 300.29612 -57.74085 
L 299.818465 -57.707681 
L 299.340811 -57.677556 
L 298.863156 -57.650432 
L 298.385501 -57.626212 
L 297.907846 -57.604764 
L 297.430192 -57.585928 
L 296.952537 -57.569519 
L 296.474882 -57.555315 
L 295.997228 -57.543062 
L 295.519573 -57.532483 
L 295.041918 -57.523291 
L 294.564263 -57.51521 
L 294.086609 -57.507987 
L 293.608954 -57.501407 
L 293.131299 -57.495294 
L 292.653644 -57.489515 
L 292.17599 -57.483979 
L 291.698335 -57.478634 
L 291.22068 -57.47347 
L 290.743025 -57.468504 
L 290.265371 -57.46378 
L 289.787716 -57.459345 
L 289.310061 -57.455238 
L 288.832407 -57.451478 
L 288.354752 -57.448061 
L 287.877097 -57.44496 
L 287.399442 -57.442142 
L 286.921788 -57.439571 
L 286.444133 -57.437218 
L 285.966478 -57.435064 
L 285.488823 -57.433094 
L 285.011169 -57.4313 
L 284.533514 -57.429677 
L 284.055859 -57.428224 
L 283.578205 -57.426944 
L 283.10055 -57.425847 
L 282.622895 -57.42494 
L 282.14524 -57.42423 
L 281.667586 -57.423717 
L 281.189931 -57.423392 
L 280.712276 -57.42324 
L 280.234621 -57.423235 
L 279.756967 -57.42335 
L 279.279312 -57.423553 
L 278.801657 -57.423809 
L 278.324003 -57.424083 
L 277.846348 -57.42434 
L 277.368693 -57.424546 
L 276.891038 -57.424669 
L 276.413384 -57.424686 
L 275.935729 -57.424584 
L 275.458074 -57.42436 
L 274.980419 -57.424024 
L 274.502765 -57.423596 
L 274.02511 -57.423105 
L 273.547455 -57.422584 
L 273.0698 -57.422067 
L 272.592146 -57.421586 
L 272.114491 -57.421165 
L 271.636836 -57.420817 
L 271.159182 -57.420546 
L 270.681527 -57.420347 
L 270.203872 -57.42021 
L 269.726217 -57.420121 
L 269.248563 -57.420066 
L 268.770908 -57.420034 
L 268.293253 -57.420017 
z
" style="stroke: #ed7953"/>
    </defs>
    <g clip-path="url(#pe061d29e96)">
     <use xlink:href="#mbdd4fcc604" x="0" y="216" style="fill: #ed7953; fill-opacity: 0.25; stroke: #ed7953"/>
    </g>
   </g>
   <g id="line2d_3">
    <path d="M 329.301747 158.58 
L 329.301747 21.6 
" clip-path="url(#pe061d29e96)" style="fill: none; stroke: #800080; stroke-width: 1.5; stroke-linecap: round"/>
   </g>
   <g id="line2d_4">
    <path d="M 345.093124 158.58 
L 345.093124 21.6 
" clip-path="url(#pe061d29e96)" style="fill: none; stroke: #ffa500; stroke-width: 1.5; stroke-linecap: round"/>
   </g>
   <g id="patch_6">
    <path d="M 227.845713 158.58 
L 227.845713 21.6 
" style="fill: none; stroke: #262626; stroke-width: 1.25; stroke-linejoin: miter; stroke-linecap: square"/>
   </g>
   <g id="patch_7">
    <path d="M 227.845713 158.58 
L 418.603302 158.58 
" style="fill: none; stroke: #262626; stroke-width: 1.25; stroke-linejoin: miter; stroke-linecap: square"/>
   </g>
  </g>
  <g id="axes_3">
   <g id="patch_8">
    <path d="M 442.731425 158.58 
L 633.489015 158.58 
L 633.489015 21.6 
L 442.731425 21.6 
L 442.731425 158.58 
z
" style="fill: none"/>
   </g>
   <g id="matplotlib.axis_5">
    <g id="xtick_7">
     <g id="text_7">
      <!-- −15 -->
      <g style="fill: #262626" transform="translate(444.633829 179.890391) scale(0.165 -0.165)">
       <use xlink:href="#ArialMT-2212"/>
       <use xlink:href="#ArialMT-31" x="58.398438"/>
       <use xlink:href="#ArialMT-35" x="114.013672"/>
      </g>
     </g>
    </g>
    <g id="xtick_8">
     <g id="text_8">
      <!-- −10 -->
      <g style="fill: #262626" transform="translate(524.116158 179.890391) scale(0.165 -0.165)">
       <use xlink:href="#ArialMT-2212"/>
       <use xlink:href="#ArialMT-31" x="58.398438"/>
       <use xlink:href="#ArialMT-30" x="114.013672"/>
      </g>
     </g>
    </g>
    <g id="xtick_9">
     <g id="text_9">
      <!-- −5 -->
      <g style="fill: #262626" transform="translate(608.18626 179.890391) scale(0.165 -0.165)">
       <use xlink:href="#ArialMT-2212"/>
       <use xlink:href="#ArialMT-35" x="58.398438"/>
      </g>
     </g>
    </g>
   </g>
   <g id="matplotlib.axis_6"/>
   <g id="PolyCollection_5">
    <defs>
     <path id="m9ad99bdfa9" d="M 495.363131 -57.420006 
L 495.363131 -57.42 
L 495.760714 -57.42 
L 496.158297 -57.42 
L 496.555881 -57.42 
L 496.953464 -57.42 
L 497.351047 -57.42 
L 497.74863 -57.42 
L 498.146214 -57.42 
L 498.543797 -57.42 
L 498.94138 -57.42 
L 499.338964 -57.42 
L 499.736547 -57.42 
L 500.13413 -57.42 
L 500.531713 -57.42 
L 500.929297 -57.42 
L 501.32688 -57.42 
L 501.724463 -57.42 
L 502.122047 -57.42 
L 502.51963 -57.42 
L 502.917213 -57.42 
L 503.314796 -57.42 
L 503.71238 -57.42 
L 504.109963 -57.42 
L 504.507546 -57.42 
L 504.90513 -57.42 
L 505.302713 -57.42 
L 505.700296 -57.42 
L 506.097879 -57.42 
L 506.495463 -57.42 
L 506.893046 -57.42 
L 507.290629 -57.42 
L 507.688213 -57.42 
L 508.085796 -57.42 
L 508.483379 -57.42 
L 508.880962 -57.42 
L 509.278546 -57.42 
L 509.676129 -57.42 
L 510.073712 -57.42 
L 510.471296 -57.42 
L 510.868879 -57.42 
L 511.266462 -57.42 
L 511.664045 -57.42 
L 512.061629 -57.42 
L 512.459212 -57.42 
L 512.856795 -57.42 
L 513.254379 -57.42 
L 513.651962 -57.42 
L 514.049545 -57.42 
L 514.447129 -57.42 
L 514.844712 -57.42 
L 515.242295 -57.42 
L 515.639878 -57.42 
L 516.037462 -57.42 
L 516.435045 -57.42 
L 516.832628 -57.42 
L 517.230212 -57.42 
L 517.627795 -57.42 
L 518.025378 -57.42 
L 518.422961 -57.42 
L 518.820545 -57.42 
L 519.218128 -57.42 
L 519.615711 -57.42 
L 520.013295 -57.42 
L 520.410878 -57.42 
L 520.808461 -57.42 
L 521.206044 -57.42 
L 521.603628 -57.42 
L 522.001211 -57.42 
L 522.398794 -57.42 
L 522.796378 -57.42 
L 523.193961 -57.42 
L 523.591544 -57.42 
L 523.989127 -57.42 
L 524.386711 -57.42 
L 524.784294 -57.42 
L 525.181877 -57.42 
L 525.579461 -57.42 
L 525.977044 -57.42 
L 526.374627 -57.42 
L 526.77221 -57.42 
L 527.169794 -57.42 
L 527.567377 -57.42 
L 527.96496 -57.42 
L 528.362544 -57.42 
L 528.760127 -57.42 
L 529.15771 -57.42 
L 529.555293 -57.42 
L 529.952877 -57.42 
L 530.35046 -57.42 
L 530.748043 -57.42 
L 531.145627 -57.42 
L 531.54321 -57.42 
L 531.940793 -57.42 
L 532.338376 -57.42 
L 532.73596 -57.42 
L 533.133543 -57.42 
L 533.531126 -57.42 
L 533.92871 -57.42 
L 534.326293 -57.42 
L 534.723876 -57.42 
L 535.121459 -57.42 
L 535.519043 -57.42 
L 535.916626 -57.42 
L 536.314209 -57.42 
L 536.711793 -57.42 
L 537.109376 -57.42 
L 537.506959 -57.42 
L 537.904542 -57.42 
L 538.302126 -57.42 
L 538.699709 -57.42 
L 539.097292 -57.42 
L 539.494876 -57.42 
L 539.892459 -57.42 
L 540.290042 -57.42 
L 540.687625 -57.42 
L 541.085209 -57.42 
L 541.482792 -57.42 
L 541.880375 -57.42 
L 542.277959 -57.42 
L 542.675542 -57.42 
L 543.073125 -57.42 
L 543.470708 -57.42 
L 543.868292 -57.42 
L 544.265875 -57.42 
L 544.663458 -57.42 
L 545.061042 -57.42 
L 545.458625 -57.42 
L 545.856208 -57.42 
L 546.253792 -57.42 
L 546.651375 -57.42 
L 547.048958 -57.42 
L 547.446541 -57.42 
L 547.844125 -57.42 
L 548.241708 -57.42 
L 548.639291 -57.42 
L 549.036875 -57.42 
L 549.434458 -57.42 
L 549.832041 -57.42 
L 550.229624 -57.42 
L 550.627208 -57.42 
L 551.024791 -57.42 
L 551.422374 -57.42 
L 551.819958 -57.42 
L 552.217541 -57.42 
L 552.615124 -57.42 
L 553.012707 -57.42 
L 553.410291 -57.42 
L 553.807874 -57.42 
L 554.205457 -57.42 
L 554.603041 -57.42 
L 555.000624 -57.42 
L 555.398207 -57.42 
L 555.79579 -57.42 
L 556.193374 -57.42 
L 556.590957 -57.42 
L 556.98854 -57.42 
L 557.386124 -57.42 
L 557.783707 -57.42 
L 558.18129 -57.42 
L 558.578873 -57.42 
L 558.976457 -57.42 
L 559.37404 -57.42 
L 559.771623 -57.42 
L 560.169207 -57.42 
L 560.56679 -57.42 
L 560.964373 -57.42 
L 561.361956 -57.42 
L 561.75954 -57.42 
L 562.157123 -57.42 
L 562.554706 -57.42 
L 562.95229 -57.42 
L 563.349873 -57.42 
L 563.747456 -57.42 
L 564.145039 -57.42 
L 564.542623 -57.42 
L 564.940206 -57.42 
L 565.337789 -57.42 
L 565.735373 -57.42 
L 566.132956 -57.42 
L 566.530539 -57.42 
L 566.928122 -57.42 
L 567.325706 -57.42 
L 567.723289 -57.42 
L 568.120872 -57.42 
L 568.518456 -57.42 
L 568.916039 -57.42 
L 569.313622 -57.42 
L 569.711205 -57.42 
L 570.108789 -57.42 
L 570.506372 -57.42 
L 570.903955 -57.42 
L 571.301539 -57.42 
L 571.699122 -57.42 
L 572.096705 -57.42 
L 572.494288 -57.42 
L 572.891872 -57.42 
L 573.289455 -57.42 
L 573.687038 -57.42 
L 574.084622 -57.42 
L 574.482205 -57.42 
L 574.482205 -57.62291 
L 574.482205 -57.62291 
L 574.084622 -57.900218 
L 573.687038 -58.480899 
L 573.289455 -59.609553 
L 572.891872 -61.645659 
L 572.494288 -65.05451 
L 572.096705 -70.350148 
L 571.699122 -77.982111 
L 571.301539 -88.182628 
L 570.903955 -100.820246 
L 570.506372 -115.322561 
L 570.108789 -130.718628 
L 569.711205 -145.808863 
L 569.313622 -159.41504 
L 568.916039 -170.625322 
L 568.518456 -178.951248 
L 568.120872 -184.354234 
L 567.723289 -187.154643 
L 567.325706 -187.877143 
L 566.928122 -187.095162 
L 566.530539 -185.318437 
L 566.132956 -182.937919 
L 565.735373 -180.21854 
L 565.337789 -177.320192 
L 564.940206 -174.328675 
L 564.542623 -171.285045 
L 564.145039 -168.208207 
L 563.747456 -165.109643 
L 563.349873 -162.001054 
L 562.95229 -158.896551 
L 562.554706 -155.811414 
L 562.157123 -152.759497 
L 561.75954 -149.750973 
L 561.361956 -146.79129 
L 560.964373 -143.881416 
L 560.56679 -141.018869 
L 560.169207 -138.198889 
L 559.771623 -135.415368 
L 559.37404 -132.661536 
L 558.976457 -129.930734 
L 558.578873 -127.217538 
L 558.18129 -124.519209 
L 557.783707 -121.836999 
L 557.386124 -119.176722 
L 556.98854 -116.548224 
L 556.590957 -113.9639 
L 556.193374 -111.436792 
L 555.79579 -108.978886 
L 555.398207 -106.599959 
L 555.000624 -104.306984 
L 554.603041 -102.103934 
L 554.205457 -99.991838 
L 553.807874 -97.969066 
L 553.410291 -96.031865 
L 553.012707 -94.175075 
L 552.615124 -92.392891 
L 552.217541 -90.679542 
L 551.819958 -89.029814 
L 551.422374 -87.439444 
L 551.024791 -85.905385 
L 550.627208 -84.425927 
L 550.229624 -83.000573 
L 549.832041 -81.629661 
L 549.434458 -80.31378 
L 549.036875 -79.053175 
L 548.639291 -77.84733 
L 548.241708 -76.694894 
L 547.844125 -75.59396 
L 547.446541 -74.54258 
L 547.048958 -73.539303 
L 546.651375 -72.58348 
L 546.253792 -71.675183 
L 545.856208 -70.814741 
L 545.458625 -70.002049 
L 545.061042 -69.23593 
L 544.663458 -68.513795 
L 544.265875 -67.831743 
L 543.868292 -67.185103 
L 543.470708 -66.569294 
L 543.073125 -65.980746 
L 542.675542 -65.417603 
L 542.277959 -64.87992 
L 541.880375 -64.369297 
L 541.482792 -63.888076 
L 541.085209 -63.438422 
L 540.687625 -63.021593 
L 540.290042 -62.63755 
L 539.892459 -62.284891 
L 539.494876 -61.960996 
L 539.097292 -61.662326 
L 538.699709 -61.384844 
L 538.302126 -61.124564 
L 537.904542 -60.878134 
L 537.506959 -60.643305 
L 537.109376 -60.419112 
L 536.711793 -60.205711 
L 536.314209 -60.003929 
L 535.916626 -59.814697 
L 535.519043 -59.638564 
L 535.121459 -59.475438 
L 534.723876 -59.324604 
L 534.326293 -59.184982 
L 533.92871 -59.055484 
L 533.531126 -58.935307 
L 533.133543 -58.824031 
L 532.73596 -58.721474 
L 532.338376 -58.627383 
L 531.940793 -58.541126 
L 531.54321 -58.461563 
L 531.145627 -58.387168 
L 530.748043 -58.316366 
L 530.35046 -58.247953 
L 529.952877 -58.18139 
L 529.555293 -58.116883 
L 529.15771 -58.055208 
L 528.760127 -57.997377 
L 528.362544 -57.944278 
L 527.96496 -57.896419 
L 527.567377 -57.853845 
L 527.169794 -57.816196 
L 526.77221 -57.782861 
L 526.374627 -57.753135 
L 525.977044 -57.726328 
L 525.579461 -57.701833 
L 525.181877 -57.679171 
L 524.784294 -57.658025 
L 524.386711 -57.638264 
L 523.989127 -57.619934 
L 523.591544 -57.603208 
L 523.193961 -57.588276 
L 522.796378 -57.575228 
L 522.398794 -57.563961 
L 522.001211 -57.554156 
L 521.603628 -57.54534 
L 521.206044 -57.537015 
L 520.808461 -57.528801 
L 520.410878 -57.520537 
L 520.013295 -57.512292 
L 519.615711 -57.504287 
L 519.218128 -57.49676 
L 518.820545 -57.489859 
L 518.422961 -57.483586 
L 518.025378 -57.477828 
L 517.627795 -57.472443 
L 517.230212 -57.467335 
L 516.832628 -57.462501 
L 516.435045 -57.458019 
L 516.037462 -57.453991 
L 515.639878 -57.450488 
L 515.242295 -57.447508 
L 514.844712 -57.444975 
L 514.447129 -57.442772 
L 514.049545 -57.440776 
L 513.651962 -57.438893 
L 513.254379 -57.437074 
L 512.856795 -57.435306 
L 512.459212 -57.433602 
L 512.061629 -57.431982 
L 511.664045 -57.430467 
L 511.266462 -57.429074 
L 510.868879 -57.427815 
L 510.471296 -57.426708 
L 510.073712 -57.425767 
L 509.676129 -57.425003 
L 509.278546 -57.424416 
L 508.880962 -57.423988 
L 508.483379 -57.423689 
L 508.085796 -57.423479 
L 507.688213 -57.423328 
L 507.290629 -57.423218 
L 506.893046 -57.42315 
L 506.495463 -57.423137 
L 506.097879 -57.423187 
L 505.700296 -57.423291 
L 505.302713 -57.423424 
L 504.90513 -57.423543 
L 504.507546 -57.423607 
L 504.109963 -57.423593 
L 503.71238 -57.423496 
L 503.314796 -57.423336 
L 502.917213 -57.423139 
L 502.51963 -57.422931 
L 502.122047 -57.422722 
L 501.724463 -57.422511 
L 501.32688 -57.422288 
L 500.929297 -57.422047 
L 500.531713 -57.421786 
L 500.13413 -57.421512 
L 499.736547 -57.421238 
L 499.338964 -57.420978 
L 498.94138 -57.420743 
L 498.543797 -57.420541 
L 498.146214 -57.420376 
L 497.74863 -57.420248 
L 497.351047 -57.420155 
L 496.953464 -57.420091 
L 496.555881 -57.420051 
L 496.158297 -57.420026 
L 495.760714 -57.420013 
L 495.363131 -57.420006 
z
" style="stroke: #9c179e"/>
    </defs>
    <g clip-path="url(#pb8b1b9790a)">
     <use xlink:href="#m9ad99bdfa9" x="0" y="216" style="fill: #9c179e; fill-opacity: 0.25; stroke: #9c179e"/>
    </g>
   </g>
   <g id="PolyCollection_6">
    <defs>
     <path id="m2aa86d980d" d="M 502.02483 -57.420006 
L 502.02483 -57.42 
L 502.645424 -57.42 
L 503.266019 -57.42 
L 503.886613 -57.42 
L 504.507208 -57.42 
L 505.127802 -57.42 
L 505.748397 -57.42 
L 506.368992 -57.42 
L 506.989586 -57.42 
L 507.610181 -57.42 
L 508.230775 -57.42 
L 508.85137 -57.42 
L 509.471964 -57.42 
L 510.092559 -57.42 
L 510.713154 -57.42 
L 511.333748 -57.42 
L 511.954343 -57.42 
L 512.574937 -57.42 
L 513.195532 -57.42 
L 513.816126 -57.42 
L 514.436721 -57.42 
L 515.057315 -57.42 
L 515.67791 -57.42 
L 516.298505 -57.42 
L 516.919099 -57.42 
L 517.539694 -57.42 
L 518.160288 -57.42 
L 518.780883 -57.42 
L 519.401477 -57.42 
L 520.022072 -57.42 
L 520.642667 -57.42 
L 521.263261 -57.42 
L 521.883856 -57.42 
L 522.50445 -57.42 
L 523.125045 -57.42 
L 523.745639 -57.42 
L 524.366234 -57.42 
L 524.986828 -57.42 
L 525.607423 -57.42 
L 526.228018 -57.42 
L 526.848612 -57.42 
L 527.469207 -57.42 
L 528.089801 -57.42 
L 528.710396 -57.42 
L 529.33099 -57.42 
L 529.951585 -57.42 
L 530.572179 -57.42 
L 531.192774 -57.42 
L 531.813369 -57.42 
L 532.433963 -57.42 
L 533.054558 -57.42 
L 533.675152 -57.42 
L 534.295747 -57.42 
L 534.916341 -57.42 
L 535.536936 -57.42 
L 536.157531 -57.42 
L 536.778125 -57.42 
L 537.39872 -57.42 
L 538.019314 -57.42 
L 538.639909 -57.42 
L 539.260503 -57.42 
L 539.881098 -57.42 
L 540.501692 -57.42 
L 541.122287 -57.42 
L 541.742882 -57.42 
L 542.363476 -57.42 
L 542.984071 -57.42 
L 543.604665 -57.42 
L 544.22526 -57.42 
L 544.845854 -57.42 
L 545.466449 -57.42 
L 546.087044 -57.42 
L 546.707638 -57.42 
L 547.328233 -57.42 
L 547.948827 -57.42 
L 548.569422 -57.42 
L 549.190016 -57.42 
L 549.810611 -57.42 
L 550.431205 -57.42 
L 551.0518 -57.42 
L 551.672395 -57.42 
L 552.292989 -57.42 
L 552.913584 -57.42 
L 553.534178 -57.42 
L 554.154773 -57.42 
L 554.775367 -57.42 
L 555.395962 -57.42 
L 556.016557 -57.42 
L 556.637151 -57.42 
L 557.257746 -57.42 
L 557.87834 -57.42 
L 558.498935 -57.42 
L 559.119529 -57.42 
L 559.740124 -57.42 
L 560.360718 -57.42 
L 560.981313 -57.42 
L 561.601908 -57.42 
L 562.222502 -57.42 
L 562.843097 -57.42 
L 563.463691 -57.42 
L 564.084286 -57.42 
L 564.70488 -57.42 
L 565.325475 -57.42 
L 565.94607 -57.42 
L 566.566664 -57.42 
L 567.187259 -57.42 
L 567.807853 -57.42 
L 568.428448 -57.42 
L 569.049042 -57.42 
L 569.669637 -57.42 
L 570.290231 -57.42 
L 570.910826 -57.42 
L 571.531421 -57.42 
L 572.152015 -57.42 
L 572.77261 -57.42 
L 573.393204 -57.42 
L 574.013799 -57.42 
L 574.634393 -57.42 
L 575.254988 -57.42 
L 575.875583 -57.42 
L 576.496177 -57.42 
L 577.116772 -57.42 
L 577.737366 -57.42 
L 578.357961 -57.42 
L 578.978555 -57.42 
L 579.59915 -57.42 
L 580.219744 -57.42 
L 580.840339 -57.42 
L 581.460934 -57.42 
L 582.081528 -57.42 
L 582.702123 -57.42 
L 583.322717 -57.42 
L 583.943312 -57.42 
L 584.563906 -57.42 
L 585.184501 -57.42 
L 585.805095 -57.42 
L 586.42569 -57.42 
L 587.046285 -57.42 
L 587.666879 -57.42 
L 588.287474 -57.42 
L 588.908068 -57.42 
L 589.528663 -57.42 
L 590.149257 -57.42 
L 590.769852 -57.42 
L 591.390447 -57.42 
L 592.011041 -57.42 
L 592.631636 -57.42 
L 593.25223 -57.42 
L 593.872825 -57.42 
L 594.493419 -57.42 
L 595.114014 -57.42 
L 595.734608 -57.42 
L 596.355203 -57.42 
L 596.975798 -57.42 
L 597.596392 -57.42 
L 598.216987 -57.42 
L 598.837581 -57.42 
L 599.458176 -57.42 
L 600.07877 -57.42 
L 600.699365 -57.42 
L 601.31996 -57.42 
L 601.940554 -57.42 
L 602.561149 -57.42 
L 603.181743 -57.42 
L 603.802338 -57.42 
L 604.422932 -57.42 
L 605.043527 -57.42 
L 605.664121 -57.42 
L 606.284716 -57.42 
L 606.905311 -57.42 
L 607.525905 -57.42 
L 608.1465 -57.42 
L 608.767094 -57.42 
L 609.387689 -57.42 
L 610.008283 -57.42 
L 610.628878 -57.42 
L 611.249473 -57.42 
L 611.870067 -57.42 
L 612.490662 -57.42 
L 613.111256 -57.42 
L 613.731851 -57.42 
L 614.352445 -57.42 
L 614.97304 -57.42 
L 615.593634 -57.42 
L 616.214229 -57.42 
L 616.834824 -57.42 
L 617.455418 -57.42 
L 618.076013 -57.42 
L 618.696607 -57.42 
L 619.317202 -57.42 
L 619.937796 -57.42 
L 620.558391 -57.42 
L 621.178986 -57.42 
L 621.79958 -57.42 
L 622.420175 -57.42 
L 623.040769 -57.42 
L 623.661364 -57.42 
L 624.281958 -57.42 
L 624.902553 -57.42 
L 625.523147 -57.42 
L 625.523147 -57.509295 
L 625.523147 -57.509295 
L 624.902553 -57.590643 
L 624.281958 -57.733894 
L 623.661364 -57.975964 
L 623.040769 -58.368486 
L 622.420175 -58.97922 
L 621.79958 -59.890993 
L 621.178986 -61.197004 
L 620.558391 -62.991746 
L 619.937796 -65.357747 
L 619.317202 -68.349564 
L 618.696607 -71.9778 
L 618.076013 -76.196764 
L 617.455418 -80.899395 
L 616.834824 -85.921961 
L 616.214229 -91.058938 
L 615.593634 -96.085993 
L 614.97304 -100.786827 
L 614.352445 -104.978546 
L 613.731851 -108.530625 
L 613.111256 -111.374227 
L 612.490662 -113.501114 
L 611.870067 -114.953818 
L 611.249473 -115.810399 
L 610.628878 -116.167659 
L 610.008283 -116.126147 
L 609.387689 -115.779082 
L 608.767094 -115.205882 
L 608.1465 -114.469852 
L 607.525905 -113.618902 
L 606.905311 -112.68799 
L 606.284716 -111.702159 
L 605.664121 -110.679426 
L 605.043527 -109.633097 
L 604.422932 -108.573411 
L 603.802338 -107.508573 
L 603.181743 -106.445302 
L 602.561149 -105.38908 
L 601.940554 -104.344239 
L 601.31996 -103.313999 
L 600.699365 -102.300539 
L 600.07877 -101.305125 
L 599.458176 -100.328302 
L 598.837581 -99.37012 
L 598.216987 -98.430376 
L 597.596392 -97.508819 
L 596.975798 -96.605313 
L 596.355203 -95.719923 
L 595.734608 -94.852904 
L 595.114014 -94.004616 
L 594.493419 -93.175358 
L 593.872825 -92.365178 
L 593.25223 -91.573694 
L 592.631636 -90.799996 
L 592.011041 -90.042649 
L 591.390447 -89.299828 
L 590.769852 -88.569551 
L 590.149257 -87.84997 
L 589.528663 -87.13964 
L 588.908068 -86.437717 
L 588.287474 -85.744009 
L 587.666879 -85.058894 
L 587.046285 -84.383114 
L 586.42569 -83.717499 
L 585.805095 -83.062706 
L 585.184501 -82.419024 
L 584.563906 -81.786302 
L 583.943312 -81.163996 
L 583.322717 -80.551329 
L 582.702123 -79.947471 
L 582.081528 -79.351714 
L 581.460934 -78.763566 
L 580.840339 -78.182752 
L 580.219744 -77.609137 
L 579.59915 -77.042618 
L 578.978555 -76.483033 
L 578.357961 -75.930135 
L 577.737366 -75.383657 
L 577.116772 -74.843431 
L 576.496177 -74.309543 
L 575.875583 -73.782431 
L 575.254988 -73.262908 
L 574.634393 -72.752051 
L 574.013799 -72.250998 
L 573.393204 -71.760686 
L 572.77261 -71.281602 
L 572.152015 -70.813625 
L 571.531421 -70.355994 
L 570.910826 -69.90742 
L 570.290231 -69.466313 
L 569.669637 -69.031063 
L 569.049042 -68.600322 
L 568.428448 -68.173211 
L 567.807853 -67.749425 
L 567.187259 -67.329217 
L 566.566664 -66.913269 
L 565.94607 -66.502495 
L 565.325475 -66.097805 
L 564.70488 -65.6999 
L 564.084286 -65.309142 
L 563.463691 -64.92552 
L 562.843097 -64.548733 
L 562.222502 -64.17835 
L 561.601908 -63.814016 
L 560.981313 -63.455644 
L 560.360718 -63.103532 
L 559.740124 -62.758395 
L 559.119529 -62.421293 
L 558.498935 -62.093507 
L 557.87834 -61.776389 
L 557.257746 -61.471231 
L 556.637151 -61.179176 
L 556.016557 -60.901172 
L 555.395962 -60.637952 
L 554.775367 -60.390026 
L 554.154773 -60.157654 
L 553.534178 -59.940827 
L 552.913584 -59.739234 
L 552.292989 -59.552266 
L 551.672395 -59.379043 
L 551.0518 -59.218493 
L 550.431205 -59.069451 
L 549.810611 -58.930793 
L 549.190016 -58.801543 
L 548.569422 -58.680961 
L 547.948827 -58.568579 
L 547.328233 -58.464185 
L 546.707638 -58.367753 
L 546.087044 -58.279352 
L 545.466449 -58.199033 
L 544.845854 -58.126735 
L 544.22526 -58.062222 
L 543.604665 -58.005055 
L 542.984071 -57.9546 
L 542.363476 -57.91008 
L 541.742882 -57.870631 
L 541.122287 -57.835373 
L 540.501692 -57.803476 
L 539.881098 -57.774209 
L 539.260503 -57.746978 
L 538.639909 -57.721336 
L 538.019314 -57.696993 
L 537.39872 -57.673793 
L 536.778125 -57.651694 
L 536.157531 -57.630738 
L 535.536936 -57.611013 
L 534.916341 -57.59262 
L 534.295747 -57.575644 
L 533.675152 -57.560129 
L 533.054558 -57.546069 
L 532.433963 -57.533403 
L 531.813369 -57.522029 
L 531.192774 -57.51182 
L 530.572179 -57.502643 
L 529.951585 -57.494377 
L 529.33099 -57.486929 
L 528.710396 -57.480235 
L 528.089801 -57.474256 
L 527.469207 -57.468969 
L 526.848612 -57.46435 
L 526.228018 -57.460368 
L 525.607423 -57.456968 
L 524.986828 -57.454075 
L 524.366234 -57.451593 
L 523.745639 -57.449414 
L 523.125045 -57.447428 
L 522.50445 -57.445536 
L 521.883856 -57.443659 
L 521.263261 -57.441744 
L 520.642667 -57.439769 
L 520.022072 -57.437739 
L 519.401477 -57.435682 
L 518.780883 -57.433641 
L 518.160288 -57.431665 
L 517.539694 -57.429802 
L 516.919099 -57.428094 
L 516.298505 -57.426571 
L 515.67791 -57.425252 
L 515.057315 -57.424143 
L 514.436721 -57.423238 
L 513.816126 -57.422522 
L 513.195532 -57.42197 
L 512.574937 -57.421555 
L 511.954343 -57.421247 
L 511.333748 -57.421018 
L 510.713154 -57.420842 
L 510.092559 -57.420701 
L 509.471964 -57.420582 
L 508.85137 -57.420477 
L 508.230775 -57.420383 
L 507.610181 -57.4203 
L 506.989586 -57.420227 
L 506.368992 -57.420166 
L 505.748397 -57.420117 
L 505.127802 -57.420079 
L 504.507208 -57.420052 
L 503.886613 -57.420032 
L 503.266019 -57.42002 
L 502.645424 -57.420011 
L 502.02483 -57.420006 
z
" style="stroke: #ed7953"/>
    </defs>
    <g clip-path="url(#pb8b1b9790a)">
     <use xlink:href="#m2aa86d980d" x="0" y="216" style="fill: #ed7953; fill-opacity: 0.25; stroke: #ed7953"/>
    </g>
   </g>
   <g id="line2d_5">
    <path d="M 563.061739 158.58 
L 563.061739 21.6 
" clip-path="url(#pb8b1b9790a)" style="fill: none; stroke: #800080; stroke-width: 1.5; stroke-linecap: round"/>
   </g>
   <g id="line2d_6">
    <path d="M 600.403177 158.58 
L 600.403177 21.6 
" clip-path="url(#pb8b1b9790a)" style="fill: none; stroke: #ffa500; stroke-width: 1.5; stroke-linecap: round"/>
   </g>
   <g id="patch_9">
    <path d="M 442.731425 158.58 
L 442.731425 21.6 
" style="fill: none; stroke: #262626; stroke-width: 1.25; stroke-linejoin: miter; stroke-linecap: square"/>
   </g>
   <g id="patch_10">
    <path d="M 442.731425 158.58 
L 633.489015 158.58 
" style="fill: none; stroke: #262626; stroke-width: 1.25; stroke-linejoin: miter; stroke-linecap: square"/>
   </g>
  </g>
 </g>
 <defs>
  <clipPath id="p99db71ba92">
   <rect x="12.96" y="21.6" width="190.757589" height="136.98"/>
  </clipPath>
  <clipPath id="pe061d29e96">
   <rect x="227.845713" y="21.6" width="190.757589" height="136.98"/>
  </clipPath>
  <clipPath id="pb8b1b9790a">
   <rect x="442.731425" y="21.6" width="190.757589" height="136.98"/>
  </clipPath>
 </defs>
</svg>
